<?xml version="1.0" encoding="UTF-8" standalone="no"?><svg xmlns="http://www.w3.org/2000/svg" xmlns:xlink="http://www.w3.org/1999/xlink" contentStyleType="text/css" height="467px" preserveAspectRatio="none" style="width:1205px;height:467px;background:#FFFFFF;" version="1.1" viewBox="0 0 1205 467" width="1205px" zoomAndPan="magnify"><defs/><g><!--class CardController--><g id="elem_CardController"><rect codeLine="1" fill="#F1F1F1" height="64.2969" id="CardController" rx="2.5" ry="2.5" style="stroke:#181818;stroke-width:0.5;" width="413" x="7" y="7"/><ellipse cx="159.75" cy="23" fill="#ADD1B2" rx="11" ry="11" style="stroke:#181818;stroke-width:1.0;"/><path d="M162.7188,28.6406 Q162.1406,28.9375 161.5,29.0781 Q160.8594,29.2344 160.1563,29.2344 Q157.6563,29.2344 156.3281,27.5938 Q155.0156,25.9375 155.0156,22.8125 Q155.0156,19.6875 156.3281,18.0313 Q157.6563,16.375 160.1563,16.375 Q160.8594,16.375 161.5,16.5313 Q162.1563,16.6875 162.7188,16.9844 L162.7188,19.7031 Q162.0938,19.125 161.5,18.8594 Q160.9063,18.5781 160.2813,18.5781 Q158.9375,18.5781 158.25,19.6563 Q157.5625,20.7188 157.5625,22.8125 Q157.5625,24.9063 158.25,25.9844 Q158.9375,27.0469 160.2813,27.0469 Q160.9063,27.0469 161.5,26.7813 Q162.0938,26.5 162.7188,25.9219 L162.7188,28.6406 Z " fill="#000000"/><text fill="#000000" font-family="sans-serif" font-size="14" lengthAdjust="spacing" textLength="99" x="180.25" y="27.8467">CardController</text><line style="stroke:#181818;stroke-width:0.5;" x1="8" x2="419" y1="39" y2="39"/><text fill="#000000" font-family="sans-serif" font-size="14" lengthAdjust="spacing" textLength="401" x="13" y="55.9951">clickEventControllerProtocol:  ClickEventControllerProtocol</text><line style="stroke:#181818;stroke-width:0.5;" x1="8" x2="419" y1="63.2969" y2="63.2969"/></g><!--class ClickEventControllerProtocol--><g id="elem_ClickEventControllerProtocol"><rect codeLine="4" fill="#F1F1F1" height="64.2969" id="ClickEventControllerProtocol" rx="2.5" ry="2.5" style="stroke:#181818;stroke-width:0.5;" width="227" x="455" y="7"/><ellipse cx="470" cy="23" fill="#B4A7E5" rx="11" ry="11" style="stroke:#181818;stroke-width:1.0;"/><path d="M465.9219,18.7656 L465.9219,16.6094 L473.3125,16.6094 L473.3125,18.7656 L470.8438,18.7656 L470.8438,26.8438 L473.3125,26.8438 L473.3125,29 L465.9219,29 L465.9219,26.8438 L468.3906,26.8438 L468.3906,18.7656 L465.9219,18.7656 Z " fill="#000000"/><text fill="#000000" font-family="sans-serif" font-size="14" font-style="italic" lengthAdjust="spacing" textLength="195" x="484" y="27.8467">ClickEventControllerProtocol</text><line style="stroke:#181818;stroke-width:0.5;" x1="456" x2="681" y1="39" y2="39"/><line style="stroke:#181818;stroke-width:0.5;" x1="456" x2="681" y1="47" y2="47"/><text fill="#000000" font-family="sans-serif" font-size="14" lengthAdjust="spacing" textLength="97" x="461" y="63.9951">onClick(): void</text></g><!--class CardDetailModelProtocol--><g id="elem_CardDetailModelProtocol"><rect codeLine="8" fill="#F1F1F1" height="64.2969" id="CardDetailModelProtocol" rx="2.5" ry="2.5" style="stroke:#181818;stroke-width:0.5;" width="202" x="564.5" y="272"/><ellipse cx="579.5" cy="288" fill="#B4A7E5" rx="11" ry="11" style="stroke:#181818;stroke-width:1.0;"/><path d="M575.4219,283.7656 L575.4219,281.6094 L582.8125,281.6094 L582.8125,283.7656 L580.3438,283.7656 L580.3438,291.8438 L582.8125,291.8438 L582.8125,294 L575.4219,294 L575.4219,291.8438 L577.8906,291.8438 L577.8906,283.7656 L575.4219,283.7656 Z " fill="#000000"/><text fill="#000000" font-family="sans-serif" font-size="14" font-style="italic" lengthAdjust="spacing" textLength="170" x="593.5" y="292.8467">CardDetailModelProtocol</text><line style="stroke:#181818;stroke-width:0.5;" x1="565.5" x2="765.5" y1="304" y2="304"/><line style="stroke:#181818;stroke-width:0.5;" x1="565.5" x2="765.5" y1="312" y2="312"/><text fill="#000000" font-family="sans-serif" font-size="14" lengthAdjust="spacing" textLength="158" x="570.5" y="328.9951">create(): HTMLElement</text></g><!--class CardDetailModel--><g id="elem_CardDetailModel"><rect codeLine="12" fill="#F1F1F1" height="64.2969" id="CardDetailModel" rx="2.5" ry="2.5" style="stroke:#181818;stroke-width:0.5;" width="170" x="580.5" y="396"/><ellipse cx="606.75" cy="412" fill="#ADD1B2" rx="11" ry="11" style="stroke:#181818;stroke-width:1.0;"/><path d="M609.7188,417.6406 Q609.1406,417.9375 608.5,418.0781 Q607.8594,418.2344 607.1563,418.2344 Q604.6563,418.2344 603.3281,416.5938 Q602.0156,414.9375 602.0156,411.8125 Q602.0156,408.6875 603.3281,407.0313 Q604.6563,405.375 607.1563,405.375 Q607.8594,405.375 608.5,405.5313 Q609.1563,405.6875 609.7188,405.9844 L609.7188,408.7031 Q609.0938,408.125 608.5,407.8594 Q607.9063,407.5781 607.2813,407.5781 Q605.9375,407.5781 605.25,408.6563 Q604.5625,409.7188 604.5625,411.8125 Q604.5625,413.9063 605.25,414.9844 Q605.9375,416.0469 607.2813,416.0469 Q607.9063,416.0469 608.5,415.7813 Q609.0938,415.5 609.7188,414.9219 L609.7188,417.6406 Z " fill="#000000"/><text fill="#000000" font-family="sans-serif" font-size="14" lengthAdjust="spacing" textLength="113" x="623.25" y="416.8467">CardDetailModel</text><line style="stroke:#181818;stroke-width:0.5;" x1="581.5" x2="749.5" y1="428" y2="428"/><line style="stroke:#181818;stroke-width:0.5;" x1="581.5" x2="749.5" y1="436" y2="436"/><text fill="#000000" font-family="sans-serif" font-size="14" lengthAdjust="spacing" textLength="158" x="586.5" y="452.9951">create(): HTMLElement</text></g><!--class ClickEventController--><g id="elem_ClickEventController"><rect codeLine="16" fill="#F1F1F1" height="80.5938" id="ClickEventController" rx="2.5" ry="2.5" style="stroke:#181818;stroke-width:0.5;" width="339" x="399" y="131"/><ellipse cx="495.25" cy="147" fill="#ADD1B2" rx="11" ry="11" style="stroke:#181818;stroke-width:1.0;"/><path d="M498.2188,152.6406 Q497.6406,152.9375 497,153.0781 Q496.3594,153.2344 495.6563,153.2344 Q493.1563,153.2344 491.8281,151.5938 Q490.5156,149.9375 490.5156,146.8125 Q490.5156,143.6875 491.8281,142.0313 Q493.1563,140.375 495.6563,140.375 Q496.3594,140.375 497,140.5313 Q497.6563,140.6875 498.2188,140.9844 L498.2188,143.7031 Q497.5938,143.125 497,142.8594 Q496.4063,142.5781 495.7813,142.5781 Q494.4375,142.5781 493.75,143.6563 Q493.0625,144.7188 493.0625,146.8125 Q493.0625,148.9063 493.75,149.9844 Q494.4375,151.0469 495.7813,151.0469 Q496.4063,151.0469 497,150.7813 Q497.5938,150.5 498.2188,149.9219 L498.2188,152.6406 Z " fill="#000000"/><text fill="#000000" font-family="sans-serif" font-size="14" lengthAdjust="spacing" textLength="138" x="515.75" y="151.8467">ClickEventController</text><line style="stroke:#181818;stroke-width:0.5;" x1="400" x2="737" y1="163" y2="163"/><text fill="#000000" font-family="sans-serif" font-size="14" lengthAdjust="spacing" textLength="327" x="405" y="179.9951">cardDetailViewProtocol: CardDetailViewProtocol</text><line style="stroke:#181818;stroke-width:0.5;" x1="400" x2="737" y1="187.2969" y2="187.2969"/><text fill="#000000" font-family="sans-serif" font-size="14" lengthAdjust="spacing" textLength="97" x="405" y="204.292">onClick(): void</text></g><!--class CardDetailViewProtocol--><g id="elem_CardDetailViewProtocol"><rect codeLine="21" fill="#F1F1F1" height="64.2969" id="CardDetailViewProtocol" rx="2.5" ry="2.5" style="stroke:#181818;stroke-width:0.5;" width="192" x="1006.5" y="272"/><ellipse cx="1021.5" cy="288" fill="#B4A7E5" rx="11" ry="11" style="stroke:#181818;stroke-width:1.0;"/><path d="M1017.4219,283.7656 L1017.4219,281.6094 L1024.8125,281.6094 L1024.8125,283.7656 L1022.3438,283.7656 L1022.3438,291.8438 L1024.8125,291.8438 L1024.8125,294 L1017.4219,294 L1017.4219,291.8438 L1019.8906,291.8438 L1019.8906,283.7656 L1017.4219,283.7656 Z " fill="#000000"/><text fill="#000000" font-family="sans-serif" font-size="14" font-style="italic" lengthAdjust="spacing" textLength="160" x="1035.5" y="292.8467">CardDetailViewProtocol</text><line style="stroke:#181818;stroke-width:0.5;" x1="1007.5" x2="1197.5" y1="304" y2="304"/><line style="stroke:#181818;stroke-width:0.5;" x1="1007.5" x2="1197.5" y1="312" y2="312"/><text fill="#000000" font-family="sans-serif" font-size="14" lengthAdjust="spacing" textLength="56" x="1012.5" y="328.9951">render()</text></g><!--class CardDetailView--><g id="elem_CardDetailView"><rect codeLine="24" fill="#F1F1F1" height="64.2969" id="CardDetailView" rx="2.5" ry="2.5" style="stroke:#181818;stroke-width:0.5;" width="135" x="1035" y="396"/><ellipse cx="1050" cy="412" fill="#ADD1B2" rx="11" ry="11" style="stroke:#181818;stroke-width:1.0;"/><path d="M1052.9688,417.6406 Q1052.3906,417.9375 1051.75,418.0781 Q1051.1094,418.2344 1050.4063,418.2344 Q1047.9063,418.2344 1046.5781,416.5938 Q1045.2656,414.9375 1045.2656,411.8125 Q1045.2656,408.6875 1046.5781,407.0313 Q1047.9063,405.375 1050.4063,405.375 Q1051.1094,405.375 1051.75,405.5313 Q1052.4063,405.6875 1052.9688,405.9844 L1052.9688,408.7031 Q1052.3438,408.125 1051.75,407.8594 Q1051.1563,407.5781 1050.5313,407.5781 Q1049.1875,407.5781 1048.5,408.6563 Q1047.8125,409.7188 1047.8125,411.8125 Q1047.8125,413.9063 1048.5,414.9844 Q1049.1875,416.0469 1050.5313,416.0469 Q1051.1563,416.0469 1051.75,415.7813 Q1052.3438,415.5 1052.9688,414.9219 L1052.9688,417.6406 Z " fill="#000000"/><text fill="#000000" font-family="sans-serif" font-size="14" lengthAdjust="spacing" textLength="103" x="1064" y="416.8467">CardDetailView</text><line style="stroke:#181818;stroke-width:0.5;" x1="1036" x2="1169" y1="428" y2="428"/><line style="stroke:#181818;stroke-width:0.5;" x1="1036" x2="1169" y1="436" y2="436"/><text fill="#000000" font-family="sans-serif" font-size="14" lengthAdjust="spacing" textLength="56" x="1041" y="452.9951">render()</text></g><!--class CardDetailControllerProtocol--><g id="elem_CardDetailControllerProtocol"><rect codeLine="28" fill="#F1F1F1" height="64.2969" id="CardDetailControllerProtocol" rx="2.5" ry="2.5" style="stroke:#181818;stroke-width:0.5;" width="227" x="773" y="139.5"/><ellipse cx="788" cy="155.5" fill="#B4A7E5" rx="11" ry="11" style="stroke:#181818;stroke-width:1.0;"/><path d="M783.9219,151.2656 L783.9219,149.1094 L791.3125,149.1094 L791.3125,151.2656 L788.8438,151.2656 L788.8438,159.3438 L791.3125,159.3438 L791.3125,161.5 L783.9219,161.5 L783.9219,159.3438 L786.3906,159.3438 L786.3906,151.2656 L783.9219,151.2656 Z " fill="#000000"/><text fill="#000000" font-family="sans-serif" font-size="14" font-style="italic" lengthAdjust="spacing" textLength="195" x="802" y="160.3467">CardDetailControllerProtocol</text><line style="stroke:#181818;stroke-width:0.5;" x1="774" x2="999" y1="171.5" y2="171.5"/><line style="stroke:#181818;stroke-width:0.5;" x1="774" x2="999" y1="179.5" y2="179.5"/><text fill="#000000" font-family="sans-serif" font-size="14" lengthAdjust="spacing" textLength="93" x="779" y="196.4951">render(): void</text></g><!--class CardDetailController--><g id="elem_CardDetailController"><rect codeLine="31" fill="#F1F1F1" height="64.2969" id="CardDetailController" rx="2.5" ry="2.5" style="stroke:#181818;stroke-width:0.5;" width="170" x="801.5" y="272"/><ellipse cx="816.5" cy="288" fill="#ADD1B2" rx="11" ry="11" style="stroke:#181818;stroke-width:1.0;"/><path d="M819.4688,293.6406 Q818.8906,293.9375 818.25,294.0781 Q817.6094,294.2344 816.9063,294.2344 Q814.4063,294.2344 813.0781,292.5938 Q811.7656,290.9375 811.7656,287.8125 Q811.7656,284.6875 813.0781,283.0313 Q814.4063,281.375 816.9063,281.375 Q817.6094,281.375 818.25,281.5313 Q818.9063,281.6875 819.4688,281.9844 L819.4688,284.7031 Q818.8438,284.125 818.25,283.8594 Q817.6563,283.5781 817.0313,283.5781 Q815.6875,283.5781 815,284.6563 Q814.3125,285.7188 814.3125,287.8125 Q814.3125,289.9063 815,290.9844 Q815.6875,292.0469 817.0313,292.0469 Q817.6563,292.0469 818.25,291.7813 Q818.8438,291.5 819.4688,290.9219 L819.4688,293.6406 Z " fill="#000000"/><text fill="#000000" font-family="sans-serif" font-size="14" lengthAdjust="spacing" textLength="138" x="830.5" y="292.8467">CardDetailController</text><line style="stroke:#181818;stroke-width:0.5;" x1="802.5" x2="970.5" y1="304" y2="304"/><line style="stroke:#181818;stroke-width:0.5;" x1="802.5" x2="970.5" y1="312" y2="312"/><text fill="#000000" font-family="sans-serif" font-size="14" lengthAdjust="spacing" textLength="93" x="807.5" y="328.9951">render(): void</text></g><!--link CardController to ClickEventControllerProtocol--><g id="link_CardController_ClickEventControllerProtocol"><path codeLine="35" d="M420.12,39 C429.99,39 439.86,39 449.74,39 " fill="none" id="CardController-to-ClickEventControllerProtocol" style="stroke:#181818;stroke-width:1.0;"/><polygon fill="#181818" points="454.9,39,445.9,35,449.9,39,445.9,43,454.9,39" style="stroke:#181818;stroke-width:1.0;"/></g><!--reverse link ClickEventControllerProtocol to ClickEventController--><g id="link_ClickEventControllerProtocol_ClickEventController"><path codeLine="37" d="M568.5,91.41 C568.5,104.43 568.5,118.23 568.5,130.59 " fill="none" id="ClickEventControllerProtocol-backto-ClickEventController" style="stroke:#181818;stroke-width:1.0;stroke-dasharray:7.0,7.0;"/><polygon fill="none" points="561.5,91.26,568.5,71.26,575.5,91.26,561.5,91.26" style="stroke:#181818;stroke-width:1.0;"/></g><!--link ClickEventController to CardDetailControllerProtocol--><g id="link_ClickEventController_CardDetailControllerProtocol"><path codeLine="38" d="M738.06,171.5 C747.93,171.5 757.81,171.5 767.69,171.5 " fill="none" id="ClickEventController-to-CardDetailControllerProtocol" style="stroke:#181818;stroke-width:1.0;"/><polygon fill="#181818" points="772.85,171.5,763.85,167.5,767.85,171.5,763.85,175.5,772.85,171.5" style="stroke:#181818;stroke-width:1.0;"/></g><!--reverse link CardDetailControllerProtocol to CardDetailController--><g id="link_CardDetailControllerProtocol_CardDetailController"><path codeLine="39" d="M886.5,223.77 C886.5,240.07 886.5,257.59 886.5,272 " fill="none" id="CardDetailControllerProtocol-backto-CardDetailController" style="stroke:#181818;stroke-width:1.0;stroke-dasharray:7.0,7.0;"/><polygon fill="none" points="879.5,223.76,886.5,203.76,893.5,223.76,879.5,223.76" style="stroke:#181818;stroke-width:1.0;"/></g><!--link CardDetailController to CardDetailViewProtocol--><g id="link_CardDetailController_CardDetailViewProtocol"><path codeLine="40" d="M971.72,304 C981.58,304 991.44,304 1001.3,304 " fill="none" id="CardDetailController-to-CardDetailViewProtocol" style="stroke:#181818;stroke-width:1.0;"/><polygon fill="#181818" points="1006.46,304,997.46,300,1001.46,304,997.46,308,1006.46,304" style="stroke:#181818;stroke-width:1.0;"/></g><!--reverse link CardDetailViewProtocol to CardDetailView--><g id="link_CardDetailViewProtocol_CardDetailView"><path codeLine="41" d="M1102.5,356.34 C1102.5,369.81 1102.5,383.92 1102.5,395.96 " fill="none" id="CardDetailViewProtocol-backto-CardDetailView" style="stroke:#181818;stroke-width:1.0;stroke-dasharray:7.0,7.0;"/><polygon fill="none" points="1095.5,356.1,1102.5,336.1,1109.5,356.1,1095.5,356.1" style="stroke:#181818;stroke-width:1.0;"/></g><!--reverse link CardDetailModelProtocol to CardDetailController--><g id="link_CardDetailModelProtocol_CardDetailController"><path codeLine="42" d="M771.65,304 C781.5,304 791.34,304 801.19,304 " fill="none" id="CardDetailModelProtocol-backto-CardDetailController" style="stroke:#181818;stroke-width:1.0;"/><polygon fill="#181818" points="766.5,304,775.5,308,771.5,304,775.5,300,766.5,304" style="stroke:#181818;stroke-width:1.0;"/></g><!--reverse link CardDetailModelProtocol to CardDetailModel--><g id="link_CardDetailModelProtocol_CardDetailModel"><path codeLine="43" d="M665.5,356.34 C665.5,369.81 665.5,383.92 665.5,395.96 " fill="none" id="CardDetailModelProtocol-backto-CardDetailModel" style="stroke:#181818;stroke-width:1.0;stroke-dasharray:7.0,7.0;"/><polygon fill="none" points="658.5,356.1,665.5,336.1,672.5,356.1,658.5,356.1" style="stroke:#181818;stroke-width:1.0;"/></g><!--SRC=[bPAz3i8W58LtdeAn7Ue3D8rBRUAWYODn9t1DY0W99NLGtrtwtrAAoiWvtpttmgM2b2NEYMQvaaOh8K0_4RQ72avlHGNIZCf9AwEe4Yd6UK16RyIb0Nqb58B6Dad9nXF5AQuKPvQUuhQr7HZ2nL4n43s9koOr40CrkJyV3uM0kysf2z1XhWdy6-FfjmE7QXSEZ_4jSk_zFwDDkJPBWsIWezWIxYYrUM7obbrxy9uRcd8ZtCaN09fl34wsuOL08HLdhsJZvRrO4nQO4ON4BilZy6BphDdt-g_T-hM6rdOuIxvrulZdjHiHVG00]--></g></svg>