<?xml version="1.0" encoding="UTF-8" standalone="no"?><svg xmlns="http://www.w3.org/2000/svg" xmlns:xlink="http://www.w3.org/1999/xlink" contentStyleType="text/css" height="310px" preserveAspectRatio="none" style="width:763px;height:310px;background:#FFFFFF;" version="1.1" viewBox="0 0 763 310" width="763px" zoomAndPan="magnify"><defs/><g><!--class CardDetailEventController--><g id="elem_CardDetailEventController"><rect codeLine="2" fill="#F1F1F1" height="48" id="CardDetailEventController" rx="2.5" ry="2.5" style="stroke:#181818;stroke-width:0.5;" width="209" x="7" y="7"/><ellipse cx="22" cy="23" fill="#ADD1B2" rx="11" ry="11" style="stroke:#181818;stroke-width:1.0;"/><path d="M24.9688,28.6406 Q24.3906,28.9375 23.75,29.0781 Q23.1094,29.2344 22.4063,29.2344 Q19.9063,29.2344 18.5781,27.5938 Q17.2656,25.9375 17.2656,22.8125 Q17.2656,19.6875 18.5781,18.0313 Q19.9063,16.375 22.4063,16.375 Q23.1094,16.375 23.75,16.5313 Q24.4063,16.6875 24.9688,16.9844 L24.9688,19.7031 Q24.3438,19.125 23.75,18.8594 Q23.1563,18.5781 22.5313,18.5781 Q21.1875,18.5781 20.5,19.6563 Q19.8125,20.7188 19.8125,22.8125 Q19.8125,24.9063 20.5,25.9844 Q21.1875,27.0469 22.5313,27.0469 Q23.1563,27.0469 23.75,26.7813 Q24.3438,26.5 24.9688,25.9219 L24.9688,28.6406 Z " fill="#000000"/><text fill="#000000" font-family="sans-serif" font-size="14" lengthAdjust="spacing" textLength="177" x="36" y="27.8467">CardDetailEventController</text><line style="stroke:#181818;stroke-width:0.5;" x1="8" x2="215" y1="39" y2="39"/><line style="stroke:#181818;stroke-width:0.5;" x1="8" x2="215" y1="47" y2="47"/></g><!--class CardDetailSwipeEventControllerProtocol--><g id="elem_CardDetailSwipeEventControllerProtocol"><rect codeLine="3" fill="#F1F1F1" height="48" id="CardDetailSwipeEventControllerProtocol" rx="2.5" ry="2.5" style="stroke:#181818;stroke-width:0.5;" width="307" x="251" y="7"/><ellipse cx="266" cy="23" fill="#B4A7E5" rx="11" ry="11" style="stroke:#181818;stroke-width:1.0;"/><path d="M261.9219,18.7656 L261.9219,16.6094 L269.3125,16.6094 L269.3125,18.7656 L266.8438,18.7656 L266.8438,26.8438 L269.3125,26.8438 L269.3125,29 L261.9219,29 L261.9219,26.8438 L264.3906,26.8438 L264.3906,18.7656 L261.9219,18.7656 Z " fill="#000000"/><text fill="#000000" font-family="sans-serif" font-size="14" font-style="italic" lengthAdjust="spacing" textLength="275" x="280" y="27.8467">CardDetailSwipeEventControllerProtocol</text><line style="stroke:#181818;stroke-width:0.5;" x1="252" x2="557" y1="39" y2="39"/><line style="stroke:#181818;stroke-width:0.5;" x1="252" x2="557" y1="47" y2="47"/></g><!--class CardDetailSwipeEventController--><g id="elem_CardDetailSwipeEventController"><rect codeLine="4" fill="#F1F1F1" height="48" id="CardDetailSwipeEventController" rx="2.5" ry="2.5" style="stroke:#181818;stroke-width:0.5;" width="250" x="279.5" y="123"/><ellipse cx="294.5" cy="139" fill="#ADD1B2" rx="11" ry="11" style="stroke:#181818;stroke-width:1.0;"/><path d="M297.4688,144.6406 Q296.8906,144.9375 296.25,145.0781 Q295.6094,145.2344 294.9063,145.2344 Q292.4063,145.2344 291.0781,143.5938 Q289.7656,141.9375 289.7656,138.8125 Q289.7656,135.6875 291.0781,134.0313 Q292.4063,132.375 294.9063,132.375 Q295.6094,132.375 296.25,132.5313 Q296.9063,132.6875 297.4688,132.9844 L297.4688,135.7031 Q296.8438,135.125 296.25,134.8594 Q295.6563,134.5781 295.0313,134.5781 Q293.6875,134.5781 293,135.6563 Q292.3125,136.7188 292.3125,138.8125 Q292.3125,140.9063 293,141.9844 Q293.6875,143.0469 295.0313,143.0469 Q295.6563,143.0469 296.25,142.7813 Q296.8438,142.5 297.4688,141.9219 L297.4688,144.6406 Z " fill="#000000"/><text fill="#000000" font-family="sans-serif" font-size="14" lengthAdjust="spacing" textLength="218" x="308.5" y="143.8467">CardDetailSwipeEventController</text><line style="stroke:#181818;stroke-width:0.5;" x1="280.5" x2="528.5" y1="155" y2="155"/><line style="stroke:#181818;stroke-width:0.5;" x1="280.5" x2="528.5" y1="163" y2="163"/></g><!--class CardDetailViewProtocol--><g id="elem_CardDetailViewProtocol"><rect codeLine="6" fill="#F1F1F1" height="64.2969" id="CardDetailViewProtocol" rx="2.5" ry="2.5" style="stroke:#181818;stroke-width:0.5;" width="192" x="564.5" y="115"/><ellipse cx="579.5" cy="131" fill="#B4A7E5" rx="11" ry="11" style="stroke:#181818;stroke-width:1.0;"/><path d="M575.4219,126.7656 L575.4219,124.6094 L582.8125,124.6094 L582.8125,126.7656 L580.3438,126.7656 L580.3438,134.8438 L582.8125,134.8438 L582.8125,137 L575.4219,137 L575.4219,134.8438 L577.8906,134.8438 L577.8906,126.7656 L575.4219,126.7656 Z " fill="#000000"/><text fill="#000000" font-family="sans-serif" font-size="14" font-style="italic" lengthAdjust="spacing" textLength="160" x="593.5" y="135.8467">CardDetailViewProtocol</text><line style="stroke:#181818;stroke-width:0.5;" x1="565.5" x2="755.5" y1="147" y2="147"/><line style="stroke:#181818;stroke-width:0.5;" x1="565.5" x2="755.5" y1="155" y2="155"/><text fill="#000000" font-family="sans-serif" font-size="14" lengthAdjust="spacing" textLength="80" x="570.5" y="171.9951">back(): void</text></g><!--class CardDetailView--><g id="elem_CardDetailView"><rect codeLine="9" fill="#F1F1F1" height="64.2969" id="CardDetailView" rx="2.5" ry="2.5" style="stroke:#181818;stroke-width:0.5;" width="135" x="593" y="239"/><ellipse cx="608" cy="255" fill="#ADD1B2" rx="11" ry="11" style="stroke:#181818;stroke-width:1.0;"/><path d="M610.9688,260.6406 Q610.3906,260.9375 609.75,261.0781 Q609.1094,261.2344 608.4063,261.2344 Q605.9063,261.2344 604.5781,259.5938 Q603.2656,257.9375 603.2656,254.8125 Q603.2656,251.6875 604.5781,250.0313 Q605.9063,248.375 608.4063,248.375 Q609.1094,248.375 609.75,248.5313 Q610.4063,248.6875 610.9688,248.9844 L610.9688,251.7031 Q610.3438,251.125 609.75,250.8594 Q609.1563,250.5781 608.5313,250.5781 Q607.1875,250.5781 606.5,251.6563 Q605.8125,252.7188 605.8125,254.8125 Q605.8125,256.9063 606.5,257.9844 Q607.1875,259.0469 608.5313,259.0469 Q609.1563,259.0469 609.75,258.7813 Q610.3438,258.5 610.9688,257.9219 L610.9688,260.6406 Z " fill="#000000"/><text fill="#000000" font-family="sans-serif" font-size="14" lengthAdjust="spacing" textLength="103" x="622" y="259.8467">CardDetailView</text><line style="stroke:#181818;stroke-width:0.5;" x1="594" x2="727" y1="271" y2="271"/><line style="stroke:#181818;stroke-width:0.5;" x1="594" x2="727" y1="279" y2="279"/><text fill="#000000" font-family="sans-serif" font-size="14" lengthAdjust="spacing" textLength="80" x="599" y="295.9951">back(): void</text></g><!--link CardDetailEventController to CardDetailSwipeEventControllerProtocol--><g id="link_CardDetailEventController_CardDetailSwipeEventControllerProtocol"><path codeLine="12" d="M216.22,31 C226.04,31 235.85,31 245.66,31 " fill="none" id="CardDetailEventController-to-CardDetailSwipeEventControllerProtocol" style="stroke:#181818;stroke-width:1.0;"/><polygon fill="#181818" points="250.79,31,241.79,27,245.79,31,241.79,35,250.79,31" style="stroke:#181818;stroke-width:1.0;"/></g><!--reverse link CardDetailSwipeEventControllerProtocol to CardDetailSwipeEventController--><g id="link_CardDetailSwipeEventControllerProtocol_CardDetailSwipeEventController"><path codeLine="13" d="M404.5,75.32 C404.5,91.53 404.5,109.3 404.5,122.96 " fill="none" id="CardDetailSwipeEventControllerProtocol-backto-CardDetailSwipeEventController" style="stroke:#181818;stroke-width:1.0;stroke-dasharray:7.0,7.0;"/><polygon fill="none" points="397.5,75.07,404.5,55.07,411.5,75.07,397.5,75.07" style="stroke:#181818;stroke-width:1.0;"/></g><!--link CardDetailSwipeEventController to CardDetailViewProtocol--><g id="link_CardDetailSwipeEventController_CardDetailViewProtocol"><path codeLine="14" d="M529.5,147 C539.38,147 549.25,147 559.13,147 " fill="none" id="CardDetailSwipeEventController-to-CardDetailViewProtocol" style="stroke:#181818;stroke-width:1.0;"/><polygon fill="#181818" points="564.3,147,555.3,143,559.3,147,555.3,151,564.3,147" style="stroke:#181818;stroke-width:1.0;"/></g><!--reverse link CardDetailViewProtocol to CardDetailView--><g id="link_CardDetailViewProtocol_CardDetailView"><path codeLine="15" d="M660.5,199.34 C660.5,212.81 660.5,226.92 660.5,238.96 " fill="none" id="CardDetailViewProtocol-backto-CardDetailView" style="stroke:#181818;stroke-width:1.0;stroke-dasharray:7.0,7.0;"/><polygon fill="none" points="653.5,199.1,660.5,179.1,667.5,199.1,653.5,199.1" style="stroke:#181818;stroke-width:1.0;"/></g><!--SRC=[Iyv9B2vMS4uiId59BKdCp74jIyqhSSxFAodApyb9BQgkvShCAqajIajCJaLI5LoUMP2AfZIWAByaFpa_1wWb6SrGRCg1oh0Q7PQPMWutYai1298IaxCrDAqKol8pKxWm3GTfmAeGfwSKTEs8z0iNSSeKR6fqzGWOIS0eL3SX1m8NTc5qEq5o0000]--></g></svg>