<?xml version="1.0" encoding="UTF-8" standalone="no"?><svg xmlns="http://www.w3.org/2000/svg" xmlns:xlink="http://www.w3.org/1999/xlink" contentStyleType="text/css" height="551px" preserveAspectRatio="none" style="width:1425px;height:551px;background:#FFFFFF;" version="1.1" viewBox="0 0 1425 551" width="1425px" zoomAndPan="magnify"><defs/><g><!--class SubmitEventController--><g id="elem_SubmitEventController"><rect codeLine="3" fill="#F1F1F1" height="80.5938" id="SubmitEventController" rx="2.5" ry="2.5" style="stroke:#181818;stroke-width:0.5;" width="331" x="52.5" y="7"/><ellipse cx="136.75" cy="23" fill="#ADD1B2" rx="11" ry="11" style="stroke:#181818;stroke-width:1.0;"/><path d="M139.7188,28.6406 Q139.1406,28.9375 138.5,29.0781 Q137.8594,29.2344 137.1563,29.2344 Q134.6563,29.2344 133.3281,27.5938 Q132.0156,25.9375 132.0156,22.8125 Q132.0156,19.6875 133.3281,18.0313 Q134.6563,16.375 137.1563,16.375 Q137.8594,16.375 138.5,16.5313 Q139.1563,16.6875 139.7188,16.9844 L139.7188,19.7031 Q139.0938,19.125 138.5,18.8594 Q137.9063,18.5781 137.2813,18.5781 Q135.9375,18.5781 135.25,19.6563 Q134.5625,20.7188 134.5625,22.8125 Q134.5625,24.9063 135.25,25.9844 Q135.9375,27.0469 137.2813,27.0469 Q137.9063,27.0469 138.5,26.7813 Q139.0938,26.5 139.7188,25.9219 L139.7188,28.6406 Z " fill="#000000"/><text fill="#000000" font-family="sans-serif" font-size="14" lengthAdjust="spacing" textLength="154" x="157.25" y="27.8467">SubmitEventController</text><line style="stroke:#181818;stroke-width:0.5;" x1="53.5" x2="382.5" y1="39" y2="39"/><text fill="#000000" font-family="sans-serif" font-size="14" lengthAdjust="spacing" textLength="319" x="58.5" y="55.9951">cardControllerProtocol: CardControllerProtocol</text><line style="stroke:#181818;stroke-width:0.5;" x1="53.5" x2="382.5" y1="63.2969" y2="63.2969"/><text fill="#000000" font-family="sans-serif" font-size="14" lengthAdjust="spacing" textLength="172" x="58.5" y="80.292">onClick(form: Form): void</text></g><!--class CardControllerProtocol--><g id="elem_CardControllerProtocol"><rect codeLine="9" fill="#F1F1F1" height="64.2969" id="CardControllerProtocol" rx="2.5" ry="2.5" style="stroke:#181818;stroke-width:0.5;" width="188" x="419" y="15.5"/><ellipse cx="434" cy="31.5" fill="#B4A7E5" rx="11" ry="11" style="stroke:#181818;stroke-width:1.0;"/><path d="M429.9219,27.2656 L429.9219,25.1094 L437.3125,25.1094 L437.3125,27.2656 L434.8438,27.2656 L434.8438,35.3438 L437.3125,35.3438 L437.3125,37.5 L429.9219,37.5 L429.9219,35.3438 L432.3906,35.3438 L432.3906,27.2656 L429.9219,27.2656 Z " fill="#000000"/><text fill="#000000" font-family="sans-serif" font-size="14" font-style="italic" lengthAdjust="spacing" textLength="156" x="448" y="36.3467">CardControllerProtocol</text><line style="stroke:#181818;stroke-width:0.5;" x1="420" x2="606" y1="47.5" y2="47.5"/><line style="stroke:#181818;stroke-width:0.5;" x1="420" x2="606" y1="55.5" y2="55.5"/><text fill="#000000" font-family="sans-serif" font-size="14" lengthAdjust="spacing" textLength="93" x="425" y="72.4951">render(): void</text></g><!--class CardController--><g id="elem_CardController"><rect codeLine="13" fill="#F1F1F1" height="96.8906" id="CardController" rx="2.5" ry="2.5" style="stroke:#181818;stroke-width:0.5;" width="421" x="302.5" y="148"/><ellipse cx="459.25" cy="164" fill="#ADD1B2" rx="11" ry="11" style="stroke:#181818;stroke-width:1.0;"/><path d="M462.2188,169.6406 Q461.6406,169.9375 461,170.0781 Q460.3594,170.2344 459.6563,170.2344 Q457.1563,170.2344 455.8281,168.5938 Q454.5156,166.9375 454.5156,163.8125 Q454.5156,160.6875 455.8281,159.0313 Q457.1563,157.375 459.6563,157.375 Q460.3594,157.375 461,157.5313 Q461.6563,157.6875 462.2188,157.9844 L462.2188,160.7031 Q461.5938,160.125 461,159.8594 Q460.4063,159.5781 459.7813,159.5781 Q458.4375,159.5781 457.75,160.6563 Q457.0625,161.7188 457.0625,163.8125 Q457.0625,165.9063 457.75,166.9844 Q458.4375,168.0469 459.7813,168.0469 Q460.4063,168.0469 461,167.7813 Q461.5938,167.5 462.2188,166.9219 L462.2188,169.6406 Z " fill="#000000"/><text fill="#000000" font-family="sans-serif" font-size="14" lengthAdjust="spacing" textLength="99" x="479.75" y="168.8467">CardController</text><line style="stroke:#181818;stroke-width:0.5;" x1="303.5" x2="722.5" y1="180" y2="180"/><text fill="#000000" font-family="sans-serif" font-size="14" lengthAdjust="spacing" textLength="409" x="308.5" y="196.9951">concreteItemFactoryProtocol: ConcreteItemFactoryProtocol</text><line style="stroke:#181818;stroke-width:0.5;" x1="303.5" x2="722.5" y1="204.2969" y2="204.2969"/><rect fill="#F24D5C" height="6" style="stroke:#C82930;stroke-width:1.0;" width="6" x="310.5" y="214.9453"/><text fill="#000000" font-family="sans-serif" font-size="14" lengthAdjust="spacing" textLength="137" x="322.5" y="221.292">create(): CardModel</text><text fill="#000000" font-family="sans-serif" font-size="14" lengthAdjust="spacing" textLength="93" x="322.5" y="237.5889">render(): void</text></g><!--class CardModelProtocol--><g id="elem_CardModelProtocol"><rect codeLine="19" fill="#F1F1F1" height="64.2969" id="CardModelProtocol" rx="2.5" ry="2.5" style="stroke:#181818;stroke-width:0.5;" width="653" x="758.5" y="164.5"/><ellipse cx="1015.25" cy="180.5" fill="#B4A7E5" rx="11" ry="11" style="stroke:#181818;stroke-width:1.0;"/><path d="M1011.1719,176.2656 L1011.1719,174.1094 L1018.5625,174.1094 L1018.5625,176.2656 L1016.0938,176.2656 L1016.0938,184.3438 L1018.5625,184.3438 L1018.5625,186.5 L1011.1719,186.5 L1011.1719,184.3438 L1013.6406,184.3438 L1013.6406,176.2656 L1011.1719,176.2656 Z " fill="#000000"/><text fill="#000000" font-family="sans-serif" font-size="14" font-style="italic" lengthAdjust="spacing" textLength="131" x="1035.75" y="185.3467">CardModelProtocol</text><line style="stroke:#181818;stroke-width:0.5;" x1="759.5" x2="1410.5" y1="196.5" y2="196.5"/><line style="stroke:#181818;stroke-width:0.5;" x1="759.5" x2="1410.5" y1="204.5" y2="204.5"/><text fill="#000000" font-family="sans-serif" font-size="14" lengthAdjust="spacing" textLength="641" x="764.5" y="221.4951">convertItemToCard({problem, answer, id: complete}: Item, templateId: string): HTMLElement</text></g><!--class CardModel--><g id="elem_CardModel"><rect codeLine="23" fill="#F1F1F1" height="178.375" id="CardModel" rx="2.5" ry="2.5" style="stroke:#181818;stroke-width:0.5;" width="667" x="751.5" y="366"/><ellipse cx="1043.75" cy="382" fill="#ADD1B2" rx="11" ry="11" style="stroke:#181818;stroke-width:1.0;"/><path d="M1046.7188,387.6406 Q1046.1406,387.9375 1045.5,388.0781 Q1044.8594,388.2344 1044.1563,388.2344 Q1041.6563,388.2344 1040.3281,386.5938 Q1039.0156,384.9375 1039.0156,381.8125 Q1039.0156,378.6875 1040.3281,377.0313 Q1041.6563,375.375 1044.1563,375.375 Q1044.8594,375.375 1045.5,375.5313 Q1046.1563,375.6875 1046.7188,375.9844 L1046.7188,378.7031 Q1046.0938,378.125 1045.5,377.8594 Q1044.9063,377.5781 1044.2813,377.5781 Q1042.9375,377.5781 1042.25,378.6563 Q1041.5625,379.7188 1041.5625,381.8125 Q1041.5625,383.9063 1042.25,384.9844 Q1042.9375,386.0469 1044.2813,386.0469 Q1044.9063,386.0469 1045.5,385.7813 Q1046.0938,385.5 1046.7188,384.9219 L1046.7188,387.6406 Z " fill="#000000"/><text fill="#000000" font-family="sans-serif" font-size="14" lengthAdjust="spacing" textLength="74" x="1064.25" y="386.8467">CardModel</text><line style="stroke:#181818;stroke-width:0.5;" x1="752.5" x2="1417.5" y1="398" y2="398"/><text fill="#000000" font-family="sans-serif" font-size="14" lengthAdjust="spacing" textLength="69" x="757.5" y="414.9951">item: Item</text><text fill="#000000" font-family="sans-serif" font-size="14" lengthAdjust="spacing" textLength="121" x="757.5" y="431.292">templateId: string</text><line style="stroke:#181818;stroke-width:0.5;" x1="752.5" x2="1417.5" y1="438.5938" y2="438.5938"/><rect fill="#F24D5C" height="6" style="stroke:#C82930;stroke-width:1.0;" width="6" x="759.5" y="449.2422"/><text fill="#000000" font-family="sans-serif" font-size="14" lengthAdjust="spacing" textLength="323" x="771.5" y="455.5889">getCardDom(templateId: string): HTMLElement</text><rect fill="#F24D5C" height="6" style="stroke:#C82930;stroke-width:1.0;" width="6" x="759.5" y="465.5391"/><text fill="#000000" font-family="sans-serif" font-size="14" lengthAdjust="spacing" textLength="398" x="771.5" y="471.8857">setCardConfig({problem,answer,id,complete}: Item): void</text><rect fill="#F24D5C" height="6" style="stroke:#C82930;stroke-width:1.0;" width="6" x="759.5" y="481.8359"/><text fill="#000000" font-family="sans-serif" font-size="14" lengthAdjust="spacing" textLength="329" x="771.5" y="488.1826">setCardContent({problem, answer}: Item): void</text><rect fill="#F24D5C" height="6" style="stroke:#C82930;stroke-width:1.0;" width="6" x="759.5" y="498.1328"/><text fill="#000000" font-family="sans-serif" font-size="14" lengthAdjust="spacing" textLength="173" x="771.5" y="504.4795">setCardId(id: string): void</text><rect fill="#F24D5C" height="6" style="stroke:#C82930;stroke-width:1.0;" width="6" x="759.5" y="514.4297"/><text fill="#000000" font-family="sans-serif" font-size="14" lengthAdjust="spacing" textLength="273" x="771.5" y="520.7764">validateCheck(complete: boolean): void</text><text fill="#000000" font-family="sans-serif" font-size="14" lengthAdjust="spacing" textLength="641" x="771.5" y="537.0732">convertItemToCard({problem, answer, id: complete}: Item, templateId: string): HTMLElement</text></g><!--class CardViewProtocol--><g id="elem_CardViewProtocol"><rect codeLine="35" fill="#F1F1F1" height="64.2969" id="CardViewProtocol" rx="2.5" ry="2.5" style="stroke:#181818;stroke-width:0.5;" width="260" x="7" y="164.5"/><ellipse cx="72.25" cy="180.5" fill="#B4A7E5" rx="11" ry="11" style="stroke:#181818;stroke-width:1.0;"/><path d="M68.1719,176.2656 L68.1719,174.1094 L75.5625,174.1094 L75.5625,176.2656 L73.0938,176.2656 L73.0938,184.3438 L75.5625,184.3438 L75.5625,186.5 L68.1719,186.5 L68.1719,184.3438 L70.6406,184.3438 L70.6406,176.2656 L68.1719,176.2656 Z " fill="#000000"/><text fill="#000000" font-family="sans-serif" font-size="14" font-style="italic" lengthAdjust="spacing" textLength="121" x="92.75" y="185.3467">CardViewProtocol</text><line style="stroke:#181818;stroke-width:0.5;" x1="8" x2="266" y1="196.5" y2="196.5"/><line style="stroke:#181818;stroke-width:0.5;" x1="8" x2="266" y1="204.5" y2="204.5"/><text fill="#000000" font-family="sans-serif" font-size="14" lengthAdjust="spacing" textLength="248" x="13" y="221.4951">render(cardModel: CardModel): void</text></g><!--class CardView--><g id="elem_CardView"><rect codeLine="39" fill="#F1F1F1" height="64.2969" id="CardView" rx="2.5" ry="2.5" style="stroke:#181818;stroke-width:0.5;" width="260" x="7" y="423"/><ellipse cx="100.75" cy="439" fill="#ADD1B2" rx="11" ry="11" style="stroke:#181818;stroke-width:1.0;"/><path d="M103.7188,444.6406 Q103.1406,444.9375 102.5,445.0781 Q101.8594,445.2344 101.1563,445.2344 Q98.6563,445.2344 97.3281,443.5938 Q96.0156,441.9375 96.0156,438.8125 Q96.0156,435.6875 97.3281,434.0313 Q98.6563,432.375 101.1563,432.375 Q101.8594,432.375 102.5,432.5313 Q103.1563,432.6875 103.7188,432.9844 L103.7188,435.7031 Q103.0938,435.125 102.5,434.8594 Q101.9063,434.5781 101.2813,434.5781 Q99.9375,434.5781 99.25,435.6563 Q98.5625,436.7188 98.5625,438.8125 Q98.5625,440.9063 99.25,441.9844 Q99.9375,443.0469 101.2813,443.0469 Q101.9063,443.0469 102.5,442.7813 Q103.0938,442.5 103.7188,441.9219 L103.7188,444.6406 Z " fill="#000000"/><text fill="#000000" font-family="sans-serif" font-size="14" lengthAdjust="spacing" textLength="64" x="121.25" y="443.8467">CardView</text><line style="stroke:#181818;stroke-width:0.5;" x1="8" x2="266" y1="455" y2="455"/><line style="stroke:#181818;stroke-width:0.5;" x1="8" x2="266" y1="463" y2="463"/><text fill="#000000" font-family="sans-serif" font-size="14" lengthAdjust="spacing" textLength="248" x="13" y="479.9951">render(cardModel: CardModel): void</text></g><!--link SubmitEventController to CardControllerProtocol--><g id="link_SubmitEventController_CardControllerProtocol"><path codeLine="43" d="M383.65,47.5 C393.62,47.5 403.59,47.5 413.55,47.5 " fill="none" id="SubmitEventController-to-CardControllerProtocol" style="stroke:#181818;stroke-width:1.0;"/><polygon fill="#181818" points="418.77,47.5,409.77,43.5,413.77,47.5,409.77,51.5,418.77,47.5" style="stroke:#181818;stroke-width:1.0;"/></g><!--reverse link CardControllerProtocol to CardController--><g id="link_CardControllerProtocol_CardController"><path codeLine="44" d="M513,99.76 C513,115.39 513,132.49 513,147.87 " fill="none" id="CardControllerProtocol-backto-CardController" style="stroke:#181818;stroke-width:1.0;stroke-dasharray:7.0,7.0;"/><polygon fill="none" points="506,99.67,513,79.67,520,99.67,506,99.67" style="stroke:#181818;stroke-width:1.0;"/></g><!--link CardController to CardModelProtocol--><g id="link_CardController_CardModelProtocol"><path codeLine="45" d="M723.59,196.5 C733.41,196.5 743.23,196.5 753.04,196.5 " fill="none" id="CardController-to-CardModelProtocol" style="stroke:#181818;stroke-width:1.0;"/><polygon fill="#181818" points="758.18,196.5,749.18,192.5,753.18,196.5,749.18,200.5,758.18,196.5" style="stroke:#181818;stroke-width:1.0;"/></g><!--reverse link CardModelProtocol to CardModel--><g id="link_CardModelProtocol_CardModel"><path codeLine="46" d="M1085,248.91 C1085,282.37 1085,326.86 1085,365.86 " fill="none" id="CardModelProtocol-backto-CardModel" style="stroke:#181818;stroke-width:1.0;stroke-dasharray:7.0,7.0;"/><polygon fill="none" points="1078,248.7,1085,228.7,1092,248.7,1078,248.7" style="stroke:#181818;stroke-width:1.0;"/></g><!--reverse link CardViewProtocol to CardController--><g id="link_CardViewProtocol_CardController"><path codeLine="47" d="M272.55,196.5 C282.49,196.5 292.43,196.5 302.38,196.5 " fill="none" id="CardViewProtocol-backto-CardController" style="stroke:#181818;stroke-width:1.0;"/><polygon fill="#181818" points="267.35,196.5,276.35,200.5,272.35,196.5,276.35,192.5,267.35,196.5" style="stroke:#181818;stroke-width:1.0;"/></g><!--reverse link CardViewProtocol to CardView--><g id="link_CardViewProtocol_CardView"><path codeLine="48" d="M137,248.8 C137,300.71 137,379.32 137,422.62 " fill="none" id="CardViewProtocol-backto-CardView" style="stroke:#181818;stroke-width:1.0;stroke-dasharray:7.0,7.0;"/><polygon fill="none" points="130,248.7,137,228.7,144,248.7,130,248.7" style="stroke:#181818;stroke-width:1.0;"/></g><!--SRC=[jLFTIiCm5BxFK-IoGki3bE5DtR3WG71udoLdCvZcZ3HsoDoxUz8VrtQjueMz2FJa-yl9YJIYBFdp-xRGVbc1zHbQxz0OS2V6wPF2gKljoQ57YIRbsMIzfg3DZ9PlqGvTaV8LhJSfhr0hTcQCQUl1xOI46Od6re5LuA8UKTP9Xvms8bhfm4FkeLW9wT5zz7BERzRaXDEsy12iWlWQ5PYP2CFeDNAOkivIWVF1ROC15PqE3hS6YfWBMnx1nLohb735mL2iSye3DkQq70pbo6cpz4xRFHa_RDQFI-BIlGnRK7ktdfgeZKhpVwt4sfFkmGVoFHRHhtODesmOrCITtb-Eqfv4gtXqZgvPOxOdoQjE_CJ9LQJxqNg8IXYjA7hs2ZHaNO2KRn4D2Di7_-jj3AVXHSDnSeHbTrsz-PeSww3m5-Rae-N9tTpJd2xpnMToEwACe9tcOE3PLIKejLBD8ngtXI-IAQCXv5iZbDaN]--></g></svg>