<?xml version="1.0" encoding="UTF-8" standalone="no"?><svg xmlns="http://www.w3.org/2000/svg" xmlns:xlink="http://www.w3.org/1999/xlink" contentStyleType="text/css" height="598px" preserveAspectRatio="none" style="width:4078px;height:598px;background:#FFFFFF;" version="1.1" viewBox="0 0 4078 598" width="4078px" zoomAndPan="magnify"><defs/><g><!--cluster itemListStatusController--><g id="cluster_itemListStatusController"><path d="M8.5,146.5 L200.5,146.5 A3.75,3.75 0 0 1 203,149 L210,168.7969 L1143.5,168.7969 A2.5,2.5 0 0 1 1146,171.2969 L1146,416 A2.5,2.5 0 0 1 1143.5,418.5 L8.5,418.5 A2.5,2.5 0 0 1 6,416 L6,149 A2.5,2.5 0 0 1 8.5,146.5 " fill="none" style="stroke:#000000;stroke-width:1.5;"/><line style="stroke:#000000;stroke-width:1.5;" x1="6" x2="210" y1="168.7969" y2="168.7969"/><text fill="#000000" font-family="sans-serif" font-size="14" font-weight="bold" lengthAdjust="spacing" textLength="191" x="10" y="161.4951">itemListStatusController</text></g><!--cluster render--><g id="cluster_render"><path d="M2411.5,154.5 L2466.5,154.5 A3.75,3.75 0 0 1 2469,157 L2476,176.7969 L3112.5,176.7969 A2.5,2.5 0 0 1 3115,179.2969 L3115,416 A2.5,2.5 0 0 1 3112.5,418.5 L2411.5,418.5 A2.5,2.5 0 0 1 2409,416 L2409,157 A2.5,2.5 0 0 1 2411.5,154.5 " fill="none" style="stroke:#000000;stroke-width:1.5;"/><line style="stroke:#000000;stroke-width:1.5;" x1="2409" x2="2476" y1="176.7969" y2="176.7969"/><text fill="#000000" font-family="sans-serif" font-size="14" font-weight="bold" lengthAdjust="spacing" textLength="54" x="2413" y="169.4951">render</text></g><!--cluster dom.element--><g id="cluster_dom.element"><path d="M3141.5,154.5 L3245.5,154.5 A3.75,3.75 0 0 1 3248,157 L3255,176.7969 L3704.5,176.7969 A2.5,2.5 0 0 1 3707,179.2969 L3707,251 A2.5,2.5 0 0 1 3704.5,253.5 L3141.5,253.5 A2.5,2.5 0 0 1 3139,251 L3139,157 A2.5,2.5 0 0 1 3141.5,154.5 " fill="none" style="stroke:#000000;stroke-width:1.5;"/><line style="stroke:#000000;stroke-width:1.5;" x1="3139" x2="3255" y1="176.7969" y2="176.7969"/><text fill="#000000" font-family="sans-serif" font-size="14" font-weight="bold" lengthAdjust="spacing" textLength="103" x="3143" y="169.4951">dom.element</text></g><!--cluster dom.event--><g id="cluster_dom.event"><path d="M2787.5,6 L2872.5,6 A3.75,3.75 0 0 1 2875,8.5 L2882,28.2969 L4068.5,28.2969 A2.5,2.5 0 0 1 4071,30.7969 L4071,118.5 A2.5,2.5 0 0 1 4068.5,121 L2787.5,121 A2.5,2.5 0 0 1 2785,118.5 L2785,8.5 A2.5,2.5 0 0 1 2787.5,6 " fill="none" style="stroke:#000000;stroke-width:1.5;"/><line style="stroke:#000000;stroke-width:1.5;" x1="2785" x2="2882" y1="28.2969" y2="28.2969"/><text fill="#000000" font-family="sans-serif" font-size="14" font-weight="bold" lengthAdjust="spacing" textLength="84" x="2789" y="20.9951">dom.event</text></g><!--cluster convert--><g id="cluster_convert"><path d="M1172.5,287 L1234.5,287 A3.75,3.75 0 0 1 1237,289.5 L1244,309.2969 L2151.5,309.2969 A2.5,2.5 0 0 1 2154,311.7969 L2154,589 A2.5,2.5 0 0 1 2151.5,591.5 L1172.5,591.5 A2.5,2.5 0 0 1 1170,589 L1170,289.5 A2.5,2.5 0 0 1 1172.5,287 " fill="none" style="stroke:#000000;stroke-width:1.5;"/><line style="stroke:#000000;stroke-width:1.5;" x1="1170" x2="1244" y1="309.2969" y2="309.2969"/><text fill="#000000" font-family="sans-serif" font-size="14" font-weight="bold" lengthAdjust="spacing" textLength="61" x="1174" y="301.9951">convert</text></g><!--class itemListStatusController.ItemListStatusController--><g id="elem_itemListStatusController.ItemListStatusController"><rect codeLine="10" fill="#F1F1F1" height="96.8906" id="itemListStatusController.ItemListStatusController" rx="2.5" ry="2.5" style="stroke:#181818;stroke-width:0.5;" width="483" x="490.5" y="305.5"/><ellipse cx="645.75" cy="321.5" fill="#ADD1B2" rx="11" ry="11" style="stroke:#181818;stroke-width:1.0;"/><path d="M648.7188,327.1406 Q648.1406,327.4375 647.5,327.5781 Q646.8594,327.7344 646.1563,327.7344 Q643.6563,327.7344 642.3281,326.0938 Q641.0156,324.4375 641.0156,321.3125 Q641.0156,318.1875 642.3281,316.5313 Q643.6563,314.875 646.1563,314.875 Q646.8594,314.875 647.5,315.0313 Q648.1563,315.1875 648.7188,315.4844 L648.7188,318.2031 Q648.0938,317.625 647.5,317.3594 Q646.9063,317.0781 646.2813,317.0781 Q644.9375,317.0781 644.25,318.1563 Q643.5625,319.2188 643.5625,321.3125 Q643.5625,323.4063 644.25,324.4844 Q644.9375,325.5469 646.2813,325.5469 Q646.9063,325.5469 647.5,325.2813 Q648.0938,325 648.7188,324.4219 L648.7188,327.1406 Z " fill="#000000"/><text fill="#000000" font-family="sans-serif" font-size="14" lengthAdjust="spacing" textLength="164" x="666.25" y="326.3467">ItemListStatusController</text><line style="stroke:#181818;stroke-width:0.5;" x1="491.5" x2="972.5" y1="337.5" y2="337.5"/><line style="stroke:#181818;stroke-width:0.5;" x1="491.5" x2="972.5" y1="345.5" y2="345.5"/><ellipse cx="501.5" cy="359.1484" fill="#84BE84" rx="3" ry="3" style="stroke:#038048;stroke-width:1.0;"/><text fill="#000000" font-family="sans-serif" font-size="14" lengthAdjust="spacing" textLength="320" x="510.5" y="362.4951">addItem(item: Item, itemList: ItemList): ItemList</text><ellipse cx="501.5" cy="375.4453" fill="#84BE84" rx="3" ry="3" style="stroke:#038048;stroke-width:1.0;"/><text fill="#000000" font-family="sans-serif" font-size="14" lengthAdjust="spacing" textLength="338" x="510.5" y="378.792">deleteItem(item: Item, itemList: ItemList): ItemList</text><ellipse cx="501.5" cy="391.7422" fill="#84BE84" rx="3" ry="3" style="stroke:#038048;stroke-width:1.0;"/><text fill="#000000" font-family="sans-serif" font-size="14" lengthAdjust="spacing" textLength="457" x="510.5" y="395.0889">changeItemCompleteStatus(item: Item, itemList: ItemList): ItemList</text></g><!--class itemListStatusController.Add--><g id="elem_itemListStatusController.Add"><rect codeLine="15" fill="#F1F1F1" height="64.2969" id="itemListStatusController.Add" rx="2.5" ry="2.5" style="stroke:#181818;stroke-width:0.5;" width="346" x="784" y="181.5"/><ellipse cx="939.25" cy="197.5" fill="#ADD1B2" rx="11" ry="11" style="stroke:#181818;stroke-width:1.0;"/><path d="M942.2188,203.1406 Q941.6406,203.4375 941,203.5781 Q940.3594,203.7344 939.6563,203.7344 Q937.1563,203.7344 935.8281,202.0938 Q934.5156,200.4375 934.5156,197.3125 Q934.5156,194.1875 935.8281,192.5313 Q937.1563,190.875 939.6563,190.875 Q940.3594,190.875 941,191.0313 Q941.6563,191.1875 942.2188,191.4844 L942.2188,194.2031 Q941.5938,193.625 941,193.3594 Q940.4063,193.0781 939.7813,193.0781 Q938.4375,193.0781 937.75,194.1563 Q937.0625,195.2188 937.0625,197.3125 Q937.0625,199.4063 937.75,200.4844 Q938.4375,201.5469 939.7813,201.5469 Q940.4063,201.5469 941,201.2813 Q941.5938,201 942.2188,200.4219 L942.2188,203.1406 Z " fill="#000000"/><text fill="#000000" font-family="sans-serif" font-size="14" lengthAdjust="spacing" textLength="27" x="959.75" y="202.3467">Add</text><line style="stroke:#181818;stroke-width:0.5;" x1="785" x2="1129" y1="213.5" y2="213.5"/><line style="stroke:#181818;stroke-width:0.5;" x1="785" x2="1129" y1="221.5" y2="221.5"/><ellipse cx="795" cy="235.1484" fill="#84BE84" rx="3" ry="3" style="stroke:#038048;stroke-width:1.0;"/><text fill="#000000" font-family="sans-serif" font-size="14" lengthAdjust="spacing" textLength="320" x="804" y="238.4951">execute(item: Item, itemList: ItemList): ItemList</text></g><!--class itemListStatusController.Delete--><g id="elem_itemListStatusController.Delete"><rect codeLine="18" fill="#F1F1F1" height="64.2969" id="itemListStatusController.Delete" rx="2.5" ry="2.5" style="stroke:#181818;stroke-width:0.5;" width="346" x="403" y="181.5"/><ellipse cx="548.75" cy="197.5" fill="#ADD1B2" rx="11" ry="11" style="stroke:#181818;stroke-width:1.0;"/><path d="M551.7188,203.1406 Q551.1406,203.4375 550.5,203.5781 Q549.8594,203.7344 549.1563,203.7344 Q546.6563,203.7344 545.3281,202.0938 Q544.0156,200.4375 544.0156,197.3125 Q544.0156,194.1875 545.3281,192.5313 Q546.6563,190.875 549.1563,190.875 Q549.8594,190.875 550.5,191.0313 Q551.1563,191.1875 551.7188,191.4844 L551.7188,194.2031 Q551.0938,193.625 550.5,193.3594 Q549.9063,193.0781 549.2813,193.0781 Q547.9375,193.0781 547.25,194.1563 Q546.5625,195.2188 546.5625,197.3125 Q546.5625,199.4063 547.25,200.4844 Q547.9375,201.5469 549.2813,201.5469 Q549.9063,201.5469 550.5,201.2813 Q551.0938,201 551.7188,200.4219 L551.7188,203.1406 Z " fill="#000000"/><text fill="#000000" font-family="sans-serif" font-size="14" lengthAdjust="spacing" textLength="46" x="569.25" y="202.3467">Delete</text><line style="stroke:#181818;stroke-width:0.5;" x1="404" x2="748" y1="213.5" y2="213.5"/><line style="stroke:#181818;stroke-width:0.5;" x1="404" x2="748" y1="221.5" y2="221.5"/><ellipse cx="414" cy="235.1484" fill="#84BE84" rx="3" ry="3" style="stroke:#038048;stroke-width:1.0;"/><text fill="#000000" font-family="sans-serif" font-size="14" lengthAdjust="spacing" textLength="320" x="423" y="238.4951">execute(item: Item, itemList: ItemList): ItemList</text></g><!--class itemListStatusController.ChangeComplete--><g id="elem_itemListStatusController.ChangeComplete"><rect codeLine="21" fill="#F1F1F1" height="64.2969" id="itemListStatusController.ChangeComplete" rx="2.5" ry="2.5" style="stroke:#181818;stroke-width:0.5;" width="346" x="22" y="181.5"/><ellipse cx="130.25" cy="197.5" fill="#ADD1B2" rx="11" ry="11" style="stroke:#181818;stroke-width:1.0;"/><path d="M133.2188,203.1406 Q132.6406,203.4375 132,203.5781 Q131.3594,203.7344 130.6563,203.7344 Q128.1563,203.7344 126.8281,202.0938 Q125.5156,200.4375 125.5156,197.3125 Q125.5156,194.1875 126.8281,192.5313 Q128.1563,190.875 130.6563,190.875 Q131.3594,190.875 132,191.0313 Q132.6563,191.1875 133.2188,191.4844 L133.2188,194.2031 Q132.5938,193.625 132,193.3594 Q131.4063,193.0781 130.7813,193.0781 Q129.4375,193.0781 128.75,194.1563 Q128.0625,195.2188 128.0625,197.3125 Q128.0625,199.4063 128.75,200.4844 Q129.4375,201.5469 130.7813,201.5469 Q131.4063,201.5469 132,201.2813 Q132.5938,201 133.2188,200.4219 L133.2188,203.1406 Z " fill="#000000"/><text fill="#000000" font-family="sans-serif" font-size="14" lengthAdjust="spacing" textLength="121" x="150.75" y="202.3467">ChangeComplete</text><line style="stroke:#181818;stroke-width:0.5;" x1="23" x2="367" y1="213.5" y2="213.5"/><line style="stroke:#181818;stroke-width:0.5;" x1="23" x2="367" y1="221.5" y2="221.5"/><ellipse cx="33" cy="235.1484" fill="#84BE84" rx="3" ry="3" style="stroke:#038048;stroke-width:1.0;"/><text fill="#000000" font-family="sans-serif" font-size="14" lengthAdjust="spacing" textLength="320" x="42" y="238.4951">execute(item: Item, itemList: ItemList): ItemList</text></g><!--class render.RenderCardList--><g id="elem_render.RenderCardList"><rect codeLine="29" fill="#F1F1F1" height="96.8906" id="render.RenderCardList" rx="2.5" ry="2.5" style="stroke:#181818;stroke-width:0.5;" width="271" x="2712.5" y="305.5"/><ellipse cx="2790.75" cy="321.5" fill="#ADD1B2" rx="11" ry="11" style="stroke:#181818;stroke-width:1.0;"/><path d="M2793.7188,327.1406 Q2793.1406,327.4375 2792.5,327.5781 Q2791.8594,327.7344 2791.1563,327.7344 Q2788.6563,327.7344 2787.3281,326.0938 Q2786.0156,324.4375 2786.0156,321.3125 Q2786.0156,318.1875 2787.3281,316.5313 Q2788.6563,314.875 2791.1563,314.875 Q2791.8594,314.875 2792.5,315.0313 Q2793.1563,315.1875 2793.7188,315.4844 L2793.7188,318.2031 Q2793.0938,317.625 2792.5,317.3594 Q2791.9063,317.0781 2791.2813,317.0781 Q2789.9375,317.0781 2789.25,318.1563 Q2788.5625,319.2188 2788.5625,321.3125 Q2788.5625,323.4063 2789.25,324.4844 Q2789.9375,325.5469 2791.2813,325.5469 Q2791.9063,325.5469 2792.5,325.2813 Q2793.0938,325 2793.7188,324.4219 L2793.7188,327.1406 Z " fill="#000000"/><text fill="#000000" font-family="sans-serif" font-size="14" lengthAdjust="spacing" textLength="106" x="2811.25" y="326.3467">RenderCardList</text><line style="stroke:#181818;stroke-width:0.5;" x1="2713.5" x2="2982.5" y1="337.5" y2="337.5"/><line style="stroke:#181818;stroke-width:0.5;" x1="2713.5" x2="2982.5" y1="345.5" y2="345.5"/><ellipse cx="2723.5" cy="359.1484" fill="#84BE84" rx="3" ry="3" style="stroke:#038048;stroke-width:1.0;"/><text fill="#000000" font-family="sans-serif" font-size="14" lengthAdjust="spacing" textLength="176" x="2732.5" y="362.4951">all(itemList: ItemList): void</text><ellipse cx="2723.5" cy="375.4453" fill="#84BE84" rx="3" ry="3" style="stroke:#038048;stroke-width:1.0;"/><text fill="#000000" font-family="sans-serif" font-size="14" lengthAdjust="spacing" textLength="227" x="2732.5" y="378.792">complete(itemList: ItemList): void</text><ellipse cx="2723.5" cy="391.7422" fill="#84BE84" rx="3" ry="3" style="stroke:#038048;stroke-width:1.0;"/><text fill="#000000" font-family="sans-serif" font-size="14" lengthAdjust="spacing" textLength="245" x="2732.5" y="395.0889">uncomplete(itemList: ItemList): void</text></g><!--class render.AllRender--><g id="elem_render.AllRender"><rect fill="#F1F1F1" height="48" id="render.AllRender" rx="2.5" ry="2.5" style="stroke:#181818;stroke-width:0.5;" width="98" x="2799" y="189.5"/><ellipse cx="2814" cy="205.5" fill="#ADD1B2" rx="11" ry="11" style="stroke:#181818;stroke-width:1.0;"/><path d="M2816.9688,211.1406 Q2816.3906,211.4375 2815.75,211.5781 Q2815.1094,211.7344 2814.4063,211.7344 Q2811.9063,211.7344 2810.5781,210.0938 Q2809.2656,208.4375 2809.2656,205.3125 Q2809.2656,202.1875 2810.5781,200.5313 Q2811.9063,198.875 2814.4063,198.875 Q2815.1094,198.875 2815.75,199.0313 Q2816.4063,199.1875 2816.9688,199.4844 L2816.9688,202.2031 Q2816.3438,201.625 2815.75,201.3594 Q2815.1563,201.0781 2814.5313,201.0781 Q2813.1875,201.0781 2812.5,202.1563 Q2811.8125,203.2188 2811.8125,205.3125 Q2811.8125,207.4063 2812.5,208.4844 Q2813.1875,209.5469 2814.5313,209.5469 Q2815.1563,209.5469 2815.75,209.2813 Q2816.3438,209 2816.9688,208.4219 L2816.9688,211.1406 Z " fill="#000000"/><text fill="#000000" font-family="sans-serif" font-size="14" lengthAdjust="spacing" textLength="66" x="2828" y="210.3467">AllRender</text><line style="stroke:#181818;stroke-width:0.5;" x1="2800" x2="2896" y1="221.5" y2="221.5"/><line style="stroke:#181818;stroke-width:0.5;" x1="2800" x2="2896" y1="229.5" y2="229.5"/></g><!--class render.CompleteRender--><g id="elem_render.CompleteRender"><rect fill="#F1F1F1" height="48" id="render.CompleteRender" rx="2.5" ry="2.5" style="stroke:#181818;stroke-width:0.5;" width="150" x="2614" y="189.5"/><ellipse cx="2629" cy="205.5" fill="#ADD1B2" rx="11" ry="11" style="stroke:#181818;stroke-width:1.0;"/><path d="M2631.9688,211.1406 Q2631.3906,211.4375 2630.75,211.5781 Q2630.1094,211.7344 2629.4063,211.7344 Q2626.9063,211.7344 2625.5781,210.0938 Q2624.2656,208.4375 2624.2656,205.3125 Q2624.2656,202.1875 2625.5781,200.5313 Q2626.9063,198.875 2629.4063,198.875 Q2630.1094,198.875 2630.75,199.0313 Q2631.4063,199.1875 2631.9688,199.4844 L2631.9688,202.2031 Q2631.3438,201.625 2630.75,201.3594 Q2630.1563,201.0781 2629.5313,201.0781 Q2628.1875,201.0781 2627.5,202.1563 Q2626.8125,203.2188 2626.8125,205.3125 Q2626.8125,207.4063 2627.5,208.4844 Q2628.1875,209.5469 2629.5313,209.5469 Q2630.1563,209.5469 2630.75,209.2813 Q2631.3438,209 2631.9688,208.4219 L2631.9688,211.1406 Z " fill="#000000"/><text fill="#000000" font-family="sans-serif" font-size="14" lengthAdjust="spacing" textLength="118" x="2643" y="210.3467">CompleteRender</text><line style="stroke:#181818;stroke-width:0.5;" x1="2615" x2="2763" y1="221.5" y2="221.5"/><line style="stroke:#181818;stroke-width:0.5;" x1="2615" x2="2763" y1="229.5" y2="229.5"/></g><!--class render.UncompleteRender--><g id="elem_render.UncompleteRender"><rect fill="#F1F1F1" height="48" id="render.UncompleteRender" rx="2.5" ry="2.5" style="stroke:#181818;stroke-width:0.5;" width="167" x="2932.5" y="189.5"/><ellipse cx="2947.5" cy="205.5" fill="#ADD1B2" rx="11" ry="11" style="stroke:#181818;stroke-width:1.0;"/><path d="M2950.4688,211.1406 Q2949.8906,211.4375 2949.25,211.5781 Q2948.6094,211.7344 2947.9063,211.7344 Q2945.4063,211.7344 2944.0781,210.0938 Q2942.7656,208.4375 2942.7656,205.3125 Q2942.7656,202.1875 2944.0781,200.5313 Q2945.4063,198.875 2947.9063,198.875 Q2948.6094,198.875 2949.25,199.0313 Q2949.9063,199.1875 2950.4688,199.4844 L2950.4688,202.2031 Q2949.8438,201.625 2949.25,201.3594 Q2948.6563,201.0781 2948.0313,201.0781 Q2946.6875,201.0781 2946,202.1563 Q2945.3125,203.2188 2945.3125,205.3125 Q2945.3125,207.4063 2946,208.4844 Q2946.6875,209.5469 2948.0313,209.5469 Q2948.6563,209.5469 2949.25,209.2813 Q2949.8438,209 2950.4688,208.4219 L2950.4688,211.1406 Z " fill="#000000"/><text fill="#000000" font-family="sans-serif" font-size="14" lengthAdjust="spacing" textLength="135" x="2961.5" y="210.3467">UncompleteRender</text><line style="stroke:#181818;stroke-width:0.5;" x1="2933.5" x2="3098.5" y1="221.5" y2="221.5"/><line style="stroke:#181818;stroke-width:0.5;" x1="2933.5" x2="3098.5" y1="229.5" y2="229.5"/></g><!--class render.RenderDetailCard--><g id="elem_render.RenderDetailCard"><rect fill="#F1F1F1" height="48" id="render.RenderDetailCard" rx="2.5" ry="2.5" style="stroke:#181818;stroke-width:0.5;" width="154" x="2425" y="189.5"/><ellipse cx="2440" cy="205.5" fill="#ADD1B2" rx="11" ry="11" style="stroke:#181818;stroke-width:1.0;"/><path d="M2442.9688,211.1406 Q2442.3906,211.4375 2441.75,211.5781 Q2441.1094,211.7344 2440.4063,211.7344 Q2437.9063,211.7344 2436.5781,210.0938 Q2435.2656,208.4375 2435.2656,205.3125 Q2435.2656,202.1875 2436.5781,200.5313 Q2437.9063,198.875 2440.4063,198.875 Q2441.1094,198.875 2441.75,199.0313 Q2442.4063,199.1875 2442.9688,199.4844 L2442.9688,202.2031 Q2442.3438,201.625 2441.75,201.3594 Q2441.1563,201.0781 2440.5313,201.0781 Q2439.1875,201.0781 2438.5,202.1563 Q2437.8125,203.2188 2437.8125,205.3125 Q2437.8125,207.4063 2438.5,208.4844 Q2439.1875,209.5469 2440.5313,209.5469 Q2441.1563,209.5469 2441.75,209.2813 Q2442.3438,209 2442.9688,208.4219 L2442.9688,211.1406 Z " fill="#000000"/><text fill="#000000" font-family="sans-serif" font-size="14" lengthAdjust="spacing" textLength="122" x="2454" y="210.3467">RenderDetailCard</text><line style="stroke:#181818;stroke-width:0.5;" x1="2426" x2="2578" y1="221.5" y2="221.5"/><line style="stroke:#181818;stroke-width:0.5;" x1="2426" x2="2578" y1="229.5" y2="229.5"/></g><!--class dom.element.Form--><g id="elem_dom.element.Form"><rect codeLine="34" fill="#F1F1F1" height="48" id="dom.element.Form" rx="2.5" ry="2.5" style="stroke:#181818;stroke-width:0.5;" width="67" x="3383.5" y="189.5"/><ellipse cx="3398.5" cy="205.5" fill="#ADD1B2" rx="11" ry="11" style="stroke:#181818;stroke-width:1.0;"/><path d="M3401.4688,211.1406 Q3400.8906,211.4375 3400.25,211.5781 Q3399.6094,211.7344 3398.9063,211.7344 Q3396.4063,211.7344 3395.0781,210.0938 Q3393.7656,208.4375 3393.7656,205.3125 Q3393.7656,202.1875 3395.0781,200.5313 Q3396.4063,198.875 3398.9063,198.875 Q3399.6094,198.875 3400.25,199.0313 Q3400.9063,199.1875 3401.4688,199.4844 L3401.4688,202.2031 Q3400.8438,201.625 3400.25,201.3594 Q3399.6563,201.0781 3399.0313,201.0781 Q3397.6875,201.0781 3397,202.1563 Q3396.3125,203.2188 3396.3125,205.3125 Q3396.3125,207.4063 3397,208.4844 Q3397.6875,209.5469 3399.0313,209.5469 Q3399.6563,209.5469 3400.25,209.2813 Q3400.8438,209 3401.4688,208.4219 L3401.4688,211.1406 Z " fill="#000000"/><text fill="#000000" font-family="sans-serif" font-size="14" lengthAdjust="spacing" textLength="35" x="3412.5" y="210.3467">Form</text><line style="stroke:#181818;stroke-width:0.5;" x1="3384.5" x2="3449.5" y1="221.5" y2="221.5"/><line style="stroke:#181818;stroke-width:0.5;" x1="3384.5" x2="3449.5" y1="229.5" y2="229.5"/></g><!--class dom.element.Trash--><g id="elem_dom.element.Trash"><rect codeLine="35" fill="#F1F1F1" height="48" id="dom.element.Trash" rx="2.5" ry="2.5" style="stroke:#181818;stroke-width:0.5;" width="71" x="3485.5" y="189.5"/><ellipse cx="3500.5" cy="205.5" fill="#ADD1B2" rx="11" ry="11" style="stroke:#181818;stroke-width:1.0;"/><path d="M3503.4688,211.1406 Q3502.8906,211.4375 3502.25,211.5781 Q3501.6094,211.7344 3500.9063,211.7344 Q3498.4063,211.7344 3497.0781,210.0938 Q3495.7656,208.4375 3495.7656,205.3125 Q3495.7656,202.1875 3497.0781,200.5313 Q3498.4063,198.875 3500.9063,198.875 Q3501.6094,198.875 3502.25,199.0313 Q3502.9063,199.1875 3503.4688,199.4844 L3503.4688,202.2031 Q3502.8438,201.625 3502.25,201.3594 Q3501.6563,201.0781 3501.0313,201.0781 Q3499.6875,201.0781 3499,202.1563 Q3498.3125,203.2188 3498.3125,205.3125 Q3498.3125,207.4063 3499,208.4844 Q3499.6875,209.5469 3501.0313,209.5469 Q3501.6563,209.5469 3502.25,209.2813 Q3502.8438,209 3503.4688,208.4219 L3503.4688,211.1406 Z " fill="#000000"/><text fill="#000000" font-family="sans-serif" font-size="14" lengthAdjust="spacing" textLength="39" x="3514.5" y="210.3467">Trash</text><line style="stroke:#181818;stroke-width:0.5;" x1="3486.5" x2="3555.5" y1="221.5" y2="221.5"/><line style="stroke:#181818;stroke-width:0.5;" x1="3486.5" x2="3555.5" y1="229.5" y2="229.5"/></g><!--class dom.element.Complete--><g id="elem_dom.element.Complete"><rect codeLine="36" fill="#F1F1F1" height="48" id="dom.element.Complete" rx="2.5" ry="2.5" style="stroke:#181818;stroke-width:0.5;" width="99" x="3591.5" y="189.5"/><ellipse cx="3606.5" cy="205.5" fill="#ADD1B2" rx="11" ry="11" style="stroke:#181818;stroke-width:1.0;"/><path d="M3609.4688,211.1406 Q3608.8906,211.4375 3608.25,211.5781 Q3607.6094,211.7344 3606.9063,211.7344 Q3604.4063,211.7344 3603.0781,210.0938 Q3601.7656,208.4375 3601.7656,205.3125 Q3601.7656,202.1875 3603.0781,200.5313 Q3604.4063,198.875 3606.9063,198.875 Q3607.6094,198.875 3608.25,199.0313 Q3608.9063,199.1875 3609.4688,199.4844 L3609.4688,202.2031 Q3608.8438,201.625 3608.25,201.3594 Q3607.6563,201.0781 3607.0313,201.0781 Q3605.6875,201.0781 3605,202.1563 Q3604.3125,203.2188 3604.3125,205.3125 Q3604.3125,207.4063 3605,208.4844 Q3605.6875,209.5469 3607.0313,209.5469 Q3607.6563,209.5469 3608.25,209.2813 Q3608.8438,209 3609.4688,208.4219 L3609.4688,211.1406 Z " fill="#000000"/><text fill="#000000" font-family="sans-serif" font-size="14" lengthAdjust="spacing" textLength="67" x="3620.5" y="210.3467">Complete</text><line style="stroke:#181818;stroke-width:0.5;" x1="3592.5" x2="3689.5" y1="221.5" y2="221.5"/><line style="stroke:#181818;stroke-width:0.5;" x1="3592.5" x2="3689.5" y1="229.5" y2="229.5"/></g><!--class dom.element.Category--><g id="elem_dom.element.Category"><rect codeLine="37" fill="#F1F1F1" height="48" id="dom.element.Category" rx="2.5" ry="2.5" style="stroke:#181818;stroke-width:0.5;" width="94" x="3155" y="189.5"/><ellipse cx="3170" cy="205.5" fill="#ADD1B2" rx="11" ry="11" style="stroke:#181818;stroke-width:1.0;"/><path d="M3172.9688,211.1406 Q3172.3906,211.4375 3171.75,211.5781 Q3171.1094,211.7344 3170.4063,211.7344 Q3167.9063,211.7344 3166.5781,210.0938 Q3165.2656,208.4375 3165.2656,205.3125 Q3165.2656,202.1875 3166.5781,200.5313 Q3167.9063,198.875 3170.4063,198.875 Q3171.1094,198.875 3171.75,199.0313 Q3172.4063,199.1875 3172.9688,199.4844 L3172.9688,202.2031 Q3172.3438,201.625 3171.75,201.3594 Q3171.1563,201.0781 3170.5313,201.0781 Q3169.1875,201.0781 3168.5,202.1563 Q3167.8125,203.2188 3167.8125,205.3125 Q3167.8125,207.4063 3168.5,208.4844 Q3169.1875,209.5469 3170.5313,209.5469 Q3171.1563,209.5469 3171.75,209.2813 Q3172.3438,209 3172.9688,208.4219 L3172.9688,211.1406 Z " fill="#000000"/><text fill="#000000" font-family="sans-serif" font-size="14" lengthAdjust="spacing" textLength="62" x="3184" y="210.3467">Category</text><line style="stroke:#181818;stroke-width:0.5;" x1="3156" x2="3248" y1="221.5" y2="221.5"/><line style="stroke:#181818;stroke-width:0.5;" x1="3156" x2="3248" y1="229.5" y2="229.5"/></g><!--class dom.element.Card--><g id="elem_dom.element.Card"><rect codeLine="38" fill="#F1F1F1" height="48" id="dom.element.Card" rx="2.5" ry="2.5" style="stroke:#181818;stroke-width:0.5;" width="64" x="3284" y="189.5"/><ellipse cx="3299" cy="205.5" fill="#ADD1B2" rx="11" ry="11" style="stroke:#181818;stroke-width:1.0;"/><path d="M3301.9688,211.1406 Q3301.3906,211.4375 3300.75,211.5781 Q3300.1094,211.7344 3299.4063,211.7344 Q3296.9063,211.7344 3295.5781,210.0938 Q3294.2656,208.4375 3294.2656,205.3125 Q3294.2656,202.1875 3295.5781,200.5313 Q3296.9063,198.875 3299.4063,198.875 Q3300.1094,198.875 3300.75,199.0313 Q3301.4063,199.1875 3301.9688,199.4844 L3301.9688,202.2031 Q3301.3438,201.625 3300.75,201.3594 Q3300.1563,201.0781 3299.5313,201.0781 Q3298.1875,201.0781 3297.5,202.1563 Q3296.8125,203.2188 3296.8125,205.3125 Q3296.8125,207.4063 3297.5,208.4844 Q3298.1875,209.5469 3299.5313,209.5469 Q3300.1563,209.5469 3300.75,209.2813 Q3301.3438,209 3301.9688,208.4219 L3301.9688,211.1406 Z " fill="#000000"/><text fill="#000000" font-family="sans-serif" font-size="14" lengthAdjust="spacing" textLength="32" x="3313" y="210.3467">Card</text><line style="stroke:#181818;stroke-width:0.5;" x1="3285" x2="3347" y1="221.5" y2="221.5"/><line style="stroke:#181818;stroke-width:0.5;" x1="3285" x2="3347" y1="229.5" y2="229.5"/></g><!--class dom.event.RegisterFormEvent--><g id="elem_dom.event.RegisterFormEvent"><rect codeLine="40" fill="#F1F1F1" height="64.2969" id="dom.event.RegisterFormEvent" rx="2.5" ry="2.5" style="stroke:#181818;stroke-width:0.5;" width="195" x="3319.5" y="41"/><ellipse cx="3348.45" cy="57" fill="#ADD1B2" rx="11" ry="11" style="stroke:#181818;stroke-width:1.0;"/><path d="M3351.4188,62.6406 Q3350.8406,62.9375 3350.2,63.0781 Q3349.5594,63.2344 3348.8563,63.2344 Q3346.3563,63.2344 3345.0281,61.5938 Q3343.7156,59.9375 3343.7156,56.8125 Q3343.7156,53.6875 3345.0281,52.0313 Q3346.3563,50.375 3348.8563,50.375 Q3349.5594,50.375 3350.2,50.5313 Q3350.8563,50.6875 3351.4188,50.9844 L3351.4188,53.7031 Q3350.7938,53.125 3350.2,52.8594 Q3349.6063,52.5781 3348.9813,52.5781 Q3347.6375,52.5781 3346.95,53.6563 Q3346.2625,54.7188 3346.2625,56.8125 Q3346.2625,58.9063 3346.95,59.9844 Q3347.6375,61.0469 3348.9813,61.0469 Q3349.6063,61.0469 3350.2,60.7813 Q3350.7938,60.5 3351.4188,59.9219 L3351.4188,62.6406 Z " fill="#000000"/><text fill="#000000" font-family="sans-serif" font-size="14" lengthAdjust="spacing" textLength="132" x="3365.55" y="61.8467">RegisterFormEvent</text><line style="stroke:#181818;stroke-width:0.5;" x1="3320.5" x2="3513.5" y1="73" y2="73"/><line style="stroke:#181818;stroke-width:0.5;" x1="3320.5" x2="3513.5" y1="81" y2="81"/><ellipse cx="3330.5" cy="94.6484" fill="#84BE84" rx="3" ry="3" style="stroke:#038048;stroke-width:1.0;"/><text fill="#000000" font-family="sans-serif" font-size="14" lengthAdjust="spacing" textLength="169" x="3339.5" y="97.9951">submit(form: Form): void</text></g><!--class dom.event.RegisterTrashEvent--><g id="elem_dom.event.RegisterTrashEvent"><rect codeLine="44" fill="#F1F1F1" height="64.2969" id="dom.event.RegisterTrashEvent" rx="2.5" ry="2.5" style="stroke:#181818;stroke-width:0.5;" width="206" x="3550" y="41"/><ellipse cx="3582.1" cy="57" fill="#ADD1B2" rx="11" ry="11" style="stroke:#181818;stroke-width:1.0;"/><path d="M3585.0688,62.6406 Q3584.4906,62.9375 3583.85,63.0781 Q3583.2094,63.2344 3582.5063,63.2344 Q3580.0063,63.2344 3578.6781,61.5938 Q3577.3656,59.9375 3577.3656,56.8125 Q3577.3656,53.6875 3578.6781,52.0313 Q3580.0063,50.375 3582.5063,50.375 Q3583.2094,50.375 3583.85,50.5313 Q3584.5063,50.6875 3585.0688,50.9844 L3585.0688,53.7031 Q3584.4438,53.125 3583.85,52.8594 Q3583.2563,52.5781 3582.6313,52.5781 Q3581.2875,52.5781 3580.6,53.6563 Q3579.9125,54.7188 3579.9125,56.8125 Q3579.9125,58.9063 3580.6,59.9844 Q3581.2875,61.0469 3582.6313,61.0469 Q3583.2563,61.0469 3583.85,60.7813 Q3584.4438,60.5 3585.0688,59.9219 L3585.0688,62.6406 Z " fill="#000000"/><text fill="#000000" font-family="sans-serif" font-size="14" lengthAdjust="spacing" textLength="136" x="3599.9" y="61.8467">RegisterTrashEvent</text><line style="stroke:#181818;stroke-width:0.5;" x1="3551" x2="3755" y1="73" y2="73"/><line style="stroke:#181818;stroke-width:0.5;" x1="3551" x2="3755" y1="81" y2="81"/><ellipse cx="3561" cy="94.6484" fill="#84BE84" rx="3" ry="3" style="stroke:#038048;stroke-width:1.0;"/><text fill="#000000" font-family="sans-serif" font-size="14" lengthAdjust="spacing" textLength="180" x="3570" y="97.9951">onClick(trash: Trash): void</text></g><!--class dom.event.RegisterCompleteEvent--><g id="elem_dom.event.RegisterCompleteEvent"><rect codeLine="47" fill="#F1F1F1" height="64.2969" id="dom.event.RegisterCompleteEvent" rx="2.5" ry="2.5" style="stroke:#181818;stroke-width:0.5;" width="264" x="3791" y="41"/><ellipse cx="3836.75" cy="57" fill="#ADD1B2" rx="11" ry="11" style="stroke:#181818;stroke-width:1.0;"/><path d="M3839.7188,62.6406 Q3839.1406,62.9375 3838.5,63.0781 Q3837.8594,63.2344 3837.1563,63.2344 Q3834.6563,63.2344 3833.3281,61.5938 Q3832.0156,59.9375 3832.0156,56.8125 Q3832.0156,53.6875 3833.3281,52.0313 Q3834.6563,50.375 3837.1563,50.375 Q3837.8594,50.375 3838.5,50.5313 Q3839.1563,50.6875 3839.7188,50.9844 L3839.7188,53.7031 Q3839.0938,53.125 3838.5,52.8594 Q3837.9063,52.5781 3837.2813,52.5781 Q3835.9375,52.5781 3835.25,53.6563 Q3834.5625,54.7188 3834.5625,56.8125 Q3834.5625,58.9063 3835.25,59.9844 Q3835.9375,61.0469 3837.2813,61.0469 Q3837.9063,61.0469 3838.5,60.7813 Q3839.0938,60.5 3839.7188,59.9219 L3839.7188,62.6406 Z " fill="#000000"/><text fill="#000000" font-family="sans-serif" font-size="14" lengthAdjust="spacing" textLength="164" x="3857.25" y="61.8467">RegisterCompleteEvent</text><line style="stroke:#181818;stroke-width:0.5;" x1="3792" x2="4054" y1="73" y2="73"/><line style="stroke:#181818;stroke-width:0.5;" x1="3792" x2="4054" y1="81" y2="81"/><ellipse cx="3802" cy="94.6484" fill="#84BE84" rx="3" ry="3" style="stroke:#038048;stroke-width:1.0;"/><text fill="#000000" font-family="sans-serif" font-size="14" lengthAdjust="spacing" textLength="238" x="3811" y="97.9951">onClick(complete: Complete): void</text></g><!--class dom.event.RegisterCategoryEvent--><g id="elem_dom.event.RegisterCategoryEvent"><rect codeLine="50" fill="#F1F1F1" height="64.2969" id="dom.event.RegisterCategoryEvent" rx="2.5" ry="2.5" style="stroke:#181818;stroke-width:0.5;" width="254" x="2801" y="41"/><ellipse cx="2844.35" cy="57" fill="#ADD1B2" rx="11" ry="11" style="stroke:#181818;stroke-width:1.0;"/><path d="M2847.3188,62.6406 Q2846.7406,62.9375 2846.1,63.0781 Q2845.4594,63.2344 2844.7563,63.2344 Q2842.2563,63.2344 2840.9281,61.5938 Q2839.6156,59.9375 2839.6156,56.8125 Q2839.6156,53.6875 2840.9281,52.0313 Q2842.2563,50.375 2844.7563,50.375 Q2845.4594,50.375 2846.1,50.5313 Q2846.7563,50.6875 2847.3188,50.9844 L2847.3188,53.7031 Q2846.6938,53.125 2846.1,52.8594 Q2845.5063,52.5781 2844.8813,52.5781 Q2843.5375,52.5781 2842.85,53.6563 Q2842.1625,54.7188 2842.1625,56.8125 Q2842.1625,58.9063 2842.85,59.9844 Q2843.5375,61.0469 2844.8813,61.0469 Q2845.5063,61.0469 2846.1,60.7813 Q2846.6938,60.5 2847.3188,59.9219 L2847.3188,62.6406 Z " fill="#000000"/><text fill="#000000" font-family="sans-serif" font-size="14" lengthAdjust="spacing" textLength="159" x="2864.65" y="61.8467">RegisterCategoryEvent</text><line style="stroke:#181818;stroke-width:0.5;" x1="2802" x2="3054" y1="73" y2="73"/><line style="stroke:#181818;stroke-width:0.5;" x1="2802" x2="3054" y1="81" y2="81"/><ellipse cx="2812" cy="94.6484" fill="#84BE84" rx="3" ry="3" style="stroke:#038048;stroke-width:1.0;"/><text fill="#000000" font-family="sans-serif" font-size="14" lengthAdjust="spacing" textLength="228" x="2821" y="97.9951">onClick(category: Category): void</text></g><!--class dom.event.RegisterCardEvent--><g id="elem_dom.event.RegisterCardEvent"><rect codeLine="53" fill="#F1F1F1" height="64.2969" id="dom.event.RegisterCardEvent" rx="2.5" ry="2.5" style="stroke:#181818;stroke-width:0.5;" width="194" x="3090" y="41"/><ellipse cx="3119.85" cy="57" fill="#ADD1B2" rx="11" ry="11" style="stroke:#181818;stroke-width:1.0;"/><path d="M3122.8188,62.6406 Q3122.2406,62.9375 3121.6,63.0781 Q3120.9594,63.2344 3120.2563,63.2344 Q3117.7563,63.2344 3116.4281,61.5938 Q3115.1156,59.9375 3115.1156,56.8125 Q3115.1156,53.6875 3116.4281,52.0313 Q3117.7563,50.375 3120.2563,50.375 Q3120.9594,50.375 3121.6,50.5313 Q3122.2563,50.6875 3122.8188,50.9844 L3122.8188,53.7031 Q3122.1938,53.125 3121.6,52.8594 Q3121.0063,52.5781 3120.3813,52.5781 Q3119.0375,52.5781 3118.35,53.6563 Q3117.6625,54.7188 3117.6625,56.8125 Q3117.6625,58.9063 3118.35,59.9844 Q3119.0375,61.0469 3120.3813,61.0469 Q3121.0063,61.0469 3121.6,60.7813 Q3122.1938,60.5 3122.8188,59.9219 L3122.8188,62.6406 Z " fill="#000000"/><text fill="#000000" font-family="sans-serif" font-size="14" lengthAdjust="spacing" textLength="129" x="3137.15" y="61.8467">RegisterCardEvent</text><line style="stroke:#181818;stroke-width:0.5;" x1="3091" x2="3283" y1="73" y2="73"/><line style="stroke:#181818;stroke-width:0.5;" x1="3091" x2="3283" y1="81" y2="81"/><ellipse cx="3101" cy="94.6484" fill="#84BE84" rx="3" ry="3" style="stroke:#038048;stroke-width:1.0;"/><text fill="#000000" font-family="sans-serif" font-size="14" lengthAdjust="spacing" textLength="168" x="3110" y="97.9951">onClick(card: Card): void</text></g><!--class convert.DataConverter--><g id="elem_convert.DataConverter"><rect codeLine="57" fill="#F1F1F1" height="113.1875" id="convert.DataConverter" rx="2.5" ry="2.5" style="stroke:#181818;stroke-width:0.5;" width="415" x="1723.5" y="462.5"/><ellipse cx="1876.75" cy="478.5" fill="#ADD1B2" rx="11" ry="11" style="stroke:#181818;stroke-width:1.0;"/><path d="M1879.7188,484.1406 Q1879.1406,484.4375 1878.5,484.5781 Q1877.8594,484.7344 1877.1563,484.7344 Q1874.6563,484.7344 1873.3281,483.0938 Q1872.0156,481.4375 1872.0156,478.3125 Q1872.0156,475.1875 1873.3281,473.5313 Q1874.6563,471.875 1877.1563,471.875 Q1877.8594,471.875 1878.5,472.0313 Q1879.1563,472.1875 1879.7188,472.4844 L1879.7188,475.2031 Q1879.0938,474.625 1878.5,474.3594 Q1877.9063,474.0781 1877.2813,474.0781 Q1875.9375,474.0781 1875.25,475.1563 Q1874.5625,476.2188 1874.5625,478.3125 Q1874.5625,480.4063 1875.25,481.4844 Q1875.9375,482.5469 1877.2813,482.5469 Q1877.9063,482.5469 1878.5,482.2813 Q1879.0938,482 1879.7188,481.4219 L1879.7188,484.1406 Z " fill="#000000"/><text fill="#000000" font-family="sans-serif" font-size="14" lengthAdjust="spacing" textLength="100" x="1897.25" y="483.3467">DataConverter</text><line style="stroke:#181818;stroke-width:0.5;" x1="1724.5" x2="2137.5" y1="494.5" y2="494.5"/><line style="stroke:#181818;stroke-width:0.5;" x1="1724.5" x2="2137.5" y1="502.5" y2="502.5"/><ellipse cx="1734.5" cy="516.1484" fill="#84BE84" rx="3" ry="3" style="stroke:#038048;stroke-width:1.0;"/><text fill="#000000" font-family="sans-serif" font-size="14" lengthAdjust="spacing" textLength="291" x="1743.5" y="519.4951">convertFormDataToItem(form: Form): Item</text><ellipse cx="1734.5" cy="532.4453" fill="#84BE84" rx="3" ry="3" style="stroke:#038048;stroke-width:1.0;"/><text fill="#000000" font-family="sans-serif" font-size="14" lengthAdjust="spacing" textLength="303" x="1743.5" y="535.792">convertTrashDataToItem(trash: Trash): Item</text><ellipse cx="1734.5" cy="548.7422" fill="#84BE84" rx="3" ry="3" style="stroke:#038048;stroke-width:1.0;"/><text fill="#000000" font-family="sans-serif" font-size="14" lengthAdjust="spacing" textLength="389" x="1743.5" y="552.0889">convertCompleteDataToItem(complete: Complete): Item</text><ellipse cx="1734.5" cy="565.0391" fill="#84BE84" rx="3" ry="3" style="stroke:#038048;stroke-width:1.0;"/><text fill="#000000" font-family="sans-serif" font-size="14" lengthAdjust="spacing" textLength="284" x="1743.5" y="568.3857">convertCardDataToItem(card: Card): Item</text></g><!--class convert.ConvertFormDataToItem--><g id="elem_convert.ConvertFormDataToItem"><rect codeLine="64" fill="#F1F1F1" height="64.2969" id="convert.ConvertFormDataToItem" rx="2.5" ry="2.5" style="stroke:#181818;stroke-width:0.5;" width="206" x="1454" y="322"/><ellipse cx="1471.25" cy="338" fill="#ADD1B2" rx="11" ry="11" style="stroke:#181818;stroke-width:1.0;"/><path d="M1474.2188,343.6406 Q1473.6406,343.9375 1473,344.0781 Q1472.3594,344.2344 1471.6563,344.2344 Q1469.1563,344.2344 1467.8281,342.5938 Q1466.5156,340.9375 1466.5156,337.8125 Q1466.5156,334.6875 1467.8281,333.0313 Q1469.1563,331.375 1471.6563,331.375 Q1472.3594,331.375 1473,331.5313 Q1473.6563,331.6875 1474.2188,331.9844 L1474.2188,334.7031 Q1473.5938,334.125 1473,333.8594 Q1472.4063,333.5781 1471.7813,333.5781 Q1470.4375,333.5781 1469.75,334.6563 Q1469.0625,335.7188 1469.0625,337.8125 Q1469.0625,339.9063 1469.75,340.9844 Q1470.4375,342.0469 1471.7813,342.0469 Q1472.4063,342.0469 1473,341.7813 Q1473.5938,341.5 1474.2188,340.9219 L1474.2188,343.6406 Z " fill="#000000"/><text fill="#000000" font-family="sans-serif" font-size="14" lengthAdjust="spacing" textLength="169" x="1485.75" y="342.8467">ConvertFormDataToItem</text><line style="stroke:#181818;stroke-width:0.5;" x1="1455" x2="1659" y1="354" y2="354"/><line style="stroke:#181818;stroke-width:0.5;" x1="1455" x2="1659" y1="362" y2="362"/><ellipse cx="1465" cy="375.6484" fill="#84BE84" rx="3" ry="3" style="stroke:#038048;stroke-width:1.0;"/><text fill="#000000" font-family="sans-serif" font-size="14" lengthAdjust="spacing" textLength="180" x="1474" y="378.9951">execute(form: Form): Item</text></g><!--class convert.ConvertTrashDataToItem--><g id="elem_convert.ConvertTrashDataToItem"><rect codeLine="68" fill="#F1F1F1" height="64.2969" id="convert.ConvertTrashDataToItem" rx="2.5" ry="2.5" style="stroke:#181818;stroke-width:0.5;" width="206" x="1695" y="322"/><ellipse cx="1710.45" cy="338" fill="#ADD1B2" rx="11" ry="11" style="stroke:#181818;stroke-width:1.0;"/><path d="M1713.4188,343.6406 Q1712.8406,343.9375 1712.2,344.0781 Q1711.5594,344.2344 1710.8563,344.2344 Q1708.3563,344.2344 1707.0281,342.5938 Q1705.7156,340.9375 1705.7156,337.8125 Q1705.7156,334.6875 1707.0281,333.0313 Q1708.3563,331.375 1710.8563,331.375 Q1711.5594,331.375 1712.2,331.5313 Q1712.8563,331.6875 1713.4188,331.9844 L1713.4188,334.7031 Q1712.7938,334.125 1712.2,333.8594 Q1711.6063,333.5781 1710.9813,333.5781 Q1709.6375,333.5781 1708.95,334.6563 Q1708.2625,335.7188 1708.2625,337.8125 Q1708.2625,339.9063 1708.95,340.9844 Q1709.6375,342.0469 1710.9813,342.0469 Q1711.6063,342.0469 1712.2,341.7813 Q1712.7938,341.5 1713.4188,340.9219 L1713.4188,343.6406 Z " fill="#000000"/><text fill="#000000" font-family="sans-serif" font-size="14" lengthAdjust="spacing" textLength="173" x="1724.55" y="342.8467">ConvertTrashDataToItem</text><line style="stroke:#181818;stroke-width:0.5;" x1="1696" x2="1900" y1="354" y2="354"/><line style="stroke:#181818;stroke-width:0.5;" x1="1696" x2="1900" y1="362" y2="362"/><ellipse cx="1706" cy="375.6484" fill="#84BE84" rx="3" ry="3" style="stroke:#038048;stroke-width:1.0;"/><text fill="#000000" font-family="sans-serif" font-size="14" lengthAdjust="spacing" textLength="180" x="1715" y="378.9951">execute(form: Form): Item</text></g><!--class convert.ConvertCompleteDataToItem--><g id="elem_convert.ConvertCompleteDataToItem"><rect codeLine="72" fill="#F1F1F1" height="64.2969" id="convert.ConvertCompleteDataToItem" rx="2.5" ry="2.5" style="stroke:#181818;stroke-width:0.5;" width="233" x="1185.5" y="322"/><ellipse cx="1200.5" cy="338" fill="#ADD1B2" rx="11" ry="11" style="stroke:#181818;stroke-width:1.0;"/><path d="M1203.4688,343.6406 Q1202.8906,343.9375 1202.25,344.0781 Q1201.6094,344.2344 1200.9063,344.2344 Q1198.4063,344.2344 1197.0781,342.5938 Q1195.7656,340.9375 1195.7656,337.8125 Q1195.7656,334.6875 1197.0781,333.0313 Q1198.4063,331.375 1200.9063,331.375 Q1201.6094,331.375 1202.25,331.5313 Q1202.9063,331.6875 1203.4688,331.9844 L1203.4688,334.7031 Q1202.8438,334.125 1202.25,333.8594 Q1201.6563,333.5781 1201.0313,333.5781 Q1199.6875,333.5781 1199,334.6563 Q1198.3125,335.7188 1198.3125,337.8125 Q1198.3125,339.9063 1199,340.9844 Q1199.6875,342.0469 1201.0313,342.0469 Q1201.6563,342.0469 1202.25,341.7813 Q1202.8438,341.5 1203.4688,340.9219 L1203.4688,343.6406 Z " fill="#000000"/><text fill="#000000" font-family="sans-serif" font-size="14" lengthAdjust="spacing" textLength="201" x="1214.5" y="342.8467">ConvertCompleteDataToItem</text><line style="stroke:#181818;stroke-width:0.5;" x1="1186.5" x2="1417.5" y1="354" y2="354"/><line style="stroke:#181818;stroke-width:0.5;" x1="1186.5" x2="1417.5" y1="362" y2="362"/><ellipse cx="1196.5" cy="375.6484" fill="#84BE84" rx="3" ry="3" style="stroke:#038048;stroke-width:1.0;"/><text fill="#000000" font-family="sans-serif" font-size="14" lengthAdjust="spacing" textLength="180" x="1205.5" y="378.9951">execute(form: Form): Item</text></g><!--class convert.ConvertCardDataToItem--><g id="elem_convert.ConvertCardDataToItem"><rect codeLine="76" fill="#F1F1F1" height="64.2969" id="convert.ConvertCardDataToItem" rx="2.5" ry="2.5" style="stroke:#181818;stroke-width:0.5;" width="202" x="1936" y="322"/><ellipse cx="1952.8" cy="338" fill="#ADD1B2" rx="11" ry="11" style="stroke:#181818;stroke-width:1.0;"/><path d="M1955.7688,343.6406 Q1955.1906,343.9375 1954.55,344.0781 Q1953.9094,344.2344 1953.2063,344.2344 Q1950.7063,344.2344 1949.3781,342.5938 Q1948.0656,340.9375 1948.0656,337.8125 Q1948.0656,334.6875 1949.3781,333.0313 Q1950.7063,331.375 1953.2063,331.375 Q1953.9094,331.375 1954.55,331.5313 Q1955.2063,331.6875 1955.7688,331.9844 L1955.7688,334.7031 Q1955.1438,334.125 1954.55,333.8594 Q1953.9563,333.5781 1953.3313,333.5781 Q1951.9875,333.5781 1951.3,334.6563 Q1950.6125,335.7188 1950.6125,337.8125 Q1950.6125,339.9063 1951.3,340.9844 Q1951.9875,342.0469 1953.3313,342.0469 Q1953.9563,342.0469 1954.55,341.7813 Q1955.1438,341.5 1955.7688,340.9219 L1955.7688,343.6406 Z " fill="#000000"/><text fill="#000000" font-family="sans-serif" font-size="14" lengthAdjust="spacing" textLength="166" x="1967.2" y="342.8467">ConvertCardDataToItem</text><line style="stroke:#181818;stroke-width:0.5;" x1="1937" x2="2137" y1="354" y2="354"/><line style="stroke:#181818;stroke-width:0.5;" x1="1937" x2="2137" y1="362" y2="362"/><ellipse cx="1947" cy="375.6484" fill="#84BE84" rx="3" ry="3" style="stroke:#038048;stroke-width:1.0;"/><text fill="#000000" font-family="sans-serif" font-size="14" lengthAdjust="spacing" textLength="176" x="1956" y="378.9951">execute(card: Card): Item</text></g><!--class Item--><g id="elem_Item"><rect codeLine="2" fill="#F1F1F1" height="96.8906" id="Item" rx="2.5" ry="2.5" style="stroke:#181818;stroke-width:0.5;" width="156" x="688" y="24.5"/><ellipse cx="746.75" cy="40.5" fill="#ADD1B2" rx="11" ry="11" style="stroke:#181818;stroke-width:1.0;"/><path d="M749.7188,46.1406 Q749.1406,46.4375 748.5,46.5781 Q747.8594,46.7344 747.1563,46.7344 Q744.6563,46.7344 743.3281,45.0938 Q742.0156,43.4375 742.0156,40.3125 Q742.0156,37.1875 743.3281,35.5313 Q744.6563,33.875 747.1563,33.875 Q747.8594,33.875 748.5,34.0313 Q749.1563,34.1875 749.7188,34.4844 L749.7188,37.2031 Q749.0938,36.625 748.5,36.3594 Q747.9063,36.0781 747.2813,36.0781 Q745.9375,36.0781 745.25,37.1563 Q744.5625,38.2188 744.5625,40.3125 Q744.5625,42.4063 745.25,43.4844 Q745.9375,44.5469 747.2813,44.5469 Q747.9063,44.5469 748.5,44.2813 Q749.0938,44 749.7188,43.4219 L749.7188,46.1406 Z " fill="#000000"/><text fill="#000000" font-family="sans-serif" font-size="14" lengthAdjust="spacing" textLength="30" x="767.25" y="45.3467">Item</text><line style="stroke:#181818;stroke-width:0.5;" x1="689" x2="843" y1="56.5" y2="56.5"/><ellipse cx="699" cy="70.1484" fill="none" rx="3" ry="3" style="stroke:#038048;stroke-width:1.0;"/><text fill="#000000" font-family="sans-serif" font-size="14" lengthAdjust="spacing" textLength="73" x="708" y="73.4951">title: string</text><ellipse cx="699" cy="86.4453" fill="none" rx="3" ry="3" style="stroke:#038048;stroke-width:1.0;"/><text fill="#000000" font-family="sans-serif" font-size="14" lengthAdjust="spacing" textLength="130" x="708" y="89.792">complete: boolean</text><ellipse cx="699" cy="102.7422" fill="none" rx="3" ry="3" style="stroke:#038048;stroke-width:1.0;"/><text fill="#000000" font-family="sans-serif" font-size="14" lengthAdjust="spacing" textLength="75" x="708" y="106.0889">id: number</text><line style="stroke:#181818;stroke-width:0.5;" x1="689" x2="843" y1="113.3906" y2="113.3906"/></g><!--class ItemList--><g id="elem_ItemList"><rect codeLine="7" fill="#F1F1F1" height="64.2969" id="ItemList" rx="2.5" ry="2.5" style="stroke:#181818;stroke-width:0.5;" width="139" x="2213.5" y="181.5"/><ellipse cx="2252.8" cy="197.5" fill="#ADD1B2" rx="11" ry="11" style="stroke:#181818;stroke-width:1.0;"/><path d="M2255.7688,203.1406 Q2255.1906,203.4375 2254.55,203.5781 Q2253.9094,203.7344 2253.2063,203.7344 Q2250.7063,203.7344 2249.3781,202.0938 Q2248.0656,200.4375 2248.0656,197.3125 Q2248.0656,194.1875 2249.3781,192.5313 Q2250.7063,190.875 2253.2063,190.875 Q2253.9094,190.875 2254.55,191.0313 Q2255.2063,191.1875 2255.7688,191.4844 L2255.7688,194.2031 Q2255.1438,193.625 2254.55,193.3594 Q2253.9563,193.0781 2253.3313,193.0781 Q2251.9875,193.0781 2251.3,194.1563 Q2250.6125,195.2188 2250.6125,197.3125 Q2250.6125,199.4063 2251.3,200.4844 Q2251.9875,201.5469 2253.3313,201.5469 Q2253.9563,201.5469 2254.55,201.2813 Q2255.1438,201 2255.7688,200.4219 L2255.7688,203.1406 Z " fill="#000000"/><text fill="#000000" font-family="sans-serif" font-size="14" lengthAdjust="spacing" textLength="53" x="2272.2" y="202.3467">ItemList</text><line style="stroke:#181818;stroke-width:0.5;" x1="2214.5" x2="2351.5" y1="213.5" y2="213.5"/><ellipse cx="2224.5" cy="227.1484" fill="none" rx="3" ry="3" style="stroke:#038048;stroke-width:1.0;"/><text fill="#000000" font-family="sans-serif" font-size="14" lengthAdjust="spacing" textLength="113" x="2233.5" y="230.4951">dataArray: Item[]</text><line style="stroke:#181818;stroke-width:0.5;" x1="2214.5" x2="2351.5" y1="237.7969" y2="237.7969"/></g><!--class DataManager--><g id="elem_DataManager"><rect codeLine="25" fill="#F1F1F1" height="80.5938" id="DataManager" rx="2.5" ry="2.5" style="stroke:#181818;stroke-width:0.5;" width="220" x="2173" y="313.5"/><ellipse cx="2232.75" cy="329.5" fill="#ADD1B2" rx="11" ry="11" style="stroke:#181818;stroke-width:1.0;"/><path d="M2235.7188,335.1406 Q2235.1406,335.4375 2234.5,335.5781 Q2233.8594,335.7344 2233.1563,335.7344 Q2230.6563,335.7344 2229.3281,334.0938 Q2228.0156,332.4375 2228.0156,329.3125 Q2228.0156,326.1875 2229.3281,324.5313 Q2230.6563,322.875 2233.1563,322.875 Q2233.8594,322.875 2234.5,323.0313 Q2235.1563,323.1875 2235.7188,323.4844 L2235.7188,326.2031 Q2235.0938,325.625 2234.5,325.3594 Q2233.9063,325.0781 2233.2813,325.0781 Q2231.9375,325.0781 2231.25,326.1563 Q2230.5625,327.2188 2230.5625,329.3125 Q2230.5625,331.4063 2231.25,332.4844 Q2231.9375,333.5469 2233.2813,333.5469 Q2233.9063,333.5469 2234.5,333.2813 Q2235.0938,333 2235.7188,332.4219 L2235.7188,335.1406 Z " fill="#000000"/><text fill="#000000" font-family="sans-serif" font-size="14" lengthAdjust="spacing" textLength="92" x="2253.25" y="334.3467">DataManager</text><line style="stroke:#181818;stroke-width:0.5;" x1="2174" x2="2392" y1="345.5" y2="345.5"/><line style="stroke:#181818;stroke-width:0.5;" x1="2174" x2="2392" y1="353.5" y2="353.5"/><ellipse cx="2184" cy="367.1484" fill="#84BE84" rx="3" ry="3" style="stroke:#038048;stroke-width:1.0;"/><text fill="#000000" font-family="sans-serif" font-size="14" lengthAdjust="spacing" textLength="194" x="2193" y="370.4951">save(itemList: ItemList): void</text><ellipse cx="2184" cy="383.4453" fill="#84BE84" rx="3" ry="3" style="stroke:#038048;stroke-width:1.0;"/><text fill="#000000" font-family="sans-serif" font-size="14" lengthAdjust="spacing" textLength="191" x="2193" y="386.792">load(itemList: ItemList): void</text></g><!--reverse link Item to itemListStatusController.Add--><g id="link_Item_itemListStatusController.Add"><path codeLine="93" d="M835.92,124.7 C862.15,143.72 891.17,164.77 914.22,181.48 " fill="none" id="Item-backto-itemListStatusController.Add" style="stroke:#181818;stroke-width:1.0;"/><polygon fill="#181818" points="831.73,121.66,836.6667,130.1823,835.7774,124.5958,841.3639,123.7065,831.73,121.66" style="stroke:#181818;stroke-width:1.0;"/></g><!--reverse link Item to itemListStatusController.Delete--><g id="link_Item_itemListStatusController.Delete"><path codeLine="94" d="M696.45,124.7 C670.35,143.72 641.48,164.77 618.55,181.48 " fill="none" id="Item-backto-itemListStatusController.Delete" style="stroke:#181818;stroke-width:1.0;"/><polygon fill="#181818" points="700.61,121.66,690.9796,123.7226,696.5676,124.6026,695.6876,130.1906,700.61,121.66" style="stroke:#181818;stroke-width:1.0;"/></g><!--reverse link Item to itemListStatusController.ChangeComplete--><g id="link_Item_itemListStatusController.ChangeComplete"><path codeLine="95" d="M682.8,83.22 C605.1,92.98 486.37,110.84 386,138.5 C345.03,149.79 300.69,166.66 265.06,181.45 " fill="none" id="Item-backto-itemListStatusController.ChangeComplete" style="stroke:#181818;stroke-width:1.0;"/><polygon fill="#181818" points="687.85,82.59,678.4193,79.7505,682.8895,83.2172,679.4228,87.6873,687.85,82.59" style="stroke:#181818;stroke-width:1.0;"/></g><!--reverse link itemListStatusController.Add to itemListStatusController.ItemListStatusController--><g id="link_itemListStatusController.Add_itemListStatusController.ItemListStatusController"><path codeLine="98" d="M902.08,248.3 C874.18,265.48 839.81,286.64 809.29,305.43 " fill="none" id="itemListStatusController.Add-backto-itemListStatusController.ItemListStatusController" style="stroke:#181818;stroke-width:1.0;"/><polygon fill="#181818" points="906.51,245.58,896.7475,246.8811,902.2493,248.1965,900.9339,253.6983,906.51,245.58" style="stroke:#181818;stroke-width:1.0;"/></g><!--reverse link itemListStatusController.Delete to itemListStatusController.ItemListStatusController--><g id="link_itemListStatusController.Delete_itemListStatusController.ItemListStatusController"><path codeLine="99" d="M614.79,248.94 C634.01,266 657.51,286.87 678.42,305.43 " fill="none" id="itemListStatusController.Delete-backto-itemListStatusController.ItemListStatusController" style="stroke:#181818;stroke-width:1.0;"/><polygon fill="#181818" points="611.01,245.58,615.0962,254.5412,614.7533,248.8947,620.3998,248.5518,611.01,245.58" style="stroke:#181818;stroke-width:1.0;"/></g><!--reverse link itemListStatusController.ChangeComplete to itemListStatusController.ItemListStatusController--><g id="link_itemListStatusController.ChangeComplete_itemListStatusController.ItemListStatusController"><path codeLine="100" d="M320.76,246.94 C388.34,264.37 472.94,286.18 547.8,305.49 " fill="none" id="itemListStatusController.ChangeComplete-backto-itemListStatusController.ItemListStatusController" style="stroke:#181818;stroke-width:1.0;"/><polygon fill="#181818" points="315.51,245.58,323.2332,251.6917,320.3531,246.8229,325.2218,243.9428,315.51,245.58" style="stroke:#181818;stroke-width:1.0;"/></g><!--reverse link ItemList to itemListStatusController.ItemListStatusController--><g id="link_ItemList_itemListStatusController.ItemListStatusController"><path codeLine="103" d="M2208.2,216.01 C2028.63,220.25 1559.23,234.98 1170,279 C1106.11,286.23 1037.38,296.6 973.73,307.29 " fill="none" id="ItemList-backto-itemListStatusController.ItemListStatusController" style="stroke:#181818;stroke-width:1.0;"/><polygon fill="#181818" points="2213.42,215.89,2204.3202,212.1227,2208.4217,216.0185,2204.5258,220.12,2213.42,215.89" style="stroke:#181818;stroke-width:1.0;"/></g><!--reverse link ItemList to DataManager--><g id="link_ItemList_DataManager"><path codeLine="105" d="M2283,250.87 C2283,270.07 2283,293.66 2283,313.32 " fill="none" id="ItemList-backto-DataManager" style="stroke:#181818;stroke-width:1.0;"/><polygon fill="#181818" points="2283,245.58,2279,254.58,2283,250.58,2287,254.58,2283,245.58" style="stroke:#181818;stroke-width:1.0;"/></g><!--reverse link ItemList to render.RenderCardList--><g id="link_ItemList_render.RenderCardList"><path codeLine="106" d="M2357.39,244.37 C2374.2,250.53 2392.09,256.61 2409,261.5 C2509.22,290.46 2624.81,314.17 2712.21,330.19 " fill="none" id="ItemList-backto-render.RenderCardList" style="stroke:#181818;stroke-width:1.0;"/><polygon fill="#181818" points="2352.68,242.64,2359.7461,249.5007,2357.3727,244.3659,2362.5075,241.9924,2352.68,242.64" style="stroke:#181818;stroke-width:1.0;"/></g><!--reverse link dom.element.Form to convert.DataConverter--><g id="link_dom.element.Form_convert.DataConverter"><path codeLine="110" d="M3401.02,242.11 C3371.82,289.59 3304.86,385.53 3219,426.5 C3124.23,471.72 2478.17,499.77 2138.61,511.55 " fill="none" id="dom.element.Form-backto-convert.DataConverter" style="stroke:#181818;stroke-width:1.0;"/><polygon fill="#181818" points="3403.73,237.67,3395.6337,243.278,3401.1303,241.941,3402.4673,247.4376,3403.73,237.67" style="stroke:#181818;stroke-width:1.0;"/></g><!--reverse link dom.element.Trash to convert.DataConverter--><g id="link_dom.element.Trash_convert.DataConverter"><path codeLine="111" d="M3504.93,242.16 C3475.55,289.71 3408.22,385.77 3322,426.5 C3217.92,475.67 2500.3,502.29 2138.54,512.72 " fill="none" id="dom.element.Trash-backto-convert.DataConverter" style="stroke:#181818;stroke-width:1.0;"/><polygon fill="#181818" points="3507.65,237.71,3499.54,243.2983,3505.0399,241.9746,3506.3635,247.4745,3507.65,237.71" style="stroke:#181818;stroke-width:1.0;"/></g><!--reverse link dom.element.Complete to convert.DataConverter--><g id="link_dom.element.Complete_convert.DataConverter"><path codeLine="112" d="M3623.15,241.95 C3590.45,289.52 3515.87,386.07 3425,426.5 C3310.59,477.4 2521.51,503.52 2138.58,513.33 " fill="none" id="dom.element.Complete-backto-convert.DataConverter" style="stroke:#181818;stroke-width:1.0;"/><polygon fill="#181818" points="3626,237.78,3617.6217,242.9573,3623.1807,241.9093,3624.2287,247.4683,3626,237.78" style="stroke:#181818;stroke-width:1.0;"/></g><!--reverse link dom.element.Card to convert.DataConverter--><g id="link_dom.element.Card_convert.DataConverter"><path codeLine="113" d="M3299.64,242.06 C3269.79,289.46 3201.5,385.29 3115,426.5 C3029.35,467.3 2454.79,496.73 2138.65,510.05 " fill="none" id="dom.element.Card-backto-convert.DataConverter" style="stroke:#181818;stroke-width:1.0;"/><polygon fill="#181818" points="3302.41,237.63,3294.243,243.1346,3299.7562,241.8676,3301.0232,247.3807,3302.41,237.63" style="stroke:#181818;stroke-width:1.0;"/></g><!--reverse link dom.element.Category to render.RenderCardList--><g id="link_dom.element.Category_render.RenderCardList"><path codeLine="114" d="M3157.88,240.16 C3144.35,247.53 3129.27,255.25 3115,261.5 C3073.14,279.83 3026.35,296.94 2983.78,311.3 " fill="none" id="dom.element.Category-backto-render.RenderCardList" style="stroke:#181818;stroke-width:1.0;"/><polygon fill="#181818" points="3162.41,237.68,3152.5967,238.5161,3158.0298,240.0912,3156.4547,245.5244,3162.41,237.68" style="stroke:#181818;stroke-width:1.0;"/></g><!--reverse link dom.event.RegisterFormEvent to dom.element.Form--><g id="link_dom.event.RegisterFormEvent_dom.element.Form"><path codeLine="117" d="M3417,110.29 C3417,135.27 3417,167.72 3417,189.28 " fill="none" id="dom.event.RegisterFormEvent-backto-dom.element.Form" style="stroke:#181818;stroke-width:1.0;"/><polygon fill="#181818" points="3417,105.08,3413,114.08,3417,110.08,3421,114.08,3417,105.08" style="stroke:#181818;stroke-width:1.0;"/></g><!--reverse link dom.event.RegisterTrashEvent to dom.element.Trash--><g id="link_dom.event.RegisterTrashEvent_dom.element.Trash"><path codeLine="118" d="M3606.5,108.54 C3595.34,117.73 3583.82,128.04 3574,138.5 C3559.29,154.17 3545.25,174.07 3535.32,189.29 " fill="none" id="dom.event.RegisterTrashEvent-backto-dom.element.Trash" style="stroke:#181818;stroke-width:1.0;"/><polygon fill="#181818" points="3610.59,105.2,3601.0873,107.788,3606.7151,108.36,3606.1432,113.9878,3610.59,105.2" style="stroke:#181818;stroke-width:1.0;"/></g><!--reverse link dom.event.RegisterCompleteEvent to dom.element.Complete--><g id="link_dom.event.RegisterCompleteEvent_dom.element.Complete"><path codeLine="119" d="M3855.08,107.36 C3803.35,132.77 3733.48,167.08 3687.84,189.5 " fill="none" id="dom.event.RegisterCompleteEvent-backto-dom.element.Complete" style="stroke:#181818;stroke-width:1.0;"/><polygon fill="#181818" points="3859.71,105.08,3849.8691,105.4769,3855.2265,107.2932,3853.4103,112.6505,3859.71,105.08" style="stroke:#181818;stroke-width:1.0;"/></g><!--reverse link dom.event.RegisterCategoryEvent to dom.element.Category--><g id="link_dom.event.RegisterCategoryEvent_dom.element.Category"><path codeLine="120" d="M3008.39,106.78 C3029.23,114.65 3051.79,122.61 3073,129 C3091.33,134.52 3097.88,129.94 3115,138.5 C3140.36,151.18 3164.54,172.78 3180.94,189.39 " fill="none" id="dom.event.RegisterCategoryEvent-backto-dom.element.Category" style="stroke:#181818;stroke-width:1.0;"/><polygon fill="#181818" points="3003.69,105,3010.687,111.9312,3008.3652,106.7728,3013.5235,104.451,3003.69,105" style="stroke:#181818;stroke-width:1.0;"/></g><!--reverse link dom.event.RegisterCardEvent to dom.element.Card--><g id="link_dom.event.RegisterCardEvent_dom.element.Card"><path codeLine="121" d="M3234.76,108.52 C3245.93,117.65 3257.37,127.93 3267,138.5 C3281.11,154 3294.06,173.91 3303.09,189.18 " fill="none" id="dom.event.RegisterCardEvent-backto-dom.element.Card" style="stroke:#181818;stroke-width:1.0;"/><polygon fill="#181818" points="3230.65,105.21,3235.1516,113.9699,3234.5445,108.3457,3240.1687,107.7386,3230.65,105.21" style="stroke:#181818;stroke-width:1.0;"/></g><!--reverse link convert.ConvertFormDataToItem to convert.DataConverter--><g id="link_convert.ConvertFormDataToItem_convert.DataConverter"><path codeLine="125" d="M1609.15,388.7 C1630.07,401.46 1654.71,415.53 1678,426.5 C1705.15,439.29 1734.6,451.43 1763.5,462.43 " fill="none" id="convert.ConvertFormDataToItem-backto-convert.DataConverter" style="stroke:#181818;stroke-width:1.0;"/><polygon fill="#181818" points="1604.74,386,1610.3283,394.11,1609.0046,388.6101,1614.5045,387.2865,1604.74,386" style="stroke:#181818;stroke-width:1.0;"/></g><!--reverse link convert.ConvertTrashDataToItem to convert.DataConverter--><g id="link_convert.ConvertTrashDataToItem_convert.DataConverter"><path codeLine="126" d="M1826.69,390.17 C1843.86,411.21 1866.07,438.42 1885.57,462.33 " fill="none" id="convert.ConvertTrashDataToItem-backto-convert.DataConverter" style="stroke:#181818;stroke-width:1.0;"/><polygon fill="#181818" points="1823.33,386.04,1825.9009,395.5474,1826.483,389.9206,1832.1098,390.5027,1823.33,386.04" style="stroke:#181818;stroke-width:1.0;"/></g><!--reverse link convert.ConvertCompleteDataToItem to convert.DataConverter--><g id="link_convert.ConvertCompleteDataToItem_convert.DataConverter"><path codeLine="127" d="M1356.36,388.65 C1380.33,402.19 1409.29,416.85 1437,426.5 C1528.53,458.38 1633.69,479.82 1723.38,493.88 " fill="none" id="convert.ConvertCompleteDataToItem-backto-convert.DataConverter" style="stroke:#181818;stroke-width:1.0;"/><polygon fill="#181818" points="1351.95,386.14,1357.774,394.0823,1356.2895,388.6238,1361.748,387.1392,1351.95,386.14" style="stroke:#181818;stroke-width:1.0;"/></g><!--reverse link convert.ConvertCardDataToItem to convert.DataConverter--><g id="link_convert.ConvertCardDataToItem_convert.DataConverter"><path codeLine="128" d="M2013.96,390.43 C2000.3,411.43 1982.69,438.52 1967.21,462.33 " fill="none" id="convert.ConvertCardDataToItem-backto-convert.DataConverter" style="stroke:#181818;stroke-width:1.0;"/><polygon fill="#181818" points="2016.81,386.04,2008.5443,391.3951,2014.0795,390.2286,2015.2461,395.7639,2016.81,386.04" style="stroke:#181818;stroke-width:1.0;"/></g><!--reverse link render.AllRender to render.RenderCardList--><g id="link_render.AllRender_render.RenderCardList"><path codeLine="132" d="M2848,243.06 C2848,261 2848,284.58 2848,305.3 " fill="none" id="render.AllRender-backto-render.RenderCardList" style="stroke:#181818;stroke-width:1.0;"/><polygon fill="#181818" points="2848,237.68,2844,246.68,2848,242.68,2852,246.68,2848,237.68" style="stroke:#181818;stroke-width:1.0;"/></g><!--reverse link render.CompleteRender to render.RenderCardList--><g id="link_render.CompleteRender_render.RenderCardList"><path codeLine="133" d="M2719.42,241 C2740.27,259.16 2768.53,283.78 2793.24,305.3 " fill="none" id="render.CompleteRender-backto-render.RenderCardList" style="stroke:#181818;stroke-width:1.0;"/><polygon fill="#181818" points="2715.61,237.68,2719.7684,246.6079,2719.38,240.9644,2725.0235,240.576,2715.61,237.68" style="stroke:#181818;stroke-width:1.0;"/></g><!--reverse link render.UncompleteRender to render.RenderCardList--><g id="link_render.UncompleteRender_render.RenderCardList"><path codeLine="134" d="M2983.86,241 C2961.82,259.16 2931.97,283.78 2905.86,305.3 " fill="none" id="render.UncompleteRender-backto-render.RenderCardList" style="stroke:#181818;stroke-width:1.0;"/><polygon fill="#181818" points="2987.88,237.68,2978.3936,240.3272,2984.0249,240.864,2983.488,246.4954,2987.88,237.68" style="stroke:#181818;stroke-width:1.0;"/></g><!--reverse link Item to render.RenderDetailCard--><g id="link_Item_render.RenderDetailCard"><path codeLine="135" d="M849.37,75.07 C1157.74,79.36 2223.45,97.06 2370,138.5 C2407.16,149.01 2445.17,171.85 2470.8,189.39 " fill="none" id="Item-backto-render.RenderDetailCard" style="stroke:#181818;stroke-width:1.0;"/><polygon fill="#181818" points="844,75,852.9537,79.1026,848.9997,75.0571,853.0451,71.1031,844,75" style="stroke:#181818;stroke-width:1.0;"/></g><!--reverse link itemListStatusController.Delete to convert.ConvertFormDataToItem--><g id="link_itemListStatusController.Delete_convert.ConvertFormDataToItem"><path codeLine="138" d="M689.83,246.75 C715.05,252.71 741.78,258.11 767,261.5 C840.69,271.41 1364.69,257.91 1436,279 C1465.75,287.8 1495.53,305.86 1518.1,321.94 " fill="none" id="itemListStatusController.Delete-backto-convert.ConvertFormDataToItem" style="stroke:#181818;stroke-width:1.0;"/><polygon fill="#181818" points="684.81,245.56,692.6419,251.5317,689.6746,246.7155,694.4908,243.7482,684.81,245.56" style="stroke:#181818;stroke-width:1.0;"/></g><!--reverse link itemListStatusController.Add to convert.ConvertTrashDataToItem--><g id="link_itemListStatusController.Add_convert.ConvertTrashDataToItem"><path codeLine="139" d="M1135.34,221.08 C1315.57,229.41 1580.89,246.72 1678,279 C1706.8,288.57 1735.86,306.23 1758.16,321.9 " fill="none" id="itemListStatusController.Add-backto-convert.ConvertTrashDataToItem" style="stroke:#181818;stroke-width:1.0;"/><polygon fill="#181818" points="1130.3,220.85,1139.1079,225.2568,1135.2948,221.0783,1139.4733,217.2652,1130.3,220.85" style="stroke:#181818;stroke-width:1.0;"/></g><!--reverse link itemListStatusController.ChangeComplete to convert.ConvertCompleteDataToItem--><g id="link_itemListStatusController.ChangeComplete_convert.ConvertCompleteDataToItem"><path codeLine="140" d="M308.59,246.76 C333.87,252.73 360.69,258.14 386,261.5 C553.46,283.76 981.63,240 1146,279 C1182.75,287.72 1221.11,305.78 1250.6,321.88 " fill="none" id="itemListStatusController.ChangeComplete-backto-convert.ConvertCompleteDataToItem" style="stroke:#181818;stroke-width:1.0;"/><polygon fill="#181818" points="303.55,245.56,311.3819,251.5317,308.4146,246.7155,313.2308,243.7482,303.55,245.56" style="stroke:#181818;stroke-width:1.0;"/></g><!--reverse link render.RenderDetailCard to convert.ConvertCardDataToItem--><g id="link_render.RenderDetailCard_convert.ConvertCardDataToItem"><path codeLine="141" d="M2442.65,239.34 C2420.26,247.72 2394.31,256.27 2370,261.5 C2276.7,281.56 2246.62,249.08 2156,279 C2127.35,288.46 2098.54,306.12 2076.44,321.81 " fill="none" id="render.RenderDetailCard-backto-convert.ConvertCardDataToItem" style="stroke:#181818;stroke-width:1.0;"/><polygon fill="#181818" points="2447.38,237.56,2437.5465,237.011,2442.7048,239.3328,2440.383,244.4912,2447.38,237.56" style="stroke:#181818;stroke-width:1.0;"/></g><!--SRC=[jLRBRjim4BphAtHCqSOV8FHYo2qGeBsawQdeWHPPHoX51XHjD33oxoMN3_4boN7QN29pPqUxGt9M7KNZMDz9CfohMlszhsKlAMdgKOgU7UnQnuSdIgHQtdDE2M9slSTDpOx3deZgfUeyrPT-b8uE8ucsGg3d1a8_VdfaRv7V99B7iULC2auf4PkxcO2ZH1Xho8qcCAmVF5dZ2tWtFRfIYExXgjJk4R43fBPM2bFSAuXMszvYx3eaVqXtbEHVik-W-V_uWXOaSlAyvKNsJJjrShuYXWxJpe_ePAYoz1FliGLHZl02o3KY2CEgx7luroA1mrEBA5rzZxiKgy0Zkm3goi9ysAYj6WYJcyzS3ETIu46WyR4OyVeNWqYI0nVFCq61prvyY9pq-Zqvg3A9qCLyqYj-CuxxePStlzHwK-lerCei2HGUiN3MqhxxVIDrfAa1KDGaud5j5gacjtAm2mYjD6L26rI4zkaIGe5do0JMH09dUdMSdOYG6ttoM_CydNqRr4Bh-0C78ulKroin6kGCu8dAUO9JBCWfobd8L1s5MM6RWCxQR4iTfSQHDpZ7a_HwFL6kmHku8bLIdWMHjfGQQoevwRA5kFglpV_k_UfQ1fEt8nBr57nbTXe4Tq3_h3_UtjQB8_8Ic9brbo3ZeLLL30raV48TcKqnhQX2W7dkKmL0fenrN5p4CbxfvB-F0FdghoWZjCyFfcmSACx7AfGec1wraKNV24WkEXb0u9QkO28f5c2gg5M8yUk5ZbxIZYRJpaOVqAGJEe9E0ox3GYW2HrCim_jJ6QM4SofFiT4anKwY0bp0pPi4i4gUxJOK_DaVcdJBIXwy3CvzTWKVUMa16xKY0k_oPWf9oG48JzmoAZN6ETp6rvSQeIvnnRQY4rtSWch97qlfoQvK5zfXYIhViogwLbEhnUne1_y2]--></g></svg>