<?xml version="1.0" encoding="UTF-8" standalone="no"?><svg xmlns="http://www.w3.org/2000/svg" xmlns:xlink="http://www.w3.org/1999/xlink" contentStyleType="text/css" height="532px" preserveAspectRatio="none" style="width:3442px;height:532px;background:#FFFFFF;" version="1.1" viewBox="0 0 3442 532" width="3442px" zoomAndPan="magnify"><defs/><g><!--class Item--><g id="elem_Item"><rect codeLine="2" fill="#F1F1F1" height="48" id="Item" rx="2.5" ry="2.5" style="stroke:#181818;stroke-width:0.5;" width="62" x="721" y="15"/><ellipse cx="736" cy="31" fill="#ADD1B2" rx="11" ry="11" style="stroke:#181818;stroke-width:1.0;"/><path d="M738.9688,36.6406 Q738.3906,36.9375 737.75,37.0781 Q737.1094,37.2344 736.4063,37.2344 Q733.9063,37.2344 732.5781,35.5938 Q731.2656,33.9375 731.2656,30.8125 Q731.2656,27.6875 732.5781,26.0313 Q733.9063,24.375 736.4063,24.375 Q737.1094,24.375 737.75,24.5313 Q738.4063,24.6875 738.9688,24.9844 L738.9688,27.7031 Q738.3438,27.125 737.75,26.8594 Q737.1563,26.5781 736.5313,26.5781 Q735.1875,26.5781 734.5,27.6563 Q733.8125,28.7188 733.8125,30.8125 Q733.8125,32.9063 734.5,33.9844 Q735.1875,35.0469 736.5313,35.0469 Q737.1563,35.0469 737.75,34.7813 Q738.3438,34.5 738.9688,33.9219 L738.9688,36.6406 Z " fill="#000000"/><text fill="#000000" font-family="sans-serif" font-size="14" lengthAdjust="spacing" textLength="30" x="750" y="35.8467">Item</text><line style="stroke:#181818;stroke-width:0.5;" x1="722" x2="782" y1="47" y2="47"/><line style="stroke:#181818;stroke-width:0.5;" x1="722" x2="782" y1="55" y2="55"/></g><!--class ItemList--><g id="elem_ItemList"><rect codeLine="3" fill="#F1F1F1" height="48" id="ItemList" rx="2.5" ry="2.5" style="stroke:#181818;stroke-width:0.5;" width="85" x="1383.5" y="139"/><ellipse cx="1398.5" cy="155" fill="#ADD1B2" rx="11" ry="11" style="stroke:#181818;stroke-width:1.0;"/><path d="M1401.4688,160.6406 Q1400.8906,160.9375 1400.25,161.0781 Q1399.6094,161.2344 1398.9063,161.2344 Q1396.4063,161.2344 1395.0781,159.5938 Q1393.7656,157.9375 1393.7656,154.8125 Q1393.7656,151.6875 1395.0781,150.0313 Q1396.4063,148.375 1398.9063,148.375 Q1399.6094,148.375 1400.25,148.5313 Q1400.9063,148.6875 1401.4688,148.9844 L1401.4688,151.7031 Q1400.8438,151.125 1400.25,150.8594 Q1399.6563,150.5781 1399.0313,150.5781 Q1397.6875,150.5781 1397,151.6563 Q1396.3125,152.7188 1396.3125,154.8125 Q1396.3125,156.9063 1397,157.9844 Q1397.6875,159.0469 1399.0313,159.0469 Q1399.6563,159.0469 1400.25,158.7813 Q1400.8438,158.5 1401.4688,157.9219 L1401.4688,160.6406 Z " fill="#000000"/><text fill="#000000" font-family="sans-serif" font-size="14" lengthAdjust="spacing" textLength="53" x="1412.5" y="159.8467">ItemList</text><line style="stroke:#181818;stroke-width:0.5;" x1="1384.5" x2="1467.5" y1="171" y2="171"/><line style="stroke:#181818;stroke-width:0.5;" x1="1384.5" x2="1467.5" y1="179" y2="179"/></g><!--class ItemListStatusController--><g id="elem_ItemListStatusController"><rect codeLine="4" fill="#F1F1F1" height="96.8906" id="ItemListStatusController" rx="2.5" ry="2.5" style="stroke:#181818;stroke-width:0.5;" width="483" x="604.5" y="255"/><ellipse cx="759.75" cy="271" fill="#ADD1B2" rx="11" ry="11" style="stroke:#181818;stroke-width:1.0;"/><path d="M762.7188,276.6406 Q762.1406,276.9375 761.5,277.0781 Q760.8594,277.2344 760.1563,277.2344 Q757.6563,277.2344 756.3281,275.5938 Q755.0156,273.9375 755.0156,270.8125 Q755.0156,267.6875 756.3281,266.0313 Q757.6563,264.375 760.1563,264.375 Q760.8594,264.375 761.5,264.5313 Q762.1563,264.6875 762.7188,264.9844 L762.7188,267.7031 Q762.0938,267.125 761.5,266.8594 Q760.9063,266.5781 760.2813,266.5781 Q758.9375,266.5781 758.25,267.6563 Q757.5625,268.7188 757.5625,270.8125 Q757.5625,272.9063 758.25,273.9844 Q758.9375,275.0469 760.2813,275.0469 Q760.9063,275.0469 761.5,274.7813 Q762.0938,274.5 762.7188,273.9219 L762.7188,276.6406 Z " fill="#000000"/><text fill="#000000" font-family="sans-serif" font-size="14" lengthAdjust="spacing" textLength="164" x="780.25" y="275.8467">ItemListStatusController</text><line style="stroke:#181818;stroke-width:0.5;" x1="605.5" x2="1086.5" y1="287" y2="287"/><line style="stroke:#181818;stroke-width:0.5;" x1="605.5" x2="1086.5" y1="295" y2="295"/><ellipse cx="615.5" cy="308.6484" fill="#84BE84" rx="3" ry="3" style="stroke:#038048;stroke-width:1.0;"/><text fill="#000000" font-family="sans-serif" font-size="14" lengthAdjust="spacing" textLength="320" x="624.5" y="311.9951">addItem(item: Item, itemList: ItemList): ItemList</text><ellipse cx="615.5" cy="324.9453" fill="#84BE84" rx="3" ry="3" style="stroke:#038048;stroke-width:1.0;"/><text fill="#000000" font-family="sans-serif" font-size="14" lengthAdjust="spacing" textLength="338" x="624.5" y="328.292">deleteItem(item: Item, itemList: ItemList): ItemList</text><ellipse cx="615.5" cy="341.2422" fill="#84BE84" rx="3" ry="3" style="stroke:#038048;stroke-width:1.0;"/><text fill="#000000" font-family="sans-serif" font-size="14" lengthAdjust="spacing" textLength="457" x="624.5" y="344.5889">changeItemCompleteStatus(item: Item, itemList: ItemList): ItemList</text></g><!--class Add--><g id="elem_Add"><rect codeLine="9" fill="#F1F1F1" height="64.2969" id="Add" rx="2.5" ry="2.5" style="stroke:#181818;stroke-width:0.5;" width="346" x="7" y="131"/><ellipse cx="162.25" cy="147" fill="#ADD1B2" rx="11" ry="11" style="stroke:#181818;stroke-width:1.0;"/><path d="M165.2188,152.6406 Q164.6406,152.9375 164,153.0781 Q163.3594,153.2344 162.6563,153.2344 Q160.1563,153.2344 158.8281,151.5938 Q157.5156,149.9375 157.5156,146.8125 Q157.5156,143.6875 158.8281,142.0313 Q160.1563,140.375 162.6563,140.375 Q163.3594,140.375 164,140.5313 Q164.6563,140.6875 165.2188,140.9844 L165.2188,143.7031 Q164.5938,143.125 164,142.8594 Q163.4063,142.5781 162.7813,142.5781 Q161.4375,142.5781 160.75,143.6563 Q160.0625,144.7188 160.0625,146.8125 Q160.0625,148.9063 160.75,149.9844 Q161.4375,151.0469 162.7813,151.0469 Q163.4063,151.0469 164,150.7813 Q164.5938,150.5 165.2188,149.9219 L165.2188,152.6406 Z " fill="#000000"/><text fill="#000000" font-family="sans-serif" font-size="14" lengthAdjust="spacing" textLength="27" x="182.75" y="151.8467">Add</text><line style="stroke:#181818;stroke-width:0.5;" x1="8" x2="352" y1="163" y2="163"/><line style="stroke:#181818;stroke-width:0.5;" x1="8" x2="352" y1="171" y2="171"/><ellipse cx="18" cy="184.6484" fill="#84BE84" rx="3" ry="3" style="stroke:#038048;stroke-width:1.0;"/><text fill="#000000" font-family="sans-serif" font-size="14" lengthAdjust="spacing" textLength="320" x="27" y="187.9951">execute(item: Item, itemList: ItemList): ItemList</text></g><!--class Delete--><g id="elem_Delete"><rect codeLine="12" fill="#F1F1F1" height="64.2969" id="Delete" rx="2.5" ry="2.5" style="stroke:#181818;stroke-width:0.5;" width="346" x="388" y="131"/><ellipse cx="533.75" cy="147" fill="#ADD1B2" rx="11" ry="11" style="stroke:#181818;stroke-width:1.0;"/><path d="M536.7188,152.6406 Q536.1406,152.9375 535.5,153.0781 Q534.8594,153.2344 534.1563,153.2344 Q531.6563,153.2344 530.3281,151.5938 Q529.0156,149.9375 529.0156,146.8125 Q529.0156,143.6875 530.3281,142.0313 Q531.6563,140.375 534.1563,140.375 Q534.8594,140.375 535.5,140.5313 Q536.1563,140.6875 536.7188,140.9844 L536.7188,143.7031 Q536.0938,143.125 535.5,142.8594 Q534.9063,142.5781 534.2813,142.5781 Q532.9375,142.5781 532.25,143.6563 Q531.5625,144.7188 531.5625,146.8125 Q531.5625,148.9063 532.25,149.9844 Q532.9375,151.0469 534.2813,151.0469 Q534.9063,151.0469 535.5,150.7813 Q536.0938,150.5 536.7188,149.9219 L536.7188,152.6406 Z " fill="#000000"/><text fill="#000000" font-family="sans-serif" font-size="14" lengthAdjust="spacing" textLength="46" x="554.25" y="151.8467">Delete</text><line style="stroke:#181818;stroke-width:0.5;" x1="389" x2="733" y1="163" y2="163"/><line style="stroke:#181818;stroke-width:0.5;" x1="389" x2="733" y1="171" y2="171"/><ellipse cx="399" cy="184.6484" fill="#84BE84" rx="3" ry="3" style="stroke:#038048;stroke-width:1.0;"/><text fill="#000000" font-family="sans-serif" font-size="14" lengthAdjust="spacing" textLength="320" x="408" y="187.9951">execute(item: Item, itemList: ItemList): ItemList</text></g><!--class ChangeComplete--><g id="elem_ChangeComplete"><rect codeLine="15" fill="#F1F1F1" height="64.2969" id="ChangeComplete" rx="2.5" ry="2.5" style="stroke:#181818;stroke-width:0.5;" width="346" x="769" y="131"/><ellipse cx="877.25" cy="147" fill="#ADD1B2" rx="11" ry="11" style="stroke:#181818;stroke-width:1.0;"/><path d="M880.2188,152.6406 Q879.6406,152.9375 879,153.0781 Q878.3594,153.2344 877.6563,153.2344 Q875.1563,153.2344 873.8281,151.5938 Q872.5156,149.9375 872.5156,146.8125 Q872.5156,143.6875 873.8281,142.0313 Q875.1563,140.375 877.6563,140.375 Q878.3594,140.375 879,140.5313 Q879.6563,140.6875 880.2188,140.9844 L880.2188,143.7031 Q879.5938,143.125 879,142.8594 Q878.4063,142.5781 877.7813,142.5781 Q876.4375,142.5781 875.75,143.6563 Q875.0625,144.7188 875.0625,146.8125 Q875.0625,148.9063 875.75,149.9844 Q876.4375,151.0469 877.7813,151.0469 Q878.4063,151.0469 879,150.7813 Q879.5938,150.5 880.2188,149.9219 L880.2188,152.6406 Z " fill="#000000"/><text fill="#000000" font-family="sans-serif" font-size="14" lengthAdjust="spacing" textLength="121" x="897.75" y="151.8467">ChangeComplete</text><line style="stroke:#181818;stroke-width:0.5;" x1="770" x2="1114" y1="163" y2="163"/><line style="stroke:#181818;stroke-width:0.5;" x1="770" x2="1114" y1="171" y2="171"/><ellipse cx="780" cy="184.6484" fill="#84BE84" rx="3" ry="3" style="stroke:#038048;stroke-width:1.0;"/><text fill="#000000" font-family="sans-serif" font-size="14" lengthAdjust="spacing" textLength="320" x="789" y="187.9951">execute(item: Item, itemList: ItemList): ItemList</text></g><!--class DataManager--><g id="elem_DataManager"><rect codeLine="21" fill="#F1F1F1" height="80.5938" id="DataManager" rx="2.5" ry="2.5" style="stroke:#181818;stroke-width:0.5;" width="220" x="1628" y="263"/><ellipse cx="1687.75" cy="279" fill="#ADD1B2" rx="11" ry="11" style="stroke:#181818;stroke-width:1.0;"/><path d="M1690.7188,284.6406 Q1690.1406,284.9375 1689.5,285.0781 Q1688.8594,285.2344 1688.1563,285.2344 Q1685.6563,285.2344 1684.3281,283.5938 Q1683.0156,281.9375 1683.0156,278.8125 Q1683.0156,275.6875 1684.3281,274.0313 Q1685.6563,272.375 1688.1563,272.375 Q1688.8594,272.375 1689.5,272.5313 Q1690.1563,272.6875 1690.7188,272.9844 L1690.7188,275.7031 Q1690.0938,275.125 1689.5,274.8594 Q1688.9063,274.5781 1688.2813,274.5781 Q1686.9375,274.5781 1686.25,275.6563 Q1685.5625,276.7188 1685.5625,278.8125 Q1685.5625,280.9063 1686.25,281.9844 Q1686.9375,283.0469 1688.2813,283.0469 Q1688.9063,283.0469 1689.5,282.7813 Q1690.0938,282.5 1690.7188,281.9219 L1690.7188,284.6406 Z " fill="#000000"/><text fill="#000000" font-family="sans-serif" font-size="14" lengthAdjust="spacing" textLength="92" x="1708.25" y="283.8467">DataManager</text><line style="stroke:#181818;stroke-width:0.5;" x1="1629" x2="1847" y1="295" y2="295"/><line style="stroke:#181818;stroke-width:0.5;" x1="1629" x2="1847" y1="303" y2="303"/><ellipse cx="1639" cy="316.6484" fill="#84BE84" rx="3" ry="3" style="stroke:#038048;stroke-width:1.0;"/><text fill="#000000" font-family="sans-serif" font-size="14" lengthAdjust="spacing" textLength="194" x="1648" y="319.9951">save(itemList: ItemList): void</text><ellipse cx="1639" cy="332.9453" fill="#84BE84" rx="3" ry="3" style="stroke:#038048;stroke-width:1.0;"/><text fill="#000000" font-family="sans-serif" font-size="14" lengthAdjust="spacing" textLength="191" x="1648" y="336.292">load(itemList: ItemList): void</text></g><!--class RenderCardList--><g id="elem_RenderCardList"><rect codeLine="25" fill="#F1F1F1" height="96.8906" id="RenderCardList" rx="2.5" ry="2.5" style="stroke:#181818;stroke-width:0.5;" width="271" x="1883.5" y="255"/><ellipse cx="1961.75" cy="271" fill="#ADD1B2" rx="11" ry="11" style="stroke:#181818;stroke-width:1.0;"/><path d="M1964.7188,276.6406 Q1964.1406,276.9375 1963.5,277.0781 Q1962.8594,277.2344 1962.1563,277.2344 Q1959.6563,277.2344 1958.3281,275.5938 Q1957.0156,273.9375 1957.0156,270.8125 Q1957.0156,267.6875 1958.3281,266.0313 Q1959.6563,264.375 1962.1563,264.375 Q1962.8594,264.375 1963.5,264.5313 Q1964.1563,264.6875 1964.7188,264.9844 L1964.7188,267.7031 Q1964.0938,267.125 1963.5,266.8594 Q1962.9063,266.5781 1962.2813,266.5781 Q1960.9375,266.5781 1960.25,267.6563 Q1959.5625,268.7188 1959.5625,270.8125 Q1959.5625,272.9063 1960.25,273.9844 Q1960.9375,275.0469 1962.2813,275.0469 Q1962.9063,275.0469 1963.5,274.7813 Q1964.0938,274.5 1964.7188,273.9219 L1964.7188,276.6406 Z " fill="#000000"/><text fill="#000000" font-family="sans-serif" font-size="14" lengthAdjust="spacing" textLength="106" x="1982.25" y="275.8467">RenderCardList</text><line style="stroke:#181818;stroke-width:0.5;" x1="1884.5" x2="2153.5" y1="287" y2="287"/><line style="stroke:#181818;stroke-width:0.5;" x1="1884.5" x2="2153.5" y1="295" y2="295"/><ellipse cx="1894.5" cy="308.6484" fill="#84BE84" rx="3" ry="3" style="stroke:#038048;stroke-width:1.0;"/><text fill="#000000" font-family="sans-serif" font-size="14" lengthAdjust="spacing" textLength="176" x="1903.5" y="311.9951">all(itemList: ItemList): void</text><ellipse cx="1894.5" cy="324.9453" fill="#84BE84" rx="3" ry="3" style="stroke:#038048;stroke-width:1.0;"/><text fill="#000000" font-family="sans-serif" font-size="14" lengthAdjust="spacing" textLength="227" x="1903.5" y="328.292">complete(itemList: ItemList): void</text><ellipse cx="1894.5" cy="341.2422" fill="#84BE84" rx="3" ry="3" style="stroke:#038048;stroke-width:1.0;"/><text fill="#000000" font-family="sans-serif" font-size="14" lengthAdjust="spacing" textLength="245" x="1903.5" y="344.5889">uncomplete(itemList: ItemList): void</text></g><!--class Form--><g id="elem_Form"><rect codeLine="30" fill="#F1F1F1" height="48" id="Form" rx="2.5" ry="2.5" style="stroke:#181818;stroke-width:0.5;" width="67" x="2361.5" y="279.5"/><ellipse cx="2376.5" cy="295.5" fill="#ADD1B2" rx="11" ry="11" style="stroke:#181818;stroke-width:1.0;"/><path d="M2379.4688,301.1406 Q2378.8906,301.4375 2378.25,301.5781 Q2377.6094,301.7344 2376.9063,301.7344 Q2374.4063,301.7344 2373.0781,300.0938 Q2371.7656,298.4375 2371.7656,295.3125 Q2371.7656,292.1875 2373.0781,290.5313 Q2374.4063,288.875 2376.9063,288.875 Q2377.6094,288.875 2378.25,289.0313 Q2378.9063,289.1875 2379.4688,289.4844 L2379.4688,292.2031 Q2378.8438,291.625 2378.25,291.3594 Q2377.6563,291.0781 2377.0313,291.0781 Q2375.6875,291.0781 2375,292.1563 Q2374.3125,293.2188 2374.3125,295.3125 Q2374.3125,297.4063 2375,298.4844 Q2375.6875,299.5469 2377.0313,299.5469 Q2377.6563,299.5469 2378.25,299.2813 Q2378.8438,299 2379.4688,298.4219 L2379.4688,301.1406 Z " fill="#000000"/><text fill="#000000" font-family="sans-serif" font-size="14" lengthAdjust="spacing" textLength="35" x="2390.5" y="300.3467">Form</text><line style="stroke:#181818;stroke-width:0.5;" x1="2362.5" x2="2427.5" y1="311.5" y2="311.5"/><line style="stroke:#181818;stroke-width:0.5;" x1="2362.5" x2="2427.5" y1="319.5" y2="319.5"/></g><!--class Trash--><g id="elem_Trash"><rect codeLine="31" fill="#F1F1F1" height="48" id="Trash" rx="2.5" ry="2.5" style="stroke:#181818;stroke-width:0.5;" width="71" x="2615.5" y="279.5"/><ellipse cx="2630.5" cy="295.5" fill="#ADD1B2" rx="11" ry="11" style="stroke:#181818;stroke-width:1.0;"/><path d="M2633.4688,301.1406 Q2632.8906,301.4375 2632.25,301.5781 Q2631.6094,301.7344 2630.9063,301.7344 Q2628.4063,301.7344 2627.0781,300.0938 Q2625.7656,298.4375 2625.7656,295.3125 Q2625.7656,292.1875 2627.0781,290.5313 Q2628.4063,288.875 2630.9063,288.875 Q2631.6094,288.875 2632.25,289.0313 Q2632.9063,289.1875 2633.4688,289.4844 L2633.4688,292.2031 Q2632.8438,291.625 2632.25,291.3594 Q2631.6563,291.0781 2631.0313,291.0781 Q2629.6875,291.0781 2629,292.1563 Q2628.3125,293.2188 2628.3125,295.3125 Q2628.3125,297.4063 2629,298.4844 Q2629.6875,299.5469 2631.0313,299.5469 Q2631.6563,299.5469 2632.25,299.2813 Q2632.8438,299 2633.4688,298.4219 L2633.4688,301.1406 Z " fill="#000000"/><text fill="#000000" font-family="sans-serif" font-size="14" lengthAdjust="spacing" textLength="39" x="2644.5" y="300.3467">Trash</text><line style="stroke:#181818;stroke-width:0.5;" x1="2616.5" x2="2685.5" y1="311.5" y2="311.5"/><line style="stroke:#181818;stroke-width:0.5;" x1="2616.5" x2="2685.5" y1="319.5" y2="319.5"/></g><!--class Complete--><g id="elem_Complete"><rect codeLine="32" fill="#F1F1F1" height="48" id="Complete" rx="2.5" ry="2.5" style="stroke:#181818;stroke-width:0.5;" width="99" x="2872.5" y="279.5"/><ellipse cx="2887.5" cy="295.5" fill="#ADD1B2" rx="11" ry="11" style="stroke:#181818;stroke-width:1.0;"/><path d="M2890.4688,301.1406 Q2889.8906,301.4375 2889.25,301.5781 Q2888.6094,301.7344 2887.9063,301.7344 Q2885.4063,301.7344 2884.0781,300.0938 Q2882.7656,298.4375 2882.7656,295.3125 Q2882.7656,292.1875 2884.0781,290.5313 Q2885.4063,288.875 2887.9063,288.875 Q2888.6094,288.875 2889.25,289.0313 Q2889.9063,289.1875 2890.4688,289.4844 L2890.4688,292.2031 Q2889.8438,291.625 2889.25,291.3594 Q2888.6563,291.0781 2888.0313,291.0781 Q2886.6875,291.0781 2886,292.1563 Q2885.3125,293.2188 2885.3125,295.3125 Q2885.3125,297.4063 2886,298.4844 Q2886.6875,299.5469 2888.0313,299.5469 Q2888.6563,299.5469 2889.25,299.2813 Q2889.8438,299 2890.4688,298.4219 L2890.4688,301.1406 Z " fill="#000000"/><text fill="#000000" font-family="sans-serif" font-size="14" lengthAdjust="spacing" textLength="67" x="2901.5" y="300.3467">Complete</text><line style="stroke:#181818;stroke-width:0.5;" x1="2873.5" x2="2970.5" y1="311.5" y2="311.5"/><line style="stroke:#181818;stroke-width:0.5;" x1="2873.5" x2="2970.5" y1="319.5" y2="319.5"/></g><!--class Category--><g id="elem_Category"><rect codeLine="33" fill="#F1F1F1" height="48" id="Category" rx="2.5" ry="2.5" style="stroke:#181818;stroke-width:0.5;" width="94" x="1504" y="139"/><ellipse cx="1519" cy="155" fill="#ADD1B2" rx="11" ry="11" style="stroke:#181818;stroke-width:1.0;"/><path d="M1521.9688,160.6406 Q1521.3906,160.9375 1520.75,161.0781 Q1520.1094,161.2344 1519.4063,161.2344 Q1516.9063,161.2344 1515.5781,159.5938 Q1514.2656,157.9375 1514.2656,154.8125 Q1514.2656,151.6875 1515.5781,150.0313 Q1516.9063,148.375 1519.4063,148.375 Q1520.1094,148.375 1520.75,148.5313 Q1521.4063,148.6875 1521.9688,148.9844 L1521.9688,151.7031 Q1521.3438,151.125 1520.75,150.8594 Q1520.1563,150.5781 1519.5313,150.5781 Q1518.1875,150.5781 1517.5,151.6563 Q1516.8125,152.7188 1516.8125,154.8125 Q1516.8125,156.9063 1517.5,157.9844 Q1518.1875,159.0469 1519.5313,159.0469 Q1520.1563,159.0469 1520.75,158.7813 Q1521.3438,158.5 1521.9688,157.9219 L1521.9688,160.6406 Z " fill="#000000"/><text fill="#000000" font-family="sans-serif" font-size="14" lengthAdjust="spacing" textLength="62" x="1533" y="159.8467">Category</text><line style="stroke:#181818;stroke-width:0.5;" x1="1505" x2="1597" y1="171" y2="171"/><line style="stroke:#181818;stroke-width:0.5;" x1="1505" x2="1597" y1="179" y2="179"/></g><!--class Card--><g id="elem_Card"><rect codeLine="34" fill="#F1F1F1" height="48" id="Card" rx="2.5" ry="2.5" style="stroke:#181818;stroke-width:0.5;" width="64" x="3156" y="279.5"/><ellipse cx="3171" cy="295.5" fill="#ADD1B2" rx="11" ry="11" style="stroke:#181818;stroke-width:1.0;"/><path d="M3173.9688,301.1406 Q3173.3906,301.4375 3172.75,301.5781 Q3172.1094,301.7344 3171.4063,301.7344 Q3168.9063,301.7344 3167.5781,300.0938 Q3166.2656,298.4375 3166.2656,295.3125 Q3166.2656,292.1875 3167.5781,290.5313 Q3168.9063,288.875 3171.4063,288.875 Q3172.1094,288.875 3172.75,289.0313 Q3173.4063,289.1875 3173.9688,289.4844 L3173.9688,292.2031 Q3173.3438,291.625 3172.75,291.3594 Q3172.1563,291.0781 3171.5313,291.0781 Q3170.1875,291.0781 3169.5,292.1563 Q3168.8125,293.2188 3168.8125,295.3125 Q3168.8125,297.4063 3169.5,298.4844 Q3170.1875,299.5469 3171.5313,299.5469 Q3172.1563,299.5469 3172.75,299.2813 Q3173.3438,299 3173.9688,298.4219 L3173.9688,301.1406 Z " fill="#000000"/><text fill="#000000" font-family="sans-serif" font-size="14" lengthAdjust="spacing" textLength="32" x="3185" y="300.3467">Card</text><line style="stroke:#181818;stroke-width:0.5;" x1="3157" x2="3219" y1="311.5" y2="311.5"/><line style="stroke:#181818;stroke-width:0.5;" x1="3157" x2="3219" y1="319.5" y2="319.5"/></g><!--class DataConverter--><g id="elem_DataConverter"><rect codeLine="36" fill="#F1F1F1" height="113.1875" id="DataConverter" rx="2.5" ry="2.5" style="stroke:#181818;stroke-width:0.5;" width="415" x="1649.5" y="412"/><ellipse cx="1802.75" cy="428" fill="#ADD1B2" rx="11" ry="11" style="stroke:#181818;stroke-width:1.0;"/><path d="M1805.7188,433.6406 Q1805.1406,433.9375 1804.5,434.0781 Q1803.8594,434.2344 1803.1563,434.2344 Q1800.6563,434.2344 1799.3281,432.5938 Q1798.0156,430.9375 1798.0156,427.8125 Q1798.0156,424.6875 1799.3281,423.0313 Q1800.6563,421.375 1803.1563,421.375 Q1803.8594,421.375 1804.5,421.5313 Q1805.1563,421.6875 1805.7188,421.9844 L1805.7188,424.7031 Q1805.0938,424.125 1804.5,423.8594 Q1803.9063,423.5781 1803.2813,423.5781 Q1801.9375,423.5781 1801.25,424.6563 Q1800.5625,425.7188 1800.5625,427.8125 Q1800.5625,429.9063 1801.25,430.9844 Q1801.9375,432.0469 1803.2813,432.0469 Q1803.9063,432.0469 1804.5,431.7813 Q1805.0938,431.5 1805.7188,430.9219 L1805.7188,433.6406 Z " fill="#000000"/><text fill="#000000" font-family="sans-serif" font-size="14" lengthAdjust="spacing" textLength="100" x="1823.25" y="432.8467">DataConverter</text><line style="stroke:#181818;stroke-width:0.5;" x1="1650.5" x2="2063.5" y1="444" y2="444"/><line style="stroke:#181818;stroke-width:0.5;" x1="1650.5" x2="2063.5" y1="452" y2="452"/><ellipse cx="1660.5" cy="465.6484" fill="#84BE84" rx="3" ry="3" style="stroke:#038048;stroke-width:1.0;"/><text fill="#000000" font-family="sans-serif" font-size="14" lengthAdjust="spacing" textLength="291" x="1669.5" y="468.9951">convertFormDataToItem(form: Form): Item</text><ellipse cx="1660.5" cy="481.9453" fill="#84BE84" rx="3" ry="3" style="stroke:#038048;stroke-width:1.0;"/><text fill="#000000" font-family="sans-serif" font-size="14" lengthAdjust="spacing" textLength="303" x="1669.5" y="485.292">convertTrashDataToItem(trash: Trash): Item</text><ellipse cx="1660.5" cy="498.2422" fill="#84BE84" rx="3" ry="3" style="stroke:#038048;stroke-width:1.0;"/><text fill="#000000" font-family="sans-serif" font-size="14" lengthAdjust="spacing" textLength="389" x="1669.5" y="501.5889">convertCompleteDataToItem(complete: Complete): Item</text><ellipse cx="1660.5" cy="514.5391" fill="#84BE84" rx="3" ry="3" style="stroke:#038048;stroke-width:1.0;"/><text fill="#000000" font-family="sans-serif" font-size="14" lengthAdjust="spacing" textLength="284" x="1669.5" y="517.8857">convertCardDataToItem(card: Card): Item</text></g><!--class ConvertFormDataToItem--><g id="elem_ConvertFormDataToItem"><rect codeLine="43" fill="#F1F1F1" height="64.2969" id="ConvertFormDataToItem" rx="2.5" ry="2.5" style="stroke:#181818;stroke-width:0.5;" width="206" x="363" y="271.5"/><ellipse cx="380.25" cy="287.5" fill="#ADD1B2" rx="11" ry="11" style="stroke:#181818;stroke-width:1.0;"/><path d="M383.2188,293.1406 Q382.6406,293.4375 382,293.5781 Q381.3594,293.7344 380.6563,293.7344 Q378.1563,293.7344 376.8281,292.0938 Q375.5156,290.4375 375.5156,287.3125 Q375.5156,284.1875 376.8281,282.5313 Q378.1563,280.875 380.6563,280.875 Q381.3594,280.875 382,281.0313 Q382.6563,281.1875 383.2188,281.4844 L383.2188,284.2031 Q382.5938,283.625 382,283.3594 Q381.4063,283.0781 380.7813,283.0781 Q379.4375,283.0781 378.75,284.1563 Q378.0625,285.2188 378.0625,287.3125 Q378.0625,289.4063 378.75,290.4844 Q379.4375,291.5469 380.7813,291.5469 Q381.4063,291.5469 382,291.2813 Q382.5938,291 383.2188,290.4219 L383.2188,293.1406 Z " fill="#000000"/><text fill="#000000" font-family="sans-serif" font-size="14" lengthAdjust="spacing" textLength="169" x="394.75" y="292.3467">ConvertFormDataToItem</text><line style="stroke:#181818;stroke-width:0.5;" x1="364" x2="568" y1="303.5" y2="303.5"/><line style="stroke:#181818;stroke-width:0.5;" x1="364" x2="568" y1="311.5" y2="311.5"/><ellipse cx="374" cy="325.1484" fill="#84BE84" rx="3" ry="3" style="stroke:#038048;stroke-width:1.0;"/><text fill="#000000" font-family="sans-serif" font-size="14" lengthAdjust="spacing" textLength="180" x="383" y="328.4951">execute(form: Form): Item</text></g><!--class ConvertTrashDataToItem--><g id="elem_ConvertTrashDataToItem"><rect codeLine="47" fill="#F1F1F1" height="64.2969" id="ConvertTrashDataToItem" rx="2.5" ry="2.5" style="stroke:#181818;stroke-width:0.5;" width="206" x="107" y="271.5"/><ellipse cx="122.45" cy="287.5" fill="#ADD1B2" rx="11" ry="11" style="stroke:#181818;stroke-width:1.0;"/><path d="M125.4188,293.1406 Q124.8406,293.4375 124.2,293.5781 Q123.5594,293.7344 122.8563,293.7344 Q120.3563,293.7344 119.0281,292.0938 Q117.7156,290.4375 117.7156,287.3125 Q117.7156,284.1875 119.0281,282.5313 Q120.3563,280.875 122.8563,280.875 Q123.5594,280.875 124.2,281.0313 Q124.8563,281.1875 125.4188,281.4844 L125.4188,284.2031 Q124.7938,283.625 124.2,283.3594 Q123.6063,283.0781 122.9813,283.0781 Q121.6375,283.0781 120.95,284.1563 Q120.2625,285.2188 120.2625,287.3125 Q120.2625,289.4063 120.95,290.4844 Q121.6375,291.5469 122.9813,291.5469 Q123.6063,291.5469 124.2,291.2813 Q124.7938,291 125.4188,290.4219 L125.4188,293.1406 Z " fill="#000000"/><text fill="#000000" font-family="sans-serif" font-size="14" lengthAdjust="spacing" textLength="173" x="136.55" y="292.3467">ConvertTrashDataToItem</text><line style="stroke:#181818;stroke-width:0.5;" x1="108" x2="312" y1="303.5" y2="303.5"/><line style="stroke:#181818;stroke-width:0.5;" x1="108" x2="312" y1="311.5" y2="311.5"/><ellipse cx="118" cy="325.1484" fill="#84BE84" rx="3" ry="3" style="stroke:#038048;stroke-width:1.0;"/><text fill="#000000" font-family="sans-serif" font-size="14" lengthAdjust="spacing" textLength="180" x="127" y="328.4951">execute(form: Form): Item</text></g><!--class ConvertCompleteDataToItem--><g id="elem_ConvertCompleteDataToItem"><rect codeLine="51" fill="#F1F1F1" height="64.2969" id="ConvertCompleteDataToItem" rx="2.5" ry="2.5" style="stroke:#181818;stroke-width:0.5;" width="233" x="1122.5" y="271.5"/><ellipse cx="1137.5" cy="287.5" fill="#ADD1B2" rx="11" ry="11" style="stroke:#181818;stroke-width:1.0;"/><path d="M1140.4688,293.1406 Q1139.8906,293.4375 1139.25,293.5781 Q1138.6094,293.7344 1137.9063,293.7344 Q1135.4063,293.7344 1134.0781,292.0938 Q1132.7656,290.4375 1132.7656,287.3125 Q1132.7656,284.1875 1134.0781,282.5313 Q1135.4063,280.875 1137.9063,280.875 Q1138.6094,280.875 1139.25,281.0313 Q1139.9063,281.1875 1140.4688,281.4844 L1140.4688,284.2031 Q1139.8438,283.625 1139.25,283.3594 Q1138.6563,283.0781 1138.0313,283.0781 Q1136.6875,283.0781 1136,284.1563 Q1135.3125,285.2188 1135.3125,287.3125 Q1135.3125,289.4063 1136,290.4844 Q1136.6875,291.5469 1138.0313,291.5469 Q1138.6563,291.5469 1139.25,291.2813 Q1139.8438,291 1140.4688,290.4219 L1140.4688,293.1406 Z " fill="#000000"/><text fill="#000000" font-family="sans-serif" font-size="14" lengthAdjust="spacing" textLength="201" x="1151.5" y="292.3467">ConvertCompleteDataToItem</text><line style="stroke:#181818;stroke-width:0.5;" x1="1123.5" x2="1354.5" y1="303.5" y2="303.5"/><line style="stroke:#181818;stroke-width:0.5;" x1="1123.5" x2="1354.5" y1="311.5" y2="311.5"/><ellipse cx="1133.5" cy="325.1484" fill="#84BE84" rx="3" ry="3" style="stroke:#038048;stroke-width:1.0;"/><text fill="#000000" font-family="sans-serif" font-size="14" lengthAdjust="spacing" textLength="180" x="1142.5" y="328.4951">execute(form: Form): Item</text></g><!--class ConvertCardDataToItem--><g id="elem_ConvertCardDataToItem"><rect codeLine="55" fill="#F1F1F1" height="64.2969" id="ConvertCardDataToItem" rx="2.5" ry="2.5" style="stroke:#181818;stroke-width:0.5;" width="202" x="1391" y="271.5"/><ellipse cx="1407.8" cy="287.5" fill="#ADD1B2" rx="11" ry="11" style="stroke:#181818;stroke-width:1.0;"/><path d="M1410.7688,293.1406 Q1410.1906,293.4375 1409.55,293.5781 Q1408.9094,293.7344 1408.2063,293.7344 Q1405.7063,293.7344 1404.3781,292.0938 Q1403.0656,290.4375 1403.0656,287.3125 Q1403.0656,284.1875 1404.3781,282.5313 Q1405.7063,280.875 1408.2063,280.875 Q1408.9094,280.875 1409.55,281.0313 Q1410.2063,281.1875 1410.7688,281.4844 L1410.7688,284.2031 Q1410.1438,283.625 1409.55,283.3594 Q1408.9563,283.0781 1408.3313,283.0781 Q1406.9875,283.0781 1406.3,284.1563 Q1405.6125,285.2188 1405.6125,287.3125 Q1405.6125,289.4063 1406.3,290.4844 Q1406.9875,291.5469 1408.3313,291.5469 Q1408.9563,291.5469 1409.55,291.2813 Q1410.1438,291 1410.7688,290.4219 L1410.7688,293.1406 Z " fill="#000000"/><text fill="#000000" font-family="sans-serif" font-size="14" lengthAdjust="spacing" textLength="166" x="1422.2" y="292.3467">ConvertCardDataToItem</text><line style="stroke:#181818;stroke-width:0.5;" x1="1392" x2="1592" y1="303.5" y2="303.5"/><line style="stroke:#181818;stroke-width:0.5;" x1="1392" x2="1592" y1="311.5" y2="311.5"/><ellipse cx="1402" cy="325.1484" fill="#84BE84" rx="3" ry="3" style="stroke:#038048;stroke-width:1.0;"/><text fill="#000000" font-family="sans-serif" font-size="14" lengthAdjust="spacing" textLength="176" x="1411" y="328.4951">execute(card: Card): Item</text></g><!--class RegisterFormEvent--><g id="elem_RegisterFormEvent"><rect codeLine="59" fill="#F1F1F1" height="64.2969" id="RegisterFormEvent" rx="2.5" ry="2.5" style="stroke:#181818;stroke-width:0.5;" width="195" x="2470.5" y="131"/><ellipse cx="2499.45" cy="147" fill="#ADD1B2" rx="11" ry="11" style="stroke:#181818;stroke-width:1.0;"/><path d="M2502.4188,152.6406 Q2501.8406,152.9375 2501.2,153.0781 Q2500.5594,153.2344 2499.8563,153.2344 Q2497.3563,153.2344 2496.0281,151.5938 Q2494.7156,149.9375 2494.7156,146.8125 Q2494.7156,143.6875 2496.0281,142.0313 Q2497.3563,140.375 2499.8563,140.375 Q2500.5594,140.375 2501.2,140.5313 Q2501.8563,140.6875 2502.4188,140.9844 L2502.4188,143.7031 Q2501.7938,143.125 2501.2,142.8594 Q2500.6063,142.5781 2499.9813,142.5781 Q2498.6375,142.5781 2497.95,143.6563 Q2497.2625,144.7188 2497.2625,146.8125 Q2497.2625,148.9063 2497.95,149.9844 Q2498.6375,151.0469 2499.9813,151.0469 Q2500.6063,151.0469 2501.2,150.7813 Q2501.7938,150.5 2502.4188,149.9219 L2502.4188,152.6406 Z " fill="#000000"/><text fill="#000000" font-family="sans-serif" font-size="14" lengthAdjust="spacing" textLength="132" x="2516.55" y="151.8467">RegisterFormEvent</text><line style="stroke:#181818;stroke-width:0.5;" x1="2471.5" x2="2664.5" y1="163" y2="163"/><line style="stroke:#181818;stroke-width:0.5;" x1="2471.5" x2="2664.5" y1="171" y2="171"/><ellipse cx="2481.5" cy="184.6484" fill="#84BE84" rx="3" ry="3" style="stroke:#038048;stroke-width:1.0;"/><text fill="#000000" font-family="sans-serif" font-size="14" lengthAdjust="spacing" textLength="169" x="2490.5" y="187.9951">submit(form: Form): void</text></g><!--class RegisterTrashEvent--><g id="elem_RegisterTrashEvent"><rect codeLine="63" fill="#F1F1F1" height="64.2969" id="RegisterTrashEvent" rx="2.5" ry="2.5" style="stroke:#181818;stroke-width:0.5;" width="206" x="2701" y="131"/><ellipse cx="2733.1" cy="147" fill="#ADD1B2" rx="11" ry="11" style="stroke:#181818;stroke-width:1.0;"/><path d="M2736.0688,152.6406 Q2735.4906,152.9375 2734.85,153.0781 Q2734.2094,153.2344 2733.5063,153.2344 Q2731.0063,153.2344 2729.6781,151.5938 Q2728.3656,149.9375 2728.3656,146.8125 Q2728.3656,143.6875 2729.6781,142.0313 Q2731.0063,140.375 2733.5063,140.375 Q2734.2094,140.375 2734.85,140.5313 Q2735.5063,140.6875 2736.0688,140.9844 L2736.0688,143.7031 Q2735.4438,143.125 2734.85,142.8594 Q2734.2563,142.5781 2733.6313,142.5781 Q2732.2875,142.5781 2731.6,143.6563 Q2730.9125,144.7188 2730.9125,146.8125 Q2730.9125,148.9063 2731.6,149.9844 Q2732.2875,151.0469 2733.6313,151.0469 Q2734.2563,151.0469 2734.85,150.7813 Q2735.4438,150.5 2736.0688,149.9219 L2736.0688,152.6406 Z " fill="#000000"/><text fill="#000000" font-family="sans-serif" font-size="14" lengthAdjust="spacing" textLength="136" x="2750.9" y="151.8467">RegisterTrashEvent</text><line style="stroke:#181818;stroke-width:0.5;" x1="2702" x2="2906" y1="163" y2="163"/><line style="stroke:#181818;stroke-width:0.5;" x1="2702" x2="2906" y1="171" y2="171"/><ellipse cx="2712" cy="184.6484" fill="#84BE84" rx="3" ry="3" style="stroke:#038048;stroke-width:1.0;"/><text fill="#000000" font-family="sans-serif" font-size="14" lengthAdjust="spacing" textLength="180" x="2721" y="187.9951">onClick(trash: Trash): void</text></g><!--class RegisterCompleteEvent--><g id="elem_RegisterCompleteEvent"><rect codeLine="66" fill="#F1F1F1" height="64.2969" id="RegisterCompleteEvent" rx="2.5" ry="2.5" style="stroke:#181818;stroke-width:0.5;" width="264" x="2942" y="131"/><ellipse cx="2987.75" cy="147" fill="#ADD1B2" rx="11" ry="11" style="stroke:#181818;stroke-width:1.0;"/><path d="M2990.7188,152.6406 Q2990.1406,152.9375 2989.5,153.0781 Q2988.8594,153.2344 2988.1563,153.2344 Q2985.6563,153.2344 2984.3281,151.5938 Q2983.0156,149.9375 2983.0156,146.8125 Q2983.0156,143.6875 2984.3281,142.0313 Q2985.6563,140.375 2988.1563,140.375 Q2988.8594,140.375 2989.5,140.5313 Q2990.1563,140.6875 2990.7188,140.9844 L2990.7188,143.7031 Q2990.0938,143.125 2989.5,142.8594 Q2988.9063,142.5781 2988.2813,142.5781 Q2986.9375,142.5781 2986.25,143.6563 Q2985.5625,144.7188 2985.5625,146.8125 Q2985.5625,148.9063 2986.25,149.9844 Q2986.9375,151.0469 2988.2813,151.0469 Q2988.9063,151.0469 2989.5,150.7813 Q2990.0938,150.5 2990.7188,149.9219 L2990.7188,152.6406 Z " fill="#000000"/><text fill="#000000" font-family="sans-serif" font-size="14" lengthAdjust="spacing" textLength="164" x="3008.25" y="151.8467">RegisterCompleteEvent</text><line style="stroke:#181818;stroke-width:0.5;" x1="2943" x2="3205" y1="163" y2="163"/><line style="stroke:#181818;stroke-width:0.5;" x1="2943" x2="3205" y1="171" y2="171"/><ellipse cx="2953" cy="184.6484" fill="#84BE84" rx="3" ry="3" style="stroke:#038048;stroke-width:1.0;"/><text fill="#000000" font-family="sans-serif" font-size="14" lengthAdjust="spacing" textLength="238" x="2962" y="187.9951">onClick(complete: Complete): void</text></g><!--class RegisterCategoryEvent--><g id="elem_RegisterCategoryEvent"><rect codeLine="69" fill="#F1F1F1" height="64.2969" id="RegisterCategoryEvent" rx="2.5" ry="2.5" style="stroke:#181818;stroke-width:0.5;" width="254" x="1424" y="7"/><ellipse cx="1467.35" cy="23" fill="#ADD1B2" rx="11" ry="11" style="stroke:#181818;stroke-width:1.0;"/><path d="M1470.3188,28.6406 Q1469.7406,28.9375 1469.1,29.0781 Q1468.4594,29.2344 1467.7563,29.2344 Q1465.2563,29.2344 1463.9281,27.5938 Q1462.6156,25.9375 1462.6156,22.8125 Q1462.6156,19.6875 1463.9281,18.0313 Q1465.2563,16.375 1467.7563,16.375 Q1468.4594,16.375 1469.1,16.5313 Q1469.7563,16.6875 1470.3188,16.9844 L1470.3188,19.7031 Q1469.6938,19.125 1469.1,18.8594 Q1468.5063,18.5781 1467.8813,18.5781 Q1466.5375,18.5781 1465.85,19.6563 Q1465.1625,20.7188 1465.1625,22.8125 Q1465.1625,24.9063 1465.85,25.9844 Q1466.5375,27.0469 1467.8813,27.0469 Q1468.5063,27.0469 1469.1,26.7813 Q1469.6938,26.5 1470.3188,25.9219 L1470.3188,28.6406 Z " fill="#000000"/><text fill="#000000" font-family="sans-serif" font-size="14" lengthAdjust="spacing" textLength="159" x="1487.65" y="27.8467">RegisterCategoryEvent</text><line style="stroke:#181818;stroke-width:0.5;" x1="1425" x2="1677" y1="39" y2="39"/><line style="stroke:#181818;stroke-width:0.5;" x1="1425" x2="1677" y1="47" y2="47"/><ellipse cx="1435" cy="60.6484" fill="#84BE84" rx="3" ry="3" style="stroke:#038048;stroke-width:1.0;"/><text fill="#000000" font-family="sans-serif" font-size="14" lengthAdjust="spacing" textLength="228" x="1444" y="63.9951">onClick(category: Category): void</text></g><!--class RegisterCardEvent--><g id="elem_RegisterCardEvent"><rect codeLine="72" fill="#F1F1F1" height="64.2969" id="RegisterCardEvent" rx="2.5" ry="2.5" style="stroke:#181818;stroke-width:0.5;" width="194" x="3241" y="131"/><ellipse cx="3270.85" cy="147" fill="#ADD1B2" rx="11" ry="11" style="stroke:#181818;stroke-width:1.0;"/><path d="M3273.8188,152.6406 Q3273.2406,152.9375 3272.6,153.0781 Q3271.9594,153.2344 3271.2563,153.2344 Q3268.7563,153.2344 3267.4281,151.5938 Q3266.1156,149.9375 3266.1156,146.8125 Q3266.1156,143.6875 3267.4281,142.0313 Q3268.7563,140.375 3271.2563,140.375 Q3271.9594,140.375 3272.6,140.5313 Q3273.2563,140.6875 3273.8188,140.9844 L3273.8188,143.7031 Q3273.1938,143.125 3272.6,142.8594 Q3272.0063,142.5781 3271.3813,142.5781 Q3270.0375,142.5781 3269.35,143.6563 Q3268.6625,144.7188 3268.6625,146.8125 Q3268.6625,148.9063 3269.35,149.9844 Q3270.0375,151.0469 3271.3813,151.0469 Q3272.0063,151.0469 3272.6,150.7813 Q3273.1938,150.5 3273.8188,149.9219 L3273.8188,152.6406 Z " fill="#000000"/><text fill="#000000" font-family="sans-serif" font-size="14" lengthAdjust="spacing" textLength="129" x="3288.15" y="151.8467">RegisterCardEvent</text><line style="stroke:#181818;stroke-width:0.5;" x1="3242" x2="3434" y1="163" y2="163"/><line style="stroke:#181818;stroke-width:0.5;" x1="3242" x2="3434" y1="171" y2="171"/><ellipse cx="3252" cy="184.6484" fill="#84BE84" rx="3" ry="3" style="stroke:#038048;stroke-width:1.0;"/><text fill="#000000" font-family="sans-serif" font-size="14" lengthAdjust="spacing" textLength="168" x="3261" y="187.9951">onClick(card: Card): void</text></g><!--class AllRender--><g id="elem_AllRender"><rect codeLine="75" fill="#F1F1F1" height="64.2969" id="AllRender" rx="2.5" ry="2.5" style="stroke:#181818;stroke-width:0.5;" width="244" x="1633" y="131"/><ellipse cx="1717.75" cy="147" fill="#ADD1B2" rx="11" ry="11" style="stroke:#181818;stroke-width:1.0;"/><path d="M1720.7188,152.6406 Q1720.1406,152.9375 1719.5,153.0781 Q1718.8594,153.2344 1718.1563,153.2344 Q1715.6563,153.2344 1714.3281,151.5938 Q1713.0156,149.9375 1713.0156,146.8125 Q1713.0156,143.6875 1714.3281,142.0313 Q1715.6563,140.375 1718.1563,140.375 Q1718.8594,140.375 1719.5,140.5313 Q1720.1563,140.6875 1720.7188,140.9844 L1720.7188,143.7031 Q1720.0938,143.125 1719.5,142.8594 Q1718.9063,142.5781 1718.2813,142.5781 Q1716.9375,142.5781 1716.25,143.6563 Q1715.5625,144.7188 1715.5625,146.8125 Q1715.5625,148.9063 1716.25,149.9844 Q1716.9375,151.0469 1718.2813,151.0469 Q1718.9063,151.0469 1719.5,150.7813 Q1720.0938,150.5 1720.7188,149.9219 L1720.7188,152.6406 Z " fill="#000000"/><text fill="#000000" font-family="sans-serif" font-size="14" lengthAdjust="spacing" textLength="66" x="1738.25" y="151.8467">AllRender</text><line style="stroke:#181818;stroke-width:0.5;" x1="1634" x2="1876" y1="163" y2="163"/><line style="stroke:#181818;stroke-width:0.5;" x1="1634" x2="1876" y1="171" y2="171"/><ellipse cx="1644" cy="184.6484" fill="#84BE84" rx="3" ry="3" style="stroke:#038048;stroke-width:1.0;"/><text fill="#000000" font-family="sans-serif" font-size="14" lengthAdjust="spacing" textLength="218" x="1653" y="187.9951">execute(itemList: ItemList): void</text></g><!--class CompleteRender--><g id="elem_CompleteRender"><rect codeLine="78" fill="#F1F1F1" height="64.2969" id="CompleteRender" rx="2.5" ry="2.5" style="stroke:#181818;stroke-width:0.5;" width="244" x="1912" y="131"/><ellipse cx="1970.75" cy="147" fill="#ADD1B2" rx="11" ry="11" style="stroke:#181818;stroke-width:1.0;"/><path d="M1973.7188,152.6406 Q1973.1406,152.9375 1972.5,153.0781 Q1971.8594,153.2344 1971.1563,153.2344 Q1968.6563,153.2344 1967.3281,151.5938 Q1966.0156,149.9375 1966.0156,146.8125 Q1966.0156,143.6875 1967.3281,142.0313 Q1968.6563,140.375 1971.1563,140.375 Q1971.8594,140.375 1972.5,140.5313 Q1973.1563,140.6875 1973.7188,140.9844 L1973.7188,143.7031 Q1973.0938,143.125 1972.5,142.8594 Q1971.9063,142.5781 1971.2813,142.5781 Q1969.9375,142.5781 1969.25,143.6563 Q1968.5625,144.7188 1968.5625,146.8125 Q1968.5625,148.9063 1969.25,149.9844 Q1969.9375,151.0469 1971.2813,151.0469 Q1971.9063,151.0469 1972.5,150.7813 Q1973.0938,150.5 1973.7188,149.9219 L1973.7188,152.6406 Z " fill="#000000"/><text fill="#000000" font-family="sans-serif" font-size="14" lengthAdjust="spacing" textLength="118" x="1991.25" y="151.8467">CompleteRender</text><line style="stroke:#181818;stroke-width:0.5;" x1="1913" x2="2155" y1="163" y2="163"/><line style="stroke:#181818;stroke-width:0.5;" x1="1913" x2="2155" y1="171" y2="171"/><ellipse cx="1923" cy="184.6484" fill="#84BE84" rx="3" ry="3" style="stroke:#038048;stroke-width:1.0;"/><text fill="#000000" font-family="sans-serif" font-size="14" lengthAdjust="spacing" textLength="218" x="1932" y="187.9951">execute(itemList: ItemList): void</text></g><!--class UncompleteRender--><g id="elem_UncompleteRender"><rect codeLine="81" fill="#F1F1F1" height="64.2969" id="UncompleteRender" rx="2.5" ry="2.5" style="stroke:#181818;stroke-width:0.5;" width="244" x="2191" y="131"/><ellipse cx="2241.25" cy="147" fill="#ADD1B2" rx="11" ry="11" style="stroke:#181818;stroke-width:1.0;"/><path d="M2244.2188,152.6406 Q2243.6406,152.9375 2243,153.0781 Q2242.3594,153.2344 2241.6563,153.2344 Q2239.1563,153.2344 2237.8281,151.5938 Q2236.5156,149.9375 2236.5156,146.8125 Q2236.5156,143.6875 2237.8281,142.0313 Q2239.1563,140.375 2241.6563,140.375 Q2242.3594,140.375 2243,140.5313 Q2243.6563,140.6875 2244.2188,140.9844 L2244.2188,143.7031 Q2243.5938,143.125 2243,142.8594 Q2242.4063,142.5781 2241.7813,142.5781 Q2240.4375,142.5781 2239.75,143.6563 Q2239.0625,144.7188 2239.0625,146.8125 Q2239.0625,148.9063 2239.75,149.9844 Q2240.4375,151.0469 2241.7813,151.0469 Q2242.4063,151.0469 2243,150.7813 Q2243.5938,150.5 2244.2188,149.9219 L2244.2188,152.6406 Z " fill="#000000"/><text fill="#000000" font-family="sans-serif" font-size="14" lengthAdjust="spacing" textLength="135" x="2261.75" y="151.8467">UncompleteRender</text><line style="stroke:#181818;stroke-width:0.5;" x1="2192" x2="2434" y1="163" y2="163"/><line style="stroke:#181818;stroke-width:0.5;" x1="2192" x2="2434" y1="171" y2="171"/><ellipse cx="2202" cy="184.6484" fill="#84BE84" rx="3" ry="3" style="stroke:#038048;stroke-width:1.0;"/><text fill="#000000" font-family="sans-serif" font-size="14" lengthAdjust="spacing" textLength="218" x="2211" y="187.9951">execute(itemList: ItemList): void</text></g><!--class RenderDetailCard--><g id="elem_RenderDetailCard"><rect codeLine="84" fill="#F1F1F1" height="64.2969" id="RenderDetailCard" rx="2.5" ry="2.5" style="stroke:#181818;stroke-width:0.5;" width="198" x="1150" y="131"/><ellipse cx="1184.8" cy="147" fill="#ADD1B2" rx="11" ry="11" style="stroke:#181818;stroke-width:1.0;"/><path d="M1187.7688,152.6406 Q1187.1906,152.9375 1186.55,153.0781 Q1185.9094,153.2344 1185.2063,153.2344 Q1182.7063,153.2344 1181.3781,151.5938 Q1180.0656,149.9375 1180.0656,146.8125 Q1180.0656,143.6875 1181.3781,142.0313 Q1182.7063,140.375 1185.2063,140.375 Q1185.9094,140.375 1186.55,140.5313 Q1187.2063,140.6875 1187.7688,140.9844 L1187.7688,143.7031 Q1187.1438,143.125 1186.55,142.8594 Q1185.9563,142.5781 1185.3313,142.5781 Q1183.9875,142.5781 1183.3,143.6563 Q1182.6125,144.7188 1182.6125,146.8125 Q1182.6125,148.9063 1183.3,149.9844 Q1183.9875,151.0469 1185.3313,151.0469 Q1185.9563,151.0469 1186.55,150.7813 Q1187.1438,150.5 1187.7688,149.9219 L1187.7688,152.6406 Z " fill="#000000"/><text fill="#000000" font-family="sans-serif" font-size="14" lengthAdjust="spacing" textLength="122" x="1203.2" y="151.8467">RenderDetailCard</text><line style="stroke:#181818;stroke-width:0.5;" x1="1151" x2="1347" y1="163" y2="163"/><line style="stroke:#181818;stroke-width:0.5;" x1="1151" x2="1347" y1="171" y2="171"/><ellipse cx="1161" cy="184.6484" fill="#84BE84" rx="3" ry="3" style="stroke:#038048;stroke-width:1.0;"/><text fill="#000000" font-family="sans-serif" font-size="14" lengthAdjust="spacing" textLength="172" x="1170" y="187.9951">execute(item: Item): void</text></g><!--reverse link Item to Add--><g id="link_Item_Add"><path codeLine="88" d="M715.95,47.69 C639.29,64.04 456.44,103.04 325.66,130.93 " fill="none" id="Item-backto-Add" style="stroke:#181818;stroke-width:1.0;"/><polygon fill="#181818" points="720.84,46.65,711.2033,44.6169,715.9502,47.6937,712.8733,52.4406,720.84,46.65" style="stroke:#181818;stroke-width:1.0;"/></g><!--reverse link Item to Delete--><g id="link_Item_Delete"><path codeLine="89" d="M716.55,62.64 C686.46,81.86 642.99,109.63 609.65,130.92 " fill="none" id="Item-backto-Delete" style="stroke:#181818;stroke-width:1.0;"/><polygon fill="#181818" points="720.89,59.87,711.1541,61.3571,716.6799,62.5673,715.4697,68.0932,720.89,59.87" style="stroke:#181818;stroke-width:1.0;"/></g><!--reverse link Item to ChangeComplete--><g id="link_Item_ChangeComplete"><path codeLine="90" d="M787.68,62.91 C817.55,82.09 860.46,109.64 893.46,130.83 " fill="none" id="Item-backto-ChangeComplete" style="stroke:#181818;stroke-width:1.0;"/><polygon fill="#181818" points="783.37,60.15,788.7903,68.3732,787.5801,62.8473,793.1059,61.6371,783.37,60.15" style="stroke:#181818;stroke-width:1.0;"/></g><!--reverse link Add to ItemListStatusController--><g id="link_Add_ItemListStatusController"><path codeLine="92" d="M334.46,196.12 C418.53,213.6 524.15,235.57 617.56,254.99 " fill="none" id="Add-backto-ItemListStatusController" style="stroke:#181818;stroke-width:1.0;"/><polygon fill="#181818" points="329.46,195.08,337.4429,200.8483,334.3527,196.1101,339.091,193.0199,329.46,195.08" style="stroke:#181818;stroke-width:1.0;"/></g><!--reverse link Delete to ItemListStatusController--><g id="link_Delete_ItemListStatusController"><path codeLine="93" d="M629.69,197.38 C665.18,214.63 709.12,235.98 748.1,254.93 " fill="none" id="Delete-backto-ItemListStatusController" style="stroke:#181818;stroke-width:1.0;"/><polygon fill="#181818" points="624.96,195.08,631.308,202.6102,629.4575,197.2645,634.8032,195.4141,624.96,195.08" style="stroke:#181818;stroke-width:1.0;"/></g><!--reverse link ChangeComplete to ItemListStatusController--><g id="link_ChangeComplete_ItemListStatusController"><path codeLine="94" d="M917.53,199.3 C905.82,216.2 891.62,236.68 878.98,254.93 " fill="none" id="ChangeComplete-backto-ItemListStatusController" style="stroke:#181818;stroke-width:1.0;"/><polygon fill="#181818" points="920.46,195.08,912.041,200.1907,917.608,199.1868,918.6119,204.7539,920.46,195.08" style="stroke:#181818;stroke-width:1.0;"/></g><!--reverse link ItemList to DataManager--><g id="link_ItemList_DataManager"><path codeLine="96" d="M1473.39,188.46 C1477.97,190.71 1482.56,192.92 1487,195 C1537.56,218.65 1594.72,243.28 1641.7,263 " fill="none" id="ItemList-backto-DataManager" style="stroke:#181818;stroke-width:1.0;"/><polygon fill="#181818" points="1468.82,186.2,1475.1004,193.7866,1473.2978,188.4247,1478.6598,186.6221,1468.82,186.2" style="stroke:#181818;stroke-width:1.0;"/></g><!--reverse link ItemList to RenderCardList--><g id="link_ItemList_RenderCardList"><path codeLine="97" d="M1471.85,189.19 C1476.87,191.38 1481.98,193.37 1487,195 C1649.22,247.61 1699.91,216.28 1866,255 C1871.69,256.33 1877.47,257.75 1883.3,259.26 " fill="none" id="ItemList-backto-RenderCardList" style="stroke:#181818;stroke-width:1.0;"/><polygon fill="#181818" points="1467.26,187.13,1473.8449,194.4539,1471.8249,189.17,1477.1088,187.15,1467.26,187.13" style="stroke:#181818;stroke-width:1.0;"/></g><!--reverse link ItemList to ItemListStatusController--><g id="link_ItemList_ItemListStatusController"><path codeLine="98" d="M1380.3,189.21 C1375.54,191.35 1370.72,193.33 1366,195 C1338.38,204.78 1209.97,231.36 1087.67,255.64 " fill="none" id="ItemList-backto-ItemListStatusController" style="stroke:#181818;stroke-width:1.0;"/><polygon fill="#181818" points="1385.02,187.03,1375.1719,187.15,1380.476,189.1162,1378.5098,194.4204,1385.02,187.03" style="stroke:#181818;stroke-width:1.0;"/></g><!--reverse link Form to DataConverter--><g id="link_Form_DataConverter"><path codeLine="100" d="M2356.38,316.2 C2290.95,336.02 2154.32,377.42 2040.49,411.91 " fill="none" id="Form-backto-DataConverter" style="stroke:#181818;stroke-width:1.0;"/><polygon fill="#181818" points="2361.35,314.7,2351.5751,313.4949,2356.5668,316.1564,2353.9053,321.148,2361.35,314.7" style="stroke:#181818;stroke-width:1.0;"/></g><!--reverse link Trash to DataConverter--><g id="link_Trash_DataConverter"><path codeLine="101" d="M2610.25,314.37 C2568.95,324.28 2503.16,339.78 2446,352 C2319.64,379.02 2177.5,406.96 2064.52,428.59 " fill="none" id="Trash-backto-DataConverter" style="stroke:#181818;stroke-width:1.0;"/><polygon fill="#181818" points="2615.16,313.19,2605.473,311.4116,2610.2994,314.3623,2607.3487,319.1886,2615.16,313.19" style="stroke:#181818;stroke-width:1.0;"/></g><!--reverse link Complete to DataConverter--><g id="link_Complete_DataConverter"><path codeLine="102" d="M2867.44,317.64 C2823.49,327.92 2760.01,342.1 2704,352 C2486.98,390.38 2236.73,423.1 2064.83,443.81 " fill="none" id="Complete-backto-DataConverter" style="stroke:#181818;stroke-width:1.0;"/><polygon fill="#181818" points="2872.44,316.47,2862.7643,314.6314,2867.5722,317.612,2864.5915,322.4199,2872.44,316.47" style="stroke:#181818;stroke-width:1.0;"/></g><!--reverse link RegisterFormEvent to Form--><g id="link_RegisterFormEvent_Form"><path codeLine="104" d="M2524.99,198.44 C2493.39,223.73 2451.34,257.4 2423.74,279.5 " fill="none" id="RegisterFormEvent-backto-Form" style="stroke:#181818;stroke-width:1.0;"/><polygon fill="#181818" points="2529.18,195.08,2519.6568,197.5915,2525.2798,198.2087,2524.6627,203.8318,2529.18,195.08" style="stroke:#181818;stroke-width:1.0;"/></g><!--reverse link RegisterTrashEvent to Trash--><g id="link_RegisterTrashEvent_Trash"><path codeLine="105" d="M2765.63,198.74 C2737.82,223.91 2700.97,257.27 2676.65,279.28 " fill="none" id="RegisterTrashEvent-backto-Trash" style="stroke:#181818;stroke-width:1.0;"/><polygon fill="#181818" points="2769.66,195.08,2760.301,198.1474,2765.9506,198.4327,2765.6653,204.0824,2769.66,195.08" style="stroke:#181818;stroke-width:1.0;"/></g><!--reverse link RegisterCompleteEvent to Complete--><g id="link_RegisterCompleteEvent_Complete"><path codeLine="106" d="M3035.88,198.74 C3008.25,223.91 2971.64,257.27 2947.48,279.28 " fill="none" id="RegisterCompleteEvent-backto-Complete" style="stroke:#181818;stroke-width:1.0;"/><polygon fill="#181818" points="3039.89,195.08,3030.5494,198.2031,3036.2007,198.4547,3035.949,204.106,3039.89,195.08" style="stroke:#181818;stroke-width:1.0;"/></g><!--reverse link RegisterCategoryEvent to Category--><g id="link_RegisterCategoryEvent_Category"><path codeLine="107" d="M1551,76.14 C1551,96.36 1551,120.98 1551,138.66 " fill="none" id="RegisterCategoryEvent-backto-Category" style="stroke:#181818;stroke-width:1.0;"/><polygon fill="#181818" points="1551,71.1,1547,80.1,1551,76.1,1555,80.1,1551,71.1" style="stroke:#181818;stroke-width:1.0;"/></g><!--reverse link ConvertFormDataToItem to DataConverter--><g id="link_ConvertFormDataToItem_DataConverter"><path codeLine="109" d="M540.02,337.36 C555.3,343.06 571.48,348.33 587,352 C954.2,438.9 1395.39,461.29 1649.28,466.54 " fill="none" id="ConvertFormDataToItem-backto-DataConverter" style="stroke:#181818;stroke-width:1.0;"/><polygon fill="#181818" points="535.3,335.58,542.297,342.5112,539.9752,337.3528,545.1335,335.031,535.3,335.58" style="stroke:#181818;stroke-width:1.0;"/></g><!--reverse link ConvertTrashDataToItem to DataConverter--><g id="link_ConvertTrashDataToItem_DataConverter"><path codeLine="110" d="M292.64,337.19 C310.03,342.98 328.43,348.33 346,352 C589.04,402.83 1295.1,441.49 1649.28,458.3 " fill="none" id="ConvertTrashDataToItem-backto-DataConverter" style="stroke:#181818;stroke-width:1.0;"/><polygon fill="#181818" points="287.76,335.54,295.0092,342.207,292.4977,337.1383,297.5664,334.6267,287.76,335.54" style="stroke:#181818;stroke-width:1.0;"/></g><!--reverse link ConvertCompleteDataToItem to DataConverter--><g id="link_ConvertCompleteDataToItem_DataConverter"><path codeLine="111" d="M1327.58,337.13 C1342.97,342.38 1358.88,347.55 1374,352 C1463.42,378.35 1563.47,403.04 1649.22,422.78 " fill="none" id="ConvertCompleteDataToItem-backto-DataConverter" style="stroke:#181818;stroke-width:1.0;"/><polygon fill="#181818" points="1322.82,335.5,1330.0269,342.2127,1327.5475,337.1282,1332.632,334.6488,1322.82,335.5" style="stroke:#181818;stroke-width:1.0;"/></g><!--reverse link Delete to ConvertFormDataToItem--><g id="link_Delete_ConvertFormDataToItem"><path codeLine="113" d="M536.71,199.42 C521.54,221.52 502.2,249.73 487.58,271.04 " fill="none" id="Delete-backto-ConvertFormDataToItem" style="stroke:#181818;stroke-width:1.0;"/><polygon fill="#181818" points="539.68,195.08,531.2934,200.2438,536.854,199.2048,537.8931,204.7654,539.68,195.08" style="stroke:#181818;stroke-width:1.0;"/></g><!--reverse link Add to ConvertTrashDataToItem--><g id="link_Add_ConvertTrashDataToItem"><path codeLine="114" d="M187.79,199.97 C192.56,221.99 198.61,249.9 203.19,271.04 " fill="none" id="Add-backto-ConvertTrashDataToItem" style="stroke:#181818;stroke-width:1.0;"/><polygon fill="#181818" points="186.73,195.08,184.7238,204.7224,187.7874,199.9669,192.5429,203.0305,186.73,195.08" style="stroke:#181818;stroke-width:1.0;"/></g><!--reverse link ChangeComplete to ConvertCompleteDataToItem--><g id="link_ChangeComplete_ConvertCompleteDataToItem"><path codeLine="115" d="M1013.28,197.24 C1061.59,219.77 1125,249.34 1172.31,271.4 " fill="none" id="ChangeComplete-backto-ConvertCompleteDataToItem" style="stroke:#181818;stroke-width:1.0;"/><polygon fill="#181818" points="1008.65,195.08,1015.1128,202.5118,1013.1806,197.1952,1018.4972,195.2629,1008.65,195.08" style="stroke:#181818;stroke-width:1.0;"/></g><!--reverse link AllRender to RenderCardList--><g id="link_AllRender_RenderCardList"><path codeLine="117" d="M1819.03,197.59 C1851.84,214.8 1892.35,236.06 1928.32,254.93 " fill="none" id="AllRender-backto-RenderCardList" style="stroke:#181818;stroke-width:1.0;"/><polygon fill="#181818" points="1814.25,195.08,1820.3441,202.8171,1818.6724,197.4129,1824.0766,195.7412,1814.25,195.08" style="stroke:#181818;stroke-width:1.0;"/></g><!--reverse link CompleteRender to RenderCardList--><g id="link_CompleteRender_RenderCardList"><path codeLine="118" d="M2030.08,200.16 C2028.27,216.89 2026.1,236.99 2024.15,254.93 " fill="none" id="CompleteRender-backto-RenderCardList" style="stroke:#181818;stroke-width:1.0;"/><polygon fill="#181818" points="2030.63,195.08,2025.6767,203.5926,2030.0872,200.0505,2033.6294,204.461,2030.63,195.08" style="stroke:#181818;stroke-width:1.0;"/></g><!--reverse link UncompleteRender to RenderCardList--><g id="link_UncompleteRender_RenderCardList"><path codeLine="119" d="M2242.14,197.38 C2205.53,214.63 2160.2,235.98 2119.99,254.93 " fill="none" id="UncompleteRender-backto-RenderCardList" style="stroke:#181818;stroke-width:1.0;"/><polygon fill="#181818" points="2247.02,195.08,2237.1733,195.2884,2242.4949,197.2069,2240.5764,202.5285,2247.02,195.08" style="stroke:#181818;stroke-width:1.0;"/></g><!--reverse link Category to RenderCardList--><g id="link_Category_RenderCardList"><path codeLine="121" d="M1600.91,189.08 C1605.95,191.23 1611.04,193.24 1616,195 C1723.71,233.14 1755.82,224.71 1866,255 C1871.63,256.55 1877.37,258.16 1883.16,259.82 " fill="none" id="Category-backto-RenderCardList" style="stroke:#181818;stroke-width:1.0;"/><polygon fill="#181818" points="1596.3,187.08,1602.9777,194.3194,1600.8905,189.0616,1606.1483,186.9745,1596.3,187.08" style="stroke:#181818;stroke-width:1.0;"/></g><!--reverse link RegisterCardEvent to Card--><g id="link_RegisterCardEvent_Card"><path codeLine="122" d="M3300.38,198.74 C3273.11,223.91 3236.99,257.27 3213.15,279.28 " fill="none" id="RegisterCardEvent-backto-Card" style="stroke:#181818;stroke-width:1.0;"/><polygon fill="#181818" points="3304.34,195.08,3295.0121,198.2408,3300.6643,198.4696,3300.4355,204.1218,3304.34,195.08" style="stroke:#181818;stroke-width:1.0;"/></g><!--reverse link Card to DataConverter--><g id="link_Card_DataConverter"><path codeLine="123" d="M3150.67,314.98 C3110.91,325.77 3045.97,342.34 2989,352 C2668.61,406.34 2292.56,438.53 2064.67,454.61 " fill="none" id="Card-backto-DataConverter" style="stroke:#181818;stroke-width:1.0;"/><polygon fill="#181818" points="3155.87,313.56,3146.1354,312.0641,3151.0455,314.8732,3148.2365,319.7833,3155.87,313.56" style="stroke:#181818;stroke-width:1.0;"/></g><!--reverse link ConvertCardDataToItem to DataConverter--><g id="link_ConvertCardDataToItem_DataConverter"><path codeLine="124" d="M1566.09,337.59 C1613.91,358.94 1677.3,387.25 1732.7,411.99 " fill="none" id="ConvertCardDataToItem-backto-DataConverter" style="stroke:#181818;stroke-width:1.0;"/><polygon fill="#181818" points="1561.51,335.54,1568.0949,342.8639,1566.0749,337.58,1571.3588,335.56,1561.51,335.54" style="stroke:#181818;stroke-width:1.0;"/></g><!--reverse link RenderDetailCard to ConvertCardDataToItem--><g id="link_RenderDetailCard_ConvertCardDataToItem"><path codeLine="125" d="M1308.27,197.78 C1347.6,220.2 1398.85,249.41 1437.23,271.28 " fill="none" id="RenderDetailCard-backto-ConvertCardDataToItem" style="stroke:#181818;stroke-width:1.0;"/><polygon fill="#181818" points="1303.53,195.08,1309.3737,203.0079,1307.8756,197.553,1313.3305,196.0549,1303.53,195.08" style="stroke:#181818;stroke-width:1.0;"/></g><!--reverse link Item to RenderDetailCard--><g id="link_Item_RenderDetailCard"><path codeLine="126" d="M788.32,48.33 C856.17,63.98 1006.74,99.06 1133,131 C1138.46,132.38 1144.05,133.81 1149.7,135.28 " fill="none" id="Item-backto-RenderDetailCard" style="stroke:#181818;stroke-width:1.0;"/><polygon fill="#181818" points="783.18,47.15,791.045,53.078,788.051,48.2785,792.8506,45.2845,783.18,47.15" style="stroke:#181818;stroke-width:1.0;"/></g><!--SRC=[fLLBJiCm4Dtx55c2W0j4RAeK92JOb7804vismesHuqIWYhlZVs9dajAqYwXZptkUDvuPbmmtJVOawU7uYyfWF5UD72syIYpRfk2r59mnAeueKx-R31EYNQugzScDzsrMEKmUqDVzNuSZb5595q7BFQvt1bhmmvUciS6TGUJLhGZnGkWtBLj95v2iZPJBUGgZoskwX4_zN6XOuXTSurr_OGtkBDc8eECLSKwCOpBZv2FUq9fGKM11JCtuac3iv06bKtdIiQt_uUhZUUIYB-MjmCq-M26jOG5BkkFYPx0WY386cLFLtb4X-zoLTa4Ve_UttDJlXp9pSxQxXTZRn35mbzhERNWWm8SwmFWSv447Z5GIXYXbvaQNzmxo2aX9Md9ZOIa-qNO-mLZh0ev8TOgVISA6xbGHKQ797pfQXmfkslT39UEZNQ4bK9E02ClhWbNbPthDITzOj5SF4e1t3jEuKePft6OUAdwQHf09Ya4A8-YACJi3e6artwjUr5ByMnWCInaiRaqbhfXf_ic9ExX-RMRtTtVwwUWD-mJqTZpA4LBEPdtgDKMMODud9fttHNx7XjS_0_56FC3ZlMbktH61Dmn9P4eTM8yYZhVGg0MDaxRGkCNCdZ4Hs44szJxfO7TO5xU243W6GGdGk9js78yrIFpWqi50Gjd0nqC5CNc-ga7Vgz3Dnzq8UQJz1laWdrbeSpHct5q8WlHd9fdHV0VyqaQECX61-mvDCNy0]--></g></svg>
