<?xml version="1.0" encoding="UTF-8" standalone="no"?><svg xmlns="http://www.w3.org/2000/svg" xmlns:xlink="http://www.w3.org/1999/xlink" contentStyleType="text/css" height="392px" preserveAspectRatio="none" style="width:926px;height:392px;background:#FFFFFF;" version="1.1" viewBox="0 0 926 392" width="926px" zoomAndPan="magnify"><defs/><g><!--class Todo--><g id="elem_Todo"><rect codeLine="1" fill="#F1F1F1" height="96.8906" id="Todo" rx="2.5" ry="2.5" style="stroke:#181818;stroke-width:0.5;" width="165" x="199.5" y="7"/><ellipse cx="259.75" cy="23" fill="#ADD1B2" rx="11" ry="11" style="stroke:#181818;stroke-width:1.0;"/><path d="M262.7188,28.6406 Q262.1406,28.9375 261.5,29.0781 Q260.8594,29.2344 260.1563,29.2344 Q257.6563,29.2344 256.3281,27.5938 Q255.0156,25.9375 255.0156,22.8125 Q255.0156,19.6875 256.3281,18.0313 Q257.6563,16.375 260.1563,16.375 Q260.8594,16.375 261.5,16.5313 Q262.1563,16.6875 262.7188,16.9844 L262.7188,19.7031 Q262.0938,19.125 261.5,18.8594 Q260.9063,18.5781 260.2813,18.5781 Q258.9375,18.5781 258.25,19.6563 Q257.5625,20.7188 257.5625,22.8125 Q257.5625,24.9063 258.25,25.9844 Q258.9375,27.0469 260.2813,27.0469 Q260.9063,27.0469 261.5,26.7813 Q262.0938,26.5 262.7188,25.9219 L262.7188,28.6406 Z " fill="#000000"/><text fill="#000000" font-family="sans-serif" font-size="14" lengthAdjust="spacing" textLength="36" x="280.25" y="27.8467">Todo</text><line style="stroke:#181818;stroke-width:0.5;" x1="200.5" x2="363.5" y1="39" y2="39"/><ellipse cx="210.5" cy="52.6484" fill="none" rx="3" ry="3" style="stroke:#038048;stroke-width:1.0;"/><text fill="#000000" font-family="sans-serif" font-size="14" lengthAdjust="spacing" textLength="73" x="219.5" y="55.9951">title: string</text><ellipse cx="210.5" cy="68.9453" fill="none" rx="3" ry="3" style="stroke:#038048;stroke-width:1.0;"/><text fill="#000000" font-family="sans-serif" font-size="14" lengthAdjust="spacing" textLength="139" x="219.5" y="72.292">completed: boolean</text><ellipse cx="210.5" cy="85.2422" fill="none" rx="3" ry="3" style="stroke:#038048;stroke-width:1.0;"/><text fill="#000000" font-family="sans-serif" font-size="14" lengthAdjust="spacing" textLength="75" x="219.5" y="88.5889">id: number</text><line style="stroke:#181818;stroke-width:0.5;" x1="200.5" x2="363.5" y1="95.8906" y2="95.8906"/></g><!--class Add--><g id="elem_Add"><rect codeLine="6" fill="#F1F1F1" height="64.2969" id="Add" rx="2.5" ry="2.5" style="stroke:#181818;stroke-width:0.5;" width="160" x="7" y="180.5"/><ellipse cx="69.25" cy="196.5" fill="#ADD1B2" rx="11" ry="11" style="stroke:#181818;stroke-width:1.0;"/><path d="M72.2188,202.1406 Q71.6406,202.4375 71,202.5781 Q70.3594,202.7344 69.6563,202.7344 Q67.1563,202.7344 65.8281,201.0938 Q64.5156,199.4375 64.5156,196.3125 Q64.5156,193.1875 65.8281,191.5313 Q67.1563,189.875 69.6563,189.875 Q70.3594,189.875 71,190.0313 Q71.6563,190.1875 72.2188,190.4844 L72.2188,193.2031 Q71.5938,192.625 71,192.3594 Q70.4063,192.0781 69.7813,192.0781 Q68.4375,192.0781 67.75,193.1563 Q67.0625,194.2188 67.0625,196.3125 Q67.0625,198.4063 67.75,199.4844 Q68.4375,200.5469 69.7813,200.5469 Q70.4063,200.5469 71,200.2813 Q71.5938,200 72.2188,199.4219 L72.2188,202.1406 Z " fill="#000000"/><text fill="#000000" font-family="sans-serif" font-size="14" lengthAdjust="spacing" textLength="27" x="89.75" y="201.3467">Add</text><line style="stroke:#181818;stroke-width:0.5;" x1="8" x2="166" y1="212.5" y2="212.5"/><line style="stroke:#181818;stroke-width:0.5;" x1="8" x2="166" y1="220.5" y2="220.5"/><ellipse cx="18" cy="234.1484" fill="#84BE84" rx="3" ry="3" style="stroke:#038048;stroke-width:1.0;"/><text fill="#000000" font-family="sans-serif" font-size="14" lengthAdjust="spacing" textLength="134" x="27" y="237.4951">execute(): TodoList</text></g><!--class Delete--><g id="elem_Delete"><rect codeLine="9" fill="#F1F1F1" height="64.2969" id="Delete" rx="2.5" ry="2.5" style="stroke:#181818;stroke-width:0.5;" width="160" x="202" y="180.5"/><ellipse cx="254.75" cy="196.5" fill="#ADD1B2" rx="11" ry="11" style="stroke:#181818;stroke-width:1.0;"/><path d="M257.7188,202.1406 Q257.1406,202.4375 256.5,202.5781 Q255.8594,202.7344 255.1563,202.7344 Q252.6563,202.7344 251.3281,201.0938 Q250.0156,199.4375 250.0156,196.3125 Q250.0156,193.1875 251.3281,191.5313 Q252.6563,189.875 255.1563,189.875 Q255.8594,189.875 256.5,190.0313 Q257.1563,190.1875 257.7188,190.4844 L257.7188,193.2031 Q257.0938,192.625 256.5,192.3594 Q255.9063,192.0781 255.2813,192.0781 Q253.9375,192.0781 253.25,193.1563 Q252.5625,194.2188 252.5625,196.3125 Q252.5625,198.4063 253.25,199.4844 Q253.9375,200.5469 255.2813,200.5469 Q255.9063,200.5469 256.5,200.2813 Q257.0938,200 257.7188,199.4219 L257.7188,202.1406 Z " fill="#000000"/><text fill="#000000" font-family="sans-serif" font-size="14" lengthAdjust="spacing" textLength="46" x="275.25" y="201.3467">Delete</text><line style="stroke:#181818;stroke-width:0.5;" x1="203" x2="361" y1="212.5" y2="212.5"/><line style="stroke:#181818;stroke-width:0.5;" x1="203" x2="361" y1="220.5" y2="220.5"/><ellipse cx="213" cy="234.1484" fill="#84BE84" rx="3" ry="3" style="stroke:#038048;stroke-width:1.0;"/><text fill="#000000" font-family="sans-serif" font-size="14" lengthAdjust="spacing" textLength="134" x="222" y="237.4951">execute(): TodoList</text></g><!--class ChangeCompleted--><g id="elem_ChangeCompleted"><rect codeLine="12" fill="#F1F1F1" height="64.2969" id="ChangeCompleted" rx="2.5" ry="2.5" style="stroke:#181818;stroke-width:0.5;" width="162" x="397" y="180.5"/><ellipse cx="412" cy="196.5" fill="#ADD1B2" rx="11" ry="11" style="stroke:#181818;stroke-width:1.0;"/><path d="M414.9688,202.1406 Q414.3906,202.4375 413.75,202.5781 Q413.1094,202.7344 412.4063,202.7344 Q409.9063,202.7344 408.5781,201.0938 Q407.2656,199.4375 407.2656,196.3125 Q407.2656,193.1875 408.5781,191.5313 Q409.9063,189.875 412.4063,189.875 Q413.1094,189.875 413.75,190.0313 Q414.4063,190.1875 414.9688,190.4844 L414.9688,193.2031 Q414.3438,192.625 413.75,192.3594 Q413.1563,192.0781 412.5313,192.0781 Q411.1875,192.0781 410.5,193.1563 Q409.8125,194.2188 409.8125,196.3125 Q409.8125,198.4063 410.5,199.4844 Q411.1875,200.5469 412.5313,200.5469 Q413.1563,200.5469 413.75,200.2813 Q414.3438,200 414.9688,199.4219 L414.9688,202.1406 Z " fill="#000000"/><text fill="#000000" font-family="sans-serif" font-size="14" lengthAdjust="spacing" textLength="130" x="426" y="201.3467">ChangeCompleted</text><line style="stroke:#181818;stroke-width:0.5;" x1="398" x2="558" y1="212.5" y2="212.5"/><line style="stroke:#181818;stroke-width:0.5;" x1="398" x2="558" y1="220.5" y2="220.5"/><ellipse cx="408" cy="234.1484" fill="#84BE84" rx="3" ry="3" style="stroke:#038048;stroke-width:1.0;"/><text fill="#000000" font-family="sans-serif" font-size="14" lengthAdjust="spacing" textLength="134" x="417" y="237.4951">execute(): TodoList</text></g><!--class Show--><g id="elem_Show"><rect codeLine="16" fill="#F1F1F1" height="96.8906" id="Show" rx="2.5" ry="2.5" style="stroke:#181818;stroke-width:0.5;" width="165" x="594.5" y="164"/><ellipse cx="653.75" cy="180" fill="#ADD1B2" rx="11" ry="11" style="stroke:#181818;stroke-width:1.0;"/><path d="M656.7188,185.6406 Q656.1406,185.9375 655.5,186.0781 Q654.8594,186.2344 654.1563,186.2344 Q651.6563,186.2344 650.3281,184.5938 Q649.0156,182.9375 649.0156,179.8125 Q649.0156,176.6875 650.3281,175.0313 Q651.6563,173.375 654.1563,173.375 Q654.8594,173.375 655.5,173.5313 Q656.1563,173.6875 656.7188,173.9844 L656.7188,176.7031 Q656.0938,176.125 655.5,175.8594 Q654.9063,175.5781 654.2813,175.5781 Q652.9375,175.5781 652.25,176.6563 Q651.5625,177.7188 651.5625,179.8125 Q651.5625,181.9063 652.25,182.9844 Q652.9375,184.0469 654.2813,184.0469 Q654.9063,184.0469 655.5,183.7813 Q656.0938,183.5 656.7188,182.9219 L656.7188,185.6406 Z " fill="#000000"/><text fill="#000000" font-family="sans-serif" font-size="14" lengthAdjust="spacing" textLength="38" x="674.25" y="184.8467">Show</text><line style="stroke:#181818;stroke-width:0.5;" x1="595.5" x2="758.5" y1="196" y2="196"/><line style="stroke:#181818;stroke-width:0.5;" x1="595.5" x2="758.5" y1="204" y2="204"/><ellipse cx="605.5" cy="217.6484" fill="#84BE84" rx="3" ry="3" style="stroke:#038048;stroke-width:1.0;"/><text fill="#000000" font-family="sans-serif" font-size="14" lengthAdjust="spacing" textLength="61" x="614.5" y="220.9951">all(): void</text><ellipse cx="605.5" cy="233.9453" fill="#84BE84" rx="3" ry="3" style="stroke:#038048;stroke-width:1.0;"/><text fill="#000000" font-family="sans-serif" font-size="14" lengthAdjust="spacing" textLength="121" x="614.5" y="237.292">completed(): void</text><ellipse cx="605.5" cy="250.2422" fill="#84BE84" rx="3" ry="3" style="stroke:#038048;stroke-width:1.0;"/><text fill="#000000" font-family="sans-serif" font-size="14" lengthAdjust="spacing" textLength="139" x="614.5" y="253.5889">uncompleted(): void</text></g><!--class DataManager--><g id="elem_DataManager"><rect codeLine="22" fill="#F1F1F1" height="80.5938" id="DataManager" rx="2.5" ry="2.5" style="stroke:#181818;stroke-width:0.5;" width="124" x="795" y="172"/><ellipse cx="810" cy="188" fill="#ADD1B2" rx="11" ry="11" style="stroke:#181818;stroke-width:1.0;"/><path d="M812.9688,193.6406 Q812.3906,193.9375 811.75,194.0781 Q811.1094,194.2344 810.4063,194.2344 Q807.9063,194.2344 806.5781,192.5938 Q805.2656,190.9375 805.2656,187.8125 Q805.2656,184.6875 806.5781,183.0313 Q807.9063,181.375 810.4063,181.375 Q811.1094,181.375 811.75,181.5313 Q812.4063,181.6875 812.9688,181.9844 L812.9688,184.7031 Q812.3438,184.125 811.75,183.8594 Q811.1563,183.5781 810.5313,183.5781 Q809.1875,183.5781 808.5,184.6563 Q807.8125,185.7188 807.8125,187.8125 Q807.8125,189.9063 808.5,190.9844 Q809.1875,192.0469 810.5313,192.0469 Q811.1563,192.0469 811.75,191.7813 Q812.3438,191.5 812.9688,190.9219 L812.9688,193.6406 Z " fill="#000000"/><text fill="#000000" font-family="sans-serif" font-size="14" lengthAdjust="spacing" textLength="92" x="824" y="192.8467">DataManager</text><line style="stroke:#181818;stroke-width:0.5;" x1="796" x2="918" y1="204" y2="204"/><line style="stroke:#181818;stroke-width:0.5;" x1="796" x2="918" y1="212" y2="212"/><ellipse cx="806" cy="225.6484" fill="#84BE84" rx="3" ry="3" style="stroke:#038048;stroke-width:1.0;"/><text fill="#000000" font-family="sans-serif" font-size="14" lengthAdjust="spacing" textLength="79" x="815" y="228.9951">save(): void</text><ellipse cx="806" cy="241.9453" fill="#84BE84" rx="3" ry="3" style="stroke:#038048;stroke-width:1.0;"/><text fill="#000000" font-family="sans-serif" font-size="14" lengthAdjust="spacing" textLength="76" x="815" y="245.292">load(): void</text></g><!--class TodoList--><g id="elem_TodoList"><rect codeLine="27" fill="#F1F1F1" height="64.2969" id="TodoList" rx="2.5" ry="2.5" style="stroke:#181818;stroke-width:0.5;" width="169" x="393.5" y="321"/><ellipse cx="444.25" cy="337" fill="#ADD1B2" rx="11" ry="11" style="stroke:#181818;stroke-width:1.0;"/><path d="M447.2188,342.6406 Q446.6406,342.9375 446,343.0781 Q445.3594,343.2344 444.6563,343.2344 Q442.1563,343.2344 440.8281,341.5938 Q439.5156,339.9375 439.5156,336.8125 Q439.5156,333.6875 440.8281,332.0313 Q442.1563,330.375 444.6563,330.375 Q445.3594,330.375 446,330.5313 Q446.6563,330.6875 447.2188,330.9844 L447.2188,333.7031 Q446.5938,333.125 446,332.8594 Q445.4063,332.5781 444.7813,332.5781 Q443.4375,332.5781 442.75,333.6563 Q442.0625,334.7188 442.0625,336.8125 Q442.0625,338.9063 442.75,339.9844 Q443.4375,341.0469 444.7813,341.0469 Q445.4063,341.0469 446,340.7813 Q446.5938,340.5 447.2188,339.9219 L447.2188,342.6406 Z " fill="#000000"/><text fill="#000000" font-family="sans-serif" font-size="14" lengthAdjust="spacing" textLength="59" x="464.75" y="341.8467">TodoList</text><line style="stroke:#181818;stroke-width:0.5;" x1="394.5" x2="561.5" y1="353" y2="353"/><ellipse cx="404.5" cy="366.6484" fill="none" rx="3" ry="3" style="stroke:#038048;stroke-width:1.0;"/><text fill="#000000" font-family="sans-serif" font-size="14" lengthAdjust="spacing" textLength="143" x="413.5" y="369.9951">dataArray: TodoArray</text><line style="stroke:#181818;stroke-width:0.5;" x1="394.5" x2="561.5" y1="377.2969" y2="377.2969"/></g><!--reverse link Todo to Add--><g id="link_Todo_Add"><path codeLine="31" d="M218.11,107.28 C187.74,131.42 152.42,159.5 126.09,180.42 " fill="none" id="Todo-backto-Add" style="stroke:#181818;stroke-width:1.0;"/><polygon fill="#181818" points="222.17,104.06,212.6312,106.5119,218.2504,107.1642,217.598,112.7834,222.17,104.06" style="stroke:#181818;stroke-width:1.0;"/></g><!--reverse link Todo to Delete--><g id="link_Todo_Delete"><path codeLine="32" d="M282,109.55 C282,133.11 282,160.02 282,180.27 " fill="none" id="Todo-backto-Delete" style="stroke:#181818;stroke-width:1.0;"/><polygon fill="#181818" points="282,104.27,278,113.27,282,109.27,286,113.27,282,104.27" style="stroke:#181818;stroke-width:1.0;"/></g><!--reverse link Todo to ChangeCompleted--><g id="link_Todo_ChangeCompleted"><path codeLine="33" d="M346.22,107.28 C376.74,131.42 412.24,159.5 438.71,180.42 " fill="none" id="Todo-backto-ChangeCompleted" style="stroke:#181818;stroke-width:1.0;"/><polygon fill="#181818" points="342.14,104.06,346.6924,112.7936,346.0527,107.173,351.6733,106.5333,342.14,104.06" style="stroke:#181818;stroke-width:1.0;"/></g><!--reverse link Add to TodoList--><g id="link_Add_TodoList"><path codeLine="35" d="M151.46,246.79 C162.21,251.84 173.32,256.76 184,261 C253.16,288.44 334.07,312.96 393.48,329.61 " fill="none" id="Add-backto-TodoList" style="stroke:#181818;stroke-width:1.0;"/><polygon fill="#181818" points="146.89,244.62,153.3052,252.093,151.4069,246.7641,156.7358,244.8659,146.89,244.62" style="stroke:#181818;stroke-width:1.0;"/></g><!--reverse link Delete to TodoList--><g id="link_Delete_TodoList"><path codeLine="36" d="M330.19,247.56 C361.87,269.94 402.99,299 433.82,320.78 " fill="none" id="Delete-backto-TodoList" style="stroke:#181818;stroke-width:1.0;"/><polygon fill="#181818" points="325.99,244.58,331.0337,253.0394,330.074,247.4645,335.6489,246.5049,325.99,244.58" style="stroke:#181818;stroke-width:1.0;"/></g><!--reverse link ChangeCompleted to TodoList--><g id="link_ChangeCompleted_TodoList"><path codeLine="37" d="M478,249.75 C478,271.73 478,299.49 478,320.54 " fill="none" id="ChangeCompleted-backto-TodoList" style="stroke:#181818;stroke-width:1.0;"/><polygon fill="#181818" points="478,244.58,474,253.58,478,249.58,482,253.58,478,244.58" style="stroke:#181818;stroke-width:1.0;"/></g><!--reverse link Show to TodoList--><g id="link_Show_TodoList"><path codeLine="38" d="M604.15,264.2 C576.82,283.22 546.58,304.27 522.57,320.98 " fill="none" id="Show-backto-TodoList" style="stroke:#181818;stroke-width:1.0;"/><polygon fill="#181818" points="608.52,261.16,598.8461,263.0081,604.4132,264.012,603.4093,269.579,608.52,261.16" style="stroke:#181818;stroke-width:1.0;"/></g><!--reverse link DataManager to TodoList--><g id="link_DataManager_TodoList"><path codeLine="39" d="M790.4,254.62 C785.93,256.89 781.43,259.04 777,261 C707.13,291.84 623.71,316.27 562.75,332.03 " fill="none" id="DataManager-backto-TodoList" style="stroke:#181818;stroke-width:1.0;"/><polygon fill="#181818" points="794.87,252.31,785.0371,252.8704,790.4239,254.5974,788.6969,259.9842,794.87,252.31" style="stroke:#181818;stroke-width:1.0;"/></g><!--SRC=[ZL1B3i8W4DrpYbbgZ1Tet3JjKbTwWMcPL18A1cZL6EzkAKLROgAiuFsOUL1Bj1PEcki7W-5im0adAGFhZ53DXDMwlKXon3Eej9Q4QYB4WAYkhSWmU388QJddCOnkL7UELkji_6Clh9i9I_AX_scBCwg6YZZ83rDq7S_w6gKefPVrMl1qhGJlr1Vc4rgYmmCgRCZ4R8iz9I5IurTt73DQ-P2M6uFtiC5u3Nh_XDrswmkTlK9hCo2fXh51FnBlHe9bYIMk9UbxIo8-Io-85m00]--></g></svg>