<?xml version="1.0" encoding="UTF-8" standalone="no"?><svg xmlns="http://www.w3.org/2000/svg" xmlns:xlink="http://www.w3.org/1999/xlink" contentStyleType="text/css" height="515px" preserveAspectRatio="none" style="width:700px;height:515px;background:#FFFFFF;" version="1.1" viewBox="0 0 700 515" width="700px" zoomAndPan="magnify"><defs/><g><!--class Todo--><g id="elem_Todo"><rect codeLine="1" fill="#F1F1F1" height="96.8906" id="Todo" rx="2.5" ry="2.5" style="stroke:#181818;stroke-width:0.5;" width="178" x="261" y="7"/><ellipse cx="327.75" cy="23" fill="#ADD1B2" rx="11" ry="11" style="stroke:#181818;stroke-width:1.0;"/><path d="M330.7188,28.6406 Q330.1406,28.9375 329.5,29.0781 Q328.8594,29.2344 328.1563,29.2344 Q325.6563,29.2344 324.3281,27.5938 Q323.0156,25.9375 323.0156,22.8125 Q323.0156,19.6875 324.3281,18.0313 Q325.6563,16.375 328.1563,16.375 Q328.8594,16.375 329.5,16.5313 Q330.1563,16.6875 330.7188,16.9844 L330.7188,19.7031 Q330.0938,19.125 329.5,18.8594 Q328.9063,18.5781 328.2813,18.5781 Q326.9375,18.5781 326.25,19.6563 Q325.5625,20.7188 325.5625,22.8125 Q325.5625,24.9063 326.25,25.9844 Q326.9375,27.0469 328.2813,27.0469 Q328.9063,27.0469 329.5,26.7813 Q330.0938,26.5 330.7188,25.9219 L330.7188,28.6406 Z " fill="#000000"/><text fill="#000000" font-family="sans-serif" font-size="14" lengthAdjust="spacing" textLength="36" x="348.25" y="27.8467">Todo</text><line style="stroke:#181818;stroke-width:0.5;" x1="262" x2="438" y1="39" y2="39"/><ellipse cx="272" cy="52.6484" fill="none" rx="3" ry="3" style="stroke:#038048;stroke-width:1.0;"/><text fill="#000000" font-family="sans-serif" font-size="14" lengthAdjust="spacing" textLength="73" x="281" y="55.9951">title: string</text><ellipse cx="272" cy="68.9453" fill="none" rx="3" ry="3" style="stroke:#038048;stroke-width:1.0;"/><text fill="#000000" font-family="sans-serif" font-size="14" lengthAdjust="spacing" textLength="152" x="281" y="72.292">isCompleted: boolean</text><ellipse cx="272" cy="85.2422" fill="none" rx="3" ry="3" style="stroke:#038048;stroke-width:1.0;"/><text fill="#000000" font-family="sans-serif" font-size="14" lengthAdjust="spacing" textLength="75" x="281" y="88.5889">id: number</text><line style="stroke:#181818;stroke-width:0.5;" x1="262" x2="438" y1="95.8906" y2="95.8906"/></g><!--class TodoList--><g id="elem_TodoList"><rect codeLine="6" fill="#F1F1F1" height="64.2969" id="TodoList" rx="2.5" ry="2.5" style="stroke:#181818;stroke-width:0.5;" width="136" x="282" y="288"/><ellipse cx="317.25" cy="304" fill="#ADD1B2" rx="11" ry="11" style="stroke:#181818;stroke-width:1.0;"/><path d="M320.2188,309.6406 Q319.6406,309.9375 319,310.0781 Q318.3594,310.2344 317.6563,310.2344 Q315.1563,310.2344 313.8281,308.5938 Q312.5156,306.9375 312.5156,303.8125 Q312.5156,300.6875 313.8281,299.0313 Q315.1563,297.375 317.6563,297.375 Q318.3594,297.375 319,297.5313 Q319.6563,297.6875 320.2188,297.9844 L320.2188,300.7031 Q319.5938,300.125 319,299.8594 Q318.4063,299.5781 317.7813,299.5781 Q316.4375,299.5781 315.75,300.6563 Q315.0625,301.7188 315.0625,303.8125 Q315.0625,305.9063 315.75,306.9844 Q316.4375,308.0469 317.7813,308.0469 Q318.4063,308.0469 319,307.7813 Q319.5938,307.5 320.2188,306.9219 L320.2188,309.6406 Z " fill="#000000"/><text fill="#000000" font-family="sans-serif" font-size="14" lengthAdjust="spacing" textLength="59" x="335.75" y="308.8467">TodoList</text><line style="stroke:#181818;stroke-width:0.5;" x1="283" x2="417" y1="320" y2="320"/><ellipse cx="293" cy="333.6484" fill="none" rx="3" ry="3" style="stroke:#038048;stroke-width:1.0;"/><text fill="#000000" font-family="sans-serif" font-size="14" lengthAdjust="spacing" textLength="110" x="302" y="336.9951">todoList: Todo[]</text><line style="stroke:#181818;stroke-width:0.5;" x1="283" x2="417" y1="344.2969" y2="344.2969"/></g><!--class Add--><g id="elem_Add"><rect codeLine="9" fill="#F1F1F1" height="64.2969" id="Add" rx="2.5" ry="2.5" style="stroke:#181818;stroke-width:0.5;" width="206" x="7" y="164"/><ellipse cx="92.25" cy="180" fill="#ADD1B2" rx="11" ry="11" style="stroke:#181818;stroke-width:1.0;"/><path d="M95.2188,185.6406 Q94.6406,185.9375 94,186.0781 Q93.3594,186.2344 92.6563,186.2344 Q90.1563,186.2344 88.8281,184.5938 Q87.5156,182.9375 87.5156,179.8125 Q87.5156,176.6875 88.8281,175.0313 Q90.1563,173.375 92.6563,173.375 Q93.3594,173.375 94,173.5313 Q94.6563,173.6875 95.2188,173.9844 L95.2188,176.7031 Q94.5938,176.125 94,175.8594 Q93.4063,175.5781 92.7813,175.5781 Q91.4375,175.5781 90.75,176.6563 Q90.0625,177.7188 90.0625,179.8125 Q90.0625,181.9063 90.75,182.9844 Q91.4375,184.0469 92.7813,184.0469 Q93.4063,184.0469 94,183.7813 Q94.5938,183.5 95.2188,182.9219 L95.2188,185.6406 Z " fill="#000000"/><text fill="#000000" font-family="sans-serif" font-size="14" lengthAdjust="spacing" textLength="27" x="112.75" y="184.8467">Add</text><line style="stroke:#181818;stroke-width:0.5;" x1="8" x2="212" y1="196" y2="196"/><line style="stroke:#181818;stroke-width:0.5;" x1="8" x2="212" y1="204" y2="204"/><ellipse cx="18" cy="217.6484" fill="#84BE84" rx="3" ry="3" style="stroke:#038048;stroke-width:1.0;"/><text fill="#000000" font-family="sans-serif" font-size="14" lengthAdjust="spacing" textLength="180" x="27" y="220.9951">execute(todo: Todo): void</text></g><!--class Delete--><g id="elem_Delete"><rect codeLine="12" fill="#F1F1F1" height="64.2969" id="Delete" rx="2.5" ry="2.5" style="stroke:#181818;stroke-width:0.5;" width="204" x="248" y="164"/><ellipse cx="322.75" cy="180" fill="#ADD1B2" rx="11" ry="11" style="stroke:#181818;stroke-width:1.0;"/><path d="M325.7188,185.6406 Q325.1406,185.9375 324.5,186.0781 Q323.8594,186.2344 323.1563,186.2344 Q320.6563,186.2344 319.3281,184.5938 Q318.0156,182.9375 318.0156,179.8125 Q318.0156,176.6875 319.3281,175.0313 Q320.6563,173.375 323.1563,173.375 Q323.8594,173.375 324.5,173.5313 Q325.1563,173.6875 325.7188,173.9844 L325.7188,176.7031 Q325.0938,176.125 324.5,175.8594 Q323.9063,175.5781 323.2813,175.5781 Q321.9375,175.5781 321.25,176.6563 Q320.5625,177.7188 320.5625,179.8125 Q320.5625,181.9063 321.25,182.9844 Q321.9375,184.0469 323.2813,184.0469 Q323.9063,184.0469 324.5,183.7813 Q325.0938,183.5 325.7188,182.9219 L325.7188,185.6406 Z " fill="#000000"/><text fill="#000000" font-family="sans-serif" font-size="14" lengthAdjust="spacing" textLength="46" x="343.25" y="184.8467">Delete</text><line style="stroke:#181818;stroke-width:0.5;" x1="249" x2="451" y1="196" y2="196"/><line style="stroke:#181818;stroke-width:0.5;" x1="249" x2="451" y1="204" y2="204"/><ellipse cx="259" cy="217.6484" fill="#84BE84" rx="3" ry="3" style="stroke:#038048;stroke-width:1.0;"/><text fill="#000000" font-family="sans-serif" font-size="14" lengthAdjust="spacing" textLength="178" x="268" y="220.9951">execute(id: number): void</text></g><!--class ChangeCompleted--><g id="elem_ChangeCompleted"><rect codeLine="15" fill="#F1F1F1" height="64.2969" id="ChangeCompleted" rx="2.5" ry="2.5" style="stroke:#181818;stroke-width:0.5;" width="206" x="487" y="164"/><ellipse cx="521.8" cy="180" fill="#ADD1B2" rx="11" ry="11" style="stroke:#181818;stroke-width:1.0;"/><path d="M524.7688,185.6406 Q524.1906,185.9375 523.55,186.0781 Q522.9094,186.2344 522.2063,186.2344 Q519.7063,186.2344 518.3781,184.5938 Q517.0656,182.9375 517.0656,179.8125 Q517.0656,176.6875 518.3781,175.0313 Q519.7063,173.375 522.2063,173.375 Q522.9094,173.375 523.55,173.5313 Q524.2063,173.6875 524.7688,173.9844 L524.7688,176.7031 Q524.1438,176.125 523.55,175.8594 Q522.9563,175.5781 522.3313,175.5781 Q520.9875,175.5781 520.3,176.6563 Q519.6125,177.7188 519.6125,179.8125 Q519.6125,181.9063 520.3,182.9844 Q520.9875,184.0469 522.3313,184.0469 Q522.9563,184.0469 523.55,183.7813 Q524.1438,183.5 524.7688,182.9219 L524.7688,185.6406 Z " fill="#000000"/><text fill="#000000" font-family="sans-serif" font-size="14" lengthAdjust="spacing" textLength="130" x="540.2" y="184.8467">ChangeCompleted</text><line style="stroke:#181818;stroke-width:0.5;" x1="488" x2="692" y1="196" y2="196"/><line style="stroke:#181818;stroke-width:0.5;" x1="488" x2="692" y1="204" y2="204"/><ellipse cx="498" cy="217.6484" fill="#84BE84" rx="3" ry="3" style="stroke:#038048;stroke-width:1.0;"/><text fill="#000000" font-family="sans-serif" font-size="14" lengthAdjust="spacing" textLength="180" x="507" y="220.9951">execute(todo: Todo): void</text></g><!--class Show--><g id="elem_Show"><rect codeLine="18" fill="#F1F1F1" height="96.8906" id="Show" rx="2.5" ry="2.5" style="stroke:#181818;stroke-width:0.5;" width="307" x="45.5" y="412"/><ellipse cx="175.75" cy="428" fill="#ADD1B2" rx="11" ry="11" style="stroke:#181818;stroke-width:1.0;"/><path d="M178.7188,433.6406 Q178.1406,433.9375 177.5,434.0781 Q176.8594,434.2344 176.1563,434.2344 Q173.6563,434.2344 172.3281,432.5938 Q171.0156,430.9375 171.0156,427.8125 Q171.0156,424.6875 172.3281,423.0313 Q173.6563,421.375 176.1563,421.375 Q176.8594,421.375 177.5,421.5313 Q178.1563,421.6875 178.7188,421.9844 L178.7188,424.7031 Q178.0938,424.125 177.5,423.8594 Q176.9063,423.5781 176.2813,423.5781 Q174.9375,423.5781 174.25,424.6563 Q173.5625,425.7188 173.5625,427.8125 Q173.5625,429.9063 174.25,430.9844 Q174.9375,432.0469 176.2813,432.0469 Q176.9063,432.0469 177.5,431.7813 Q178.0938,431.5 178.7188,430.9219 L178.7188,433.6406 Z " fill="#000000"/><text fill="#000000" font-family="sans-serif" font-size="14" lengthAdjust="spacing" textLength="38" x="196.25" y="432.8467">Show</text><line style="stroke:#181818;stroke-width:0.5;" x1="46.5" x2="351.5" y1="444" y2="444"/><line style="stroke:#181818;stroke-width:0.5;" x1="46.5" x2="351.5" y1="452" y2="452"/><ellipse cx="56.5" cy="465.6484" fill="#84BE84" rx="3" ry="3" style="stroke:#038048;stroke-width:1.0;"/><text fill="#000000" font-family="sans-serif" font-size="14" lengthAdjust="spacing" textLength="187" x="65.5" y="468.9951">All(toDoList: TodoList): void</text><ellipse cx="56.5" cy="481.9453" fill="#84BE84" rx="3" ry="3" style="stroke:#038048;stroke-width:1.0;"/><text fill="#000000" font-family="sans-serif" font-size="14" lengthAdjust="spacing" textLength="281" x="65.5" y="485.292">unCompletedAll(toDoList: TodoList): void</text><ellipse cx="56.5" cy="498.2422" fill="#84BE84" rx="3" ry="3" style="stroke:#038048;stroke-width:1.0;"/><text fill="#000000" font-family="sans-serif" font-size="14" lengthAdjust="spacing" textLength="261" x="65.5" y="501.5889">completedAll(toDoList: TodoList): void</text></g><!--class DataManager--><g id="elem_DataManager"><rect codeLine="23" fill="#F1F1F1" height="80.5938" id="DataManager" rx="2.5" ry="2.5" style="stroke:#181818;stroke-width:0.5;" width="228" x="388" y="420"/><ellipse cx="451.75" cy="436" fill="#ADD1B2" rx="11" ry="11" style="stroke:#181818;stroke-width:1.0;"/><path d="M454.7188,441.6406 Q454.1406,441.9375 453.5,442.0781 Q452.8594,442.2344 452.1563,442.2344 Q449.6563,442.2344 448.3281,440.5938 Q447.0156,438.9375 447.0156,435.8125 Q447.0156,432.6875 448.3281,431.0313 Q449.6563,429.375 452.1563,429.375 Q452.8594,429.375 453.5,429.5313 Q454.1563,429.6875 454.7188,429.9844 L454.7188,432.7031 Q454.0938,432.125 453.5,431.8594 Q452.9063,431.5781 452.2813,431.5781 Q450.9375,431.5781 450.25,432.6563 Q449.5625,433.7188 449.5625,435.8125 Q449.5625,437.9063 450.25,438.9844 Q450.9375,440.0469 452.2813,440.0469 Q452.9063,440.0469 453.5,439.7813 Q454.0938,439.5 454.7188,438.9219 L454.7188,441.6406 Z " fill="#000000"/><text fill="#000000" font-family="sans-serif" font-size="14" lengthAdjust="spacing" textLength="92" x="472.25" y="440.8467">DataManager</text><line style="stroke:#181818;stroke-width:0.5;" x1="389" x2="615" y1="452" y2="452"/><line style="stroke:#181818;stroke-width:0.5;" x1="389" x2="615" y1="460" y2="460"/><ellipse cx="399" cy="473.6484" fill="#84BE84" rx="3" ry="3" style="stroke:#038048;stroke-width:1.0;"/><text fill="#000000" font-family="sans-serif" font-size="14" lengthAdjust="spacing" textLength="202" x="408" y="476.9951">save(todoList: TodoList): void</text><ellipse cx="399" cy="489.9453" fill="#84BE84" rx="3" ry="3" style="stroke:#038048;stroke-width:1.0;"/><text fill="#000000" font-family="sans-serif" font-size="14" lengthAdjust="spacing" textLength="199" x="408" y="493.292">load(todoList: TodoList): void</text></g><!--reverse link Todo to Delete--><g id="link_Todo_Delete"><path codeLine="28" d="M350,124.64 C350,138.34 350,152.1 350,163.77 " fill="none" id="Todo-backto-Delete" style="stroke:#181818;stroke-width:1.0;"/><polygon fill="none" points="343,124.16,350,104.16,357,124.16,343,124.16" style="stroke:#181818;stroke-width:1.0;"/></g><!--reverse link Todo to Add--><g id="link_Todo_Add"><path codeLine="29" d="M249.8,114.33 C220.29,131.35 189.14,149.33 163.75,163.98 " fill="none" id="Todo-backto-Add" style="stroke:#181818;stroke-width:1.0;"/><polygon fill="none" points="246.58,108.1,267.41,104.16,253.58,120.22,246.58,108.1" style="stroke:#181818;stroke-width:1.0;"/></g><!--reverse link Todo to ChangeCompleted--><g id="link_Todo_ChangeCompleted"><path codeLine="30" d="M450.2,114.33 C479.71,131.35 510.86,149.33 536.25,163.98 " fill="none" id="Todo-backto-ChangeCompleted" style="stroke:#181818;stroke-width:1.0;"/><polygon fill="none" points="446.42,120.22,432.59,104.16,453.42,108.1,446.42,120.22" style="stroke:#181818;stroke-width:1.0;"/></g><!--reverse link TodoList to Show--><g id="link_TodoList_Show"><path codeLine="32" d="M301.35,365.63 C285.22,380.41 267.22,396.93 250.87,411.93 " fill="none" id="TodoList-backto-Show" style="stroke:#181818;stroke-width:1.0;"/><polygon fill="none" points="296.64,360.44,316.11,352.08,306.11,370.76,296.64,360.44" style="stroke:#181818;stroke-width:1.0;"/></g><!--reverse link TodoList to DataManager--><g id="link_TodoList_DataManager"><path codeLine="33" d="M399.09,365.73 C418.2,383.14 439.92,402.93 458.46,419.82 " fill="none" id="TodoList-backto-DataManager" style="stroke:#181818;stroke-width:1.0;"/><polygon fill="none" points="394.18,370.73,384.11,352.08,403.61,360.38,394.18,370.73" style="stroke:#181818;stroke-width:1.0;"/></g><!--reverse link Delete to TodoList--><g id="link_Delete_TodoList"><path codeLine="35" d="M350,248.34 C350,261.81 350,275.92 350,287.96 " fill="none" id="Delete-backto-TodoList" style="stroke:#181818;stroke-width:1.0;"/><polygon fill="none" points="343,248.1,350,228.1,357,248.1,343,248.1" style="stroke:#181818;stroke-width:1.0;"/></g><!--reverse link Add to TodoList--><g id="link_Add_TodoList"><path codeLine="36" d="M189.18,237.25 C221.64,253.75 258.62,272.55 288.93,287.96 " fill="none" id="Add-backto-TodoList" style="stroke:#181818;stroke-width:1.0;"/><polygon fill="none" points="185.84,243.4,171.18,228.1,192.18,230.92,185.84,243.4" style="stroke:#181818;stroke-width:1.0;"/></g><!--reverse link ChangeCompleted to TodoList--><g id="link_ChangeCompleted_TodoList"><path codeLine="37" d="M510.82,237.25 C478.36,253.75 441.38,272.55 411.07,287.96 " fill="none" id="ChangeCompleted-backto-TodoList" style="stroke:#181818;stroke-width:1.0;"/><polygon fill="none" points="507.82,230.92,528.82,228.1,514.16,243.4,507.82,230.92" style="stroke:#181818;stroke-width:1.0;"/></g><!--SRC=[dP6n3e8m48Ptd-96ZU45Y8lHKIVTZCD9BzYaj8OMD57VNTgY5CH0P03ot__rl-i102G2jOQzOke-WVgPW-56K0pQv5ocWSxrIcKNGOPO32Ub1A4CovKgY-n4kHEVxjqaRBWshPHQYrtrSFo2beo5VhfHKXYQMiupinXAnTaNk2RROn_RjFYBNPrHflIPyxy6TcTr3Scb41Mr3iQrVo7jVONy18z5al50wuhGu1ObffI7ZMei_Nn3iK8X6p0-9-vZIx1uH56zbevOBRcZT3RGd683lCNURuyS3EKfd-YBRwihLAazQYUvxNW1]--></g></svg>