<?xml version="1.0" encoding="UTF-8" standalone="no"?><svg xmlns="http://www.w3.org/2000/svg" xmlns:xlink="http://www.w3.org/1999/xlink" contentStyleType="text/css" height="706px" preserveAspectRatio="none" style="width:1070px;height:706px;background:#FFFFFF;" version="1.1" viewBox="0 0 1070 706" width="1070px" zoomAndPan="magnify"><defs/><g><!--class Form--><g id="elem_Form"><rect codeLine="1" fill="#F1F1F1" height="96.8906" id="Form" rx="2.5" ry="2.5" style="stroke:#181818;stroke-width:0.5;" width="212" x="28" y="7"/><ellipse cx="112.25" cy="23" fill="#ADD1B2" rx="11" ry="11" style="stroke:#181818;stroke-width:1.0;"/><path d="M115.2188,28.6406 Q114.6406,28.9375 114,29.0781 Q113.3594,29.2344 112.6563,29.2344 Q110.1563,29.2344 108.8281,27.5938 Q107.5156,25.9375 107.5156,22.8125 Q107.5156,19.6875 108.8281,18.0313 Q110.1563,16.375 112.6563,16.375 Q113.3594,16.375 114,16.5313 Q114.6563,16.6875 115.2188,16.9844 L115.2188,19.7031 Q114.5938,19.125 114,18.8594 Q113.4063,18.5781 112.7813,18.5781 Q111.4375,18.5781 110.75,19.6563 Q110.0625,20.7188 110.0625,22.8125 Q110.0625,24.9063 110.75,25.9844 Q111.4375,27.0469 112.7813,27.0469 Q113.4063,27.0469 114,26.7813 Q114.5938,26.5 115.2188,25.9219 L115.2188,28.6406 Z " fill="#000000"/><text fill="#000000" font-family="sans-serif" font-size="14" lengthAdjust="spacing" textLength="35" x="132.75" y="27.8467">Form</text><line style="stroke:#181818;stroke-width:0.5;" x1="29" x2="239" y1="39" y2="39"/><ellipse cx="39" cy="52.6484" fill="none" rx="3" ry="3" style="stroke:#038048;stroke-width:1.0;"/><text fill="#000000" font-family="sans-serif" font-size="14" lengthAdjust="spacing" textLength="165" x="48" y="55.9951">problem: HTMLTextArea</text><ellipse cx="39" cy="68.9453" fill="none" rx="3" ry="3" style="stroke:#038048;stroke-width:1.0;"/><text fill="#000000" font-family="sans-serif" font-size="14" lengthAdjust="spacing" textLength="158" x="48" y="72.292">answer: HTMLTextArea</text><ellipse cx="39" cy="85.2422" fill="none" rx="3" ry="3" style="stroke:#038048;stroke-width:1.0;"/><text fill="#000000" font-family="sans-serif" font-size="14" lengthAdjust="spacing" textLength="186" x="48" y="88.5889">submit: HTMLInputElement</text><line style="stroke:#181818;stroke-width:0.5;" x1="29" x2="239" y1="95.8906" y2="95.8906"/></g><!--class Item--><g id="elem_Item"><rect codeLine="7" fill="#F1F1F1" height="113.1875" id="Item" rx="2.5" ry="2.5" style="stroke:#181818;stroke-width:0.5;" width="156" x="907" y="446"/><ellipse cx="965.75" cy="462" fill="#A9DCDF" rx="11" ry="11" style="stroke:#181818;stroke-width:1.0;"/><path d="M965.8594,457.3438 L964.7031,462.4219 L967.0313,462.4219 L965.8594,457.3438 Z M964.375,455.1094 L967.3594,455.1094 L970.7188,467.5 L968.2656,467.5 L967.5,464.4375 L964.2188,464.4375 L963.4688,467.5 L961.0313,467.5 L964.375,455.1094 Z " fill="#000000"/><text fill="#000000" font-family="sans-serif" font-size="14" font-style="italic" lengthAdjust="spacing" textLength="30" x="986.25" y="466.8467">Item</text><line style="stroke:#181818;stroke-width:0.5;" x1="908" x2="1062" y1="478" y2="478"/><ellipse cx="918" cy="491.6484" fill="none" rx="3" ry="3" style="stroke:#038048;stroke-width:1.0;"/><text fill="#000000" font-family="sans-serif" font-size="14" lengthAdjust="spacing" textLength="114" x="927" y="494.9951">problem: strbing</text><ellipse cx="918" cy="507.9453" fill="none" rx="3" ry="3" style="stroke:#038048;stroke-width:1.0;"/><text fill="#000000" font-family="sans-serif" font-size="14" lengthAdjust="spacing" textLength="98" x="927" y="511.292">answer: string</text><ellipse cx="918" cy="524.2422" fill="none" rx="3" ry="3" style="stroke:#038048;stroke-width:1.0;"/><text fill="#000000" font-family="sans-serif" font-size="14" lengthAdjust="spacing" textLength="75" x="927" y="527.5889">id: number</text><ellipse cx="918" cy="540.5391" fill="none" rx="3" ry="3" style="stroke:#038048;stroke-width:1.0;"/><text fill="#000000" font-family="sans-serif" font-size="14" lengthAdjust="spacing" textLength="130" x="927" y="543.8857">complete: boolean</text><line style="stroke:#181818;stroke-width:0.5;" x1="908" x2="1062" y1="551.1875" y2="551.1875"/></g><!--class ItemFactoryProtocol--><g id="elem_ItemFactoryProtocol"><rect codeLine="14" fill="#F1F1F1" height="64.2969" id="ItemFactoryProtocol" rx="2.5" ry="2.5" style="stroke:#181818;stroke-width:0.5;" width="224" x="632" y="313.5"/><ellipse cx="671.75" cy="329.5" fill="#B4A7E5" rx="11" ry="11" style="stroke:#181818;stroke-width:1.0;"/><path d="M667.6719,325.2656 L667.6719,323.1094 L675.0625,323.1094 L675.0625,325.2656 L672.5938,325.2656 L672.5938,333.3438 L675.0625,333.3438 L675.0625,335.5 L667.6719,335.5 L667.6719,333.3438 L670.1406,333.3438 L670.1406,325.2656 L667.6719,325.2656 Z " fill="#000000"/><text fill="#000000" font-family="sans-serif" font-size="14" font-style="italic" lengthAdjust="spacing" textLength="137" x="691.25" y="334.3467">ItemFactoryProtocol</text><line style="stroke:#181818;stroke-width:0.5;" x1="633" x2="855" y1="345.5" y2="345.5"/><line style="stroke:#181818;stroke-width:0.5;" x1="633" x2="855" y1="353.5" y2="353.5"/><text fill="#000000" font-family="sans-serif" font-size="14" lengthAdjust="spacing" textLength="212" x="638" y="370.4951">create(formObj: FormObj): void</text></g><!--class ConcreteItem--><g id="elem_ConcreteItem"><rect codeLine="18" fill="#F1F1F1" height="48" id="ConcreteItem" rx="2.5" ry="2.5" style="stroke:#181818;stroke-width:0.5;" width="126" x="918" y="635.5"/><ellipse cx="933" cy="651.5" fill="#ADD1B2" rx="11" ry="11" style="stroke:#181818;stroke-width:1.0;"/><path d="M935.9688,657.1406 Q935.3906,657.4375 934.75,657.5781 Q934.1094,657.7344 933.4063,657.7344 Q930.9063,657.7344 929.5781,656.0938 Q928.2656,654.4375 928.2656,651.3125 Q928.2656,648.1875 929.5781,646.5313 Q930.9063,644.875 933.4063,644.875 Q934.1094,644.875 934.75,645.0313 Q935.4063,645.1875 935.9688,645.4844 L935.9688,648.2031 Q935.3438,647.625 934.75,647.3594 Q934.1563,647.0781 933.5313,647.0781 Q932.1875,647.0781 931.5,648.1563 Q930.8125,649.2188 930.8125,651.3125 Q930.8125,653.4063 931.5,654.4844 Q932.1875,655.5469 933.5313,655.5469 Q934.1563,655.5469 934.75,655.2813 Q935.3438,655 935.9688,654.4219 L935.9688,657.1406 Z " fill="#000000"/><text fill="#000000" font-family="sans-serif" font-size="14" lengthAdjust="spacing" textLength="94" x="947" y="656.3467">ConcreteItem</text><line style="stroke:#181818;stroke-width:0.5;" x1="919" x2="1043" y1="667.5" y2="667.5"/><line style="stroke:#181818;stroke-width:0.5;" x1="919" x2="1043" y1="675.5" y2="675.5"/></g><!--class ItemFactory--><g id="elem_ItemFactory"><rect codeLine="20" fill="#F1F1F1" height="113.1875" id="ItemFactory" rx="2.5" ry="2.5" style="stroke:#181818;stroke-width:0.5;" width="256" x="616" y="446"/><ellipse cx="699.75" cy="462" fill="#A9DCDF" rx="11" ry="11" style="stroke:#181818;stroke-width:1.0;"/><path d="M699.8594,457.3438 L698.7031,462.4219 L701.0313,462.4219 L699.8594,457.3438 Z M698.375,455.1094 L701.3594,455.1094 L704.7188,467.5 L702.2656,467.5 L701.5,464.4375 L698.2188,464.4375 L697.4688,467.5 L695.0313,467.5 L698.375,455.1094 Z " fill="#000000"/><text fill="#000000" font-family="sans-serif" font-size="14" font-style="italic" lengthAdjust="spacing" textLength="80" x="720.25" y="466.8467">ItemFactory</text><line style="stroke:#181818;stroke-width:0.5;" x1="617" x2="871" y1="478" y2="478"/><line style="stroke:#181818;stroke-width:0.5;" x1="617" x2="871" y1="486" y2="486"/><text fill="#000000" font-family="sans-serif" font-size="14" lengthAdjust="spacing" textLength="223" x="622" y="502.9951">create({formObj: FormObj): Item</text><text fill="#000000" font-family="sans-serif" font-size="14" lengthAdjust="spacing" textLength="4" x="622" y="519.292"> </text><text fill="#000000" font-family="sans-serif" font-size="14" font-style="italic" lengthAdjust="spacing" textLength="244" x="622" y="535.5889">createItem(formObj: FormObj): Item</text><text fill="#000000" font-family="sans-serif" font-size="14" font-style="italic" lengthAdjust="spacing" textLength="199" x="622" y="551.8857">registerItem(item: Item): void</text></g><!--class ConcreteItemFactory--><g id="elem_ConcreteItemFactory"><rect codeLine="27" fill="#F1F1F1" height="80.5938" id="ConcreteItemFactory" rx="2.5" ry="2.5" style="stroke:#181818;stroke-width:0.5;" width="256" x="623" y="619"/><ellipse cx="674.75" cy="635" fill="#ADD1B2" rx="11" ry="11" style="stroke:#181818;stroke-width:1.0;"/><path d="M677.7188,640.6406 Q677.1406,640.9375 676.5,641.0781 Q675.8594,641.2344 675.1563,641.2344 Q672.6563,641.2344 671.3281,639.5938 Q670.0156,637.9375 670.0156,634.8125 Q670.0156,631.6875 671.3281,630.0313 Q672.6563,628.375 675.1563,628.375 Q675.8594,628.375 676.5,628.5313 Q677.1563,628.6875 677.7188,628.9844 L677.7188,631.7031 Q677.0938,631.125 676.5,630.8594 Q675.9063,630.5781 675.2813,630.5781 Q673.9375,630.5781 673.25,631.6563 Q672.5625,632.7188 672.5625,634.8125 Q672.5625,636.9063 673.25,637.9844 Q673.9375,639.0469 675.2813,639.0469 Q675.9063,639.0469 676.5,638.7813 Q677.0938,638.5 677.7188,637.9219 L677.7188,640.6406 Z " fill="#000000"/><text fill="#000000" font-family="sans-serif" font-size="14" lengthAdjust="spacing" textLength="144" x="695.25" y="639.8467">ConcreteItemFactory</text><line style="stroke:#181818;stroke-width:0.5;" x1="624" x2="878" y1="651" y2="651"/><line style="stroke:#181818;stroke-width:0.5;" x1="624" x2="878" y1="659" y2="659"/><text fill="#000000" font-family="sans-serif" font-size="14" lengthAdjust="spacing" textLength="244" x="629" y="675.9951">createItem(formObj: FormObj): Item</text><text fill="#000000" font-family="sans-serif" font-size="14" lengthAdjust="spacing" textLength="199" x="629" y="692.292">registerItem(item: Item): void</text></g><!--class SubmitEventController--><g id="elem_SubmitEventController"><rect codeLine="33" fill="#F1F1F1" height="80.5938" id="SubmitEventController" rx="2.5" ry="2.5" style="stroke:#181818;stroke-width:0.5;" width="254" x="7" y="164"/><ellipse cx="52.75" cy="180" fill="#ADD1B2" rx="11" ry="11" style="stroke:#181818;stroke-width:1.0;"/><path d="M55.7188,185.6406 Q55.1406,185.9375 54.5,186.0781 Q53.8594,186.2344 53.1563,186.2344 Q50.6563,186.2344 49.3281,184.5938 Q48.0156,182.9375 48.0156,179.8125 Q48.0156,176.6875 49.3281,175.0313 Q50.6563,173.375 53.1563,173.375 Q53.8594,173.375 54.5,173.5313 Q55.1563,173.6875 55.7188,173.9844 L55.7188,176.7031 Q55.0938,176.125 54.5,175.8594 Q53.9063,175.5781 53.2813,175.5781 Q51.9375,175.5781 51.25,176.6563 Q50.5625,177.7188 50.5625,179.8125 Q50.5625,181.9063 51.25,182.9844 Q51.9375,184.0469 53.2813,184.0469 Q53.9063,184.0469 54.5,183.7813 Q55.0938,183.5 55.7188,182.9219 L55.7188,185.6406 Z " fill="#000000"/><text fill="#000000" font-family="sans-serif" font-size="14" lengthAdjust="spacing" textLength="154" x="73.25" y="184.8467">SubmitEventController</text><line style="stroke:#181818;stroke-width:0.5;" x1="8" x2="260" y1="196" y2="196"/><text fill="#000000" font-family="sans-serif" font-size="14" lengthAdjust="spacing" textLength="242" x="13" y="212.9951">formDataSender: IFormDataSender</text><line style="stroke:#181818;stroke-width:0.5;" x1="8" x2="260" y1="220.2969" y2="220.2969"/><text fill="#000000" font-family="sans-serif" font-size="14" lengthAdjust="spacing" textLength="172" x="13" y="237.292">onClick(form: Form): void</text></g><!--class IFormDataSender--><g id="elem_IFormDataSender"><rect codeLine="39" fill="#F1F1F1" height="64.2969" id="IFormDataSender" rx="2.5" ry="2.5" style="stroke:#181818;stroke-width:0.5;" width="261" x="296.5" y="172.5"/><ellipse cx="362.75" cy="188.5" fill="#B4A7E5" rx="11" ry="11" style="stroke:#181818;stroke-width:1.0;"/><path d="M358.6719,184.2656 L358.6719,182.1094 L366.0625,182.1094 L366.0625,184.2656 L363.5938,184.2656 L363.5938,192.3438 L366.0625,192.3438 L366.0625,194.5 L358.6719,194.5 L358.6719,192.3438 L361.1406,192.3438 L361.1406,184.2656 L358.6719,184.2656 Z " fill="#000000"/><text fill="#000000" font-family="sans-serif" font-size="14" font-style="italic" lengthAdjust="spacing" textLength="120" x="383.25" y="193.3467">IFormDataSender</text><line style="stroke:#181818;stroke-width:0.5;" x1="297.5" x2="556.5" y1="204.5" y2="204.5"/><line style="stroke:#181818;stroke-width:0.5;" x1="297.5" x2="556.5" y1="212.5" y2="212.5"/><text fill="#000000" font-family="sans-serif" font-size="14" lengthAdjust="spacing" textLength="249" x="302.5" y="229.4951">addItemToItemList(form: Form): void</text></g><!--class FormDataSender--><g id="elem_FormDataSender"><rect codeLine="43" fill="#F1F1F1" height="80.5938" id="FormDataSender" rx="2.5" ry="2.5" style="stroke:#181818;stroke-width:0.5;" width="340" x="257" y="305"/><ellipse cx="364.25" cy="321" fill="#ADD1B2" rx="11" ry="11" style="stroke:#181818;stroke-width:1.0;"/><path d="M367.2188,326.6406 Q366.6406,326.9375 366,327.0781 Q365.3594,327.2344 364.6563,327.2344 Q362.1563,327.2344 360.8281,325.5938 Q359.5156,323.9375 359.5156,320.8125 Q359.5156,317.6875 360.8281,316.0313 Q362.1563,314.375 364.6563,314.375 Q365.3594,314.375 366,314.5313 Q366.6563,314.6875 367.2188,314.9844 L367.2188,317.7031 Q366.5938,317.125 366,316.8594 Q365.4063,316.5781 364.7813,316.5781 Q363.4375,316.5781 362.75,317.6563 Q362.0625,318.7188 362.0625,320.8125 Q362.0625,322.9063 362.75,323.9844 Q363.4375,325.0469 364.7813,325.0469 Q365.4063,325.0469 366,324.7813 Q366.5938,324.5 367.2188,323.9219 L367.2188,326.6406 Z " fill="#000000"/><text fill="#000000" font-family="sans-serif" font-size="14" lengthAdjust="spacing" textLength="117" x="384.75" y="325.8467">FormDataSender</text><line style="stroke:#181818;stroke-width:0.5;" x1="258" x2="596" y1="337" y2="337"/><line style="stroke:#181818;stroke-width:0.5;" x1="258" x2="596" y1="345" y2="345"/><rect fill="#F24D5C" height="6" style="stroke:#C82930;stroke-width:1.0;" width="6" x="265" y="355.6484"/><text fill="#000000" font-family="sans-serif" font-size="14" lengthAdjust="spacing" textLength="314" x="277" y="361.9951">convertFormDataToItem(form: Form): ItemList</text><text fill="#000000" font-family="sans-serif" font-size="14" lengthAdjust="spacing" textLength="249" x="277" y="378.292">addItemToItemList(form: Form): void</text></g><!--reverse link Item to ConcreteItem--><g id="link_Item_ConcreteItem"><path d="M983.05,579.17 C982.52,599.59 981.99,620.18 981.6,635.26 " fill="none" id="Item-backto-ConcreteItem" style="stroke:#181818;stroke-width:1.0;"/><polygon fill="none" points="976.05,578.83,983.57,559.02,990.05,579.19,976.05,578.83" style="stroke:#181818;stroke-width:1.0;"/></g><!--reverse link ItemFactory to ConcreteItemFactory--><g id="link_ItemFactory_ConcreteItemFactory"><path d="M747.43,579.47 C748.05,593.12 748.67,606.83 749.21,618.91 " fill="none" id="ItemFactory-backto-ConcreteItemFactory" style="stroke:#181818;stroke-width:1.0;"/><polygon fill="none" points="740.42,579.32,746.51,559.02,754.4,578.68,740.42,579.32" style="stroke:#181818;stroke-width:1.0;"/></g><!--reverse link Form to SubmitEventController--><g id="link_Form_SubmitEventController"><path codeLine="48" d="M134,109.25 C134,127.26 134,147.08 134,163.88 " fill="none" id="Form-backto-SubmitEventController" style="stroke:#181818;stroke-width:1.0;"/><polygon fill="#181818" points="134,104.23,130,113.23,134,109.23,138,113.23,134,104.23" style="stroke:#181818;stroke-width:1.0;"/></g><!--link SubmitEventController to IFormDataSender--><g id="link_SubmitEventController_IFormDataSender"><path codeLine="49" d="M261.04,204.5 C271.07,204.5 281.1,204.5 291.13,204.5 " fill="none" id="SubmitEventController-to-IFormDataSender" style="stroke:#181818;stroke-width:1.0;"/><polygon fill="#181818" points="296.37,204.5,287.37,200.5,291.37,204.5,287.37,208.5,296.37,204.5" style="stroke:#181818;stroke-width:1.0;"/></g><!--reverse link IFormDataSender to FormDataSender--><g id="link_IFormDataSender_FormDataSender"><path codeLine="50" d="M427,256.83 C427,272.72 427,289.97 427,304.94 " fill="none" id="IFormDataSender-backto-FormDataSender" style="stroke:#181818;stroke-width:1.0;stroke-dasharray:7.0,7.0;"/><polygon fill="none" points="420,256.69,427,236.69,434,256.69,420,256.69" style="stroke:#181818;stroke-width:1.0;"/></g><!--link ItemFactory to Item--><g id="link_ItemFactory_Item"><path codeLine="51" d="M872.03,502.5 C881.93,502.5 891.82,502.5 901.72,502.5 " fill="none" id="ItemFactory-to-Item" style="stroke:#181818;stroke-width:1.0;"/><polygon fill="#181818" points="906.89,502.5,897.89,498.5,901.89,502.5,897.89,506.5,906.89,502.5" style="stroke:#181818;stroke-width:1.0;"/></g><!--link ConcreteItemFactory to ConcreteItem--><g id="link_ConcreteItemFactory_ConcreteItem"><path codeLine="52" d="M879.03,659.5 C890.2,659.5 901.36,659.5 912.53,659.5 " fill="none" id="ConcreteItemFactory-to-ConcreteItem" style="stroke:#181818;stroke-width:1.0;"/><polygon fill="#181818" points="917.67,659.5,908.67,655.5,912.67,659.5,908.67,663.5,917.67,659.5" style="stroke:#181818;stroke-width:1.0;"/></g><!--link FormDataSender to ItemFactoryProtocol--><g id="link_FormDataSender_ItemFactoryProtocol"><path codeLine="53" d="M597.26,345.5 C607.11,345.5 616.95,345.5 626.79,345.5 " fill="none" id="FormDataSender-to-ItemFactoryProtocol" style="stroke:#181818;stroke-width:1.0;"/><polygon fill="#181818" points="631.94,345.5,622.94,341.5,626.94,345.5,622.94,349.5,631.94,345.5" style="stroke:#181818;stroke-width:1.0;"/></g><!--reverse link ItemFactoryProtocol to ItemFactory--><g id="link_ItemFactoryProtocol_ItemFactory"><path codeLine="54" d="M744,397.89 C744,413.23 744,430.11 744,445.72 " fill="none" id="ItemFactoryProtocol-backto-ItemFactory" style="stroke:#181818;stroke-width:1.0;stroke-dasharray:7.0,7.0;"/><polygon fill="none" points="737,397.87,744,377.87,751,397.87,737,397.87" style="stroke:#181818;stroke-width:1.0;"/></g><!--SRC=[bLDHJiCm3FtFAV8vXBe3L1CI6fkOD0JITe4qzQP0caofDq1ZTyT9CsX3OA8VLM8_l_SS9rABjkLpwveZu_HTyvspbOQcvFVhX-KQtl3MWOWvOTfNSDbKkwyQXLrgONPxd14966GdnaJLeXCIkGng2uIVQeIebDacGXJz3ggwv6RVLE1YGDfcfm6Xv9Mr6eJnOieWk8sG47Jc96lT-vEpQANLdQmasmYZ3NNzM3sNeNrQN9NyO5NjIJgZKsi8Yk29EBKBfexkyqr5iO78CQFYiIo0ZcUMKyJxrEYtagJ2mLQrr6oeKUXFqI__R2DQ77IJiNtHncNjABuAzs9seAj0Fj1PhS5rKfx_Jg1OaHC_xCLy40WOQwPQoPVWfJFIb-ZDUbZR2OYwzgRMrl-Nv3TF8x_UG4fGq1Kp1t1uJdPKGvep-Nya_PPFYY9_F2mRvSNDZoDAzdpoKOnvYkcDtLFu4UQk1ENwOPPGnzBaGR5CZ5oCYpwOVG80]--></g></svg>