<?xml version="1.0" encoding="UTF-8" standalone="no"?><svg xmlns="http://www.w3.org/2000/svg" xmlns:xlink="http://www.w3.org/1999/xlink" contentStyleType="text/css" height="280px" preserveAspectRatio="none" style="width:578px;height:280px;background:#FFFFFF;" version="1.1" viewBox="0 0 578 280" width="578px" zoomAndPan="magnify"><defs/><g><!--class SubmitEventController--><g id="elem_SubmitEventController"><rect codeLine="1" fill="#F1F1F1" height="80.5938" id="SubmitEventController" rx="2.5" ry="2.5" style="stroke:#181818;stroke-width:0.5;" width="264" x="7" y="7"/><ellipse cx="57.75" cy="23" fill="#ADD1B2" rx="11" ry="11" style="stroke:#181818;stroke-width:1.0;"/><path d="M60.7188,28.6406 Q60.1406,28.9375 59.5,29.0781 Q58.8594,29.2344 58.1563,29.2344 Q55.6563,29.2344 54.3281,27.5938 Q53.0156,25.9375 53.0156,22.8125 Q53.0156,19.6875 54.3281,18.0313 Q55.6563,16.375 58.1563,16.375 Q58.8594,16.375 59.5,16.5313 Q60.1563,16.6875 60.7188,16.9844 L60.7188,19.7031 Q60.0938,19.125 59.5,18.8594 Q58.9063,18.5781 58.2813,18.5781 Q56.9375,18.5781 56.25,19.6563 Q55.5625,20.7188 55.5625,22.8125 Q55.5625,24.9063 56.25,25.9844 Q56.9375,27.0469 58.2813,27.0469 Q58.9063,27.0469 59.5,26.7813 Q60.0938,26.5 60.7188,25.9219 L60.7188,28.6406 Z " fill="#000000"/><text fill="#000000" font-family="sans-serif" font-size="14" lengthAdjust="spacing" textLength="154" x="78.25" y="27.8467">SubmitEventController</text><line style="stroke:#181818;stroke-width:0.5;" x1="8" x2="270" y1="39" y2="39"/><text fill="#000000" font-family="sans-serif" font-size="14" lengthAdjust="spacing" textLength="252" x="13" y="55.9951">formResetter: FormResetterProtocol</text><line style="stroke:#181818;stroke-width:0.5;" x1="8" x2="270" y1="63.2969" y2="63.2969"/><text fill="#000000" font-family="sans-serif" font-size="14" lengthAdjust="spacing" textLength="172" x="13" y="80.292">onClick(form: Form): void</text></g><!--class FormResetterProtocol--><g id="elem_FormResetterProtocol"><rect codeLine="6" fill="#F1F1F1" height="64.2969" id="FormResetterProtocol" rx="2.5" ry="2.5" style="stroke:#181818;stroke-width:0.5;" width="265" x="306.5" y="15.5"/><ellipse cx="358.75" cy="31.5" fill="#B4A7E5" rx="11" ry="11" style="stroke:#181818;stroke-width:1.0;"/><path d="M354.6719,27.2656 L354.6719,25.1094 L362.0625,25.1094 L362.0625,27.2656 L359.5938,27.2656 L359.5938,35.3438 L362.0625,35.3438 L362.0625,37.5 L354.6719,37.5 L354.6719,35.3438 L357.1406,35.3438 L357.1406,27.2656 L354.6719,27.2656 Z " fill="#000000"/><text fill="#000000" font-family="sans-serif" font-size="14" font-style="italic" lengthAdjust="spacing" textLength="152" x="379.25" y="36.3467">FormResetterProtocol</text><line style="stroke:#181818;stroke-width:0.5;" x1="307.5" x2="570.5" y1="47.5" y2="47.5"/><line style="stroke:#181818;stroke-width:0.5;" x1="307.5" x2="570.5" y1="55.5" y2="55.5"/><text fill="#000000" font-family="sans-serif" font-size="14" lengthAdjust="spacing" textLength="253" x="312.5" y="72.4951">reset(form: HTMLFormElement): void</text></g><!--class FormResetter--><g id="elem_FormResetter"><rect codeLine="10" fill="#F1F1F1" height="64.2969" id="FormResetter" rx="2.5" ry="2.5" style="stroke:#181818;stroke-width:0.5;" width="265" x="306.5" y="209"/><ellipse cx="387.25" cy="225" fill="#ADD1B2" rx="11" ry="11" style="stroke:#181818;stroke-width:1.0;"/><path d="M390.2188,230.6406 Q389.6406,230.9375 389,231.0781 Q388.3594,231.2344 387.6563,231.2344 Q385.1563,231.2344 383.8281,229.5938 Q382.5156,227.9375 382.5156,224.8125 Q382.5156,221.6875 383.8281,220.0313 Q385.1563,218.375 387.6563,218.375 Q388.3594,218.375 389,218.5313 Q389.6563,218.6875 390.2188,218.9844 L390.2188,221.7031 Q389.5938,221.125 389,220.8594 Q388.4063,220.5781 387.7813,220.5781 Q386.4375,220.5781 385.75,221.6563 Q385.0625,222.7188 385.0625,224.8125 Q385.0625,226.9063 385.75,227.9844 Q386.4375,229.0469 387.7813,229.0469 Q388.4063,229.0469 389,228.7813 Q389.5938,228.5 390.2188,227.9219 L390.2188,230.6406 Z " fill="#000000"/><text fill="#000000" font-family="sans-serif" font-size="14" lengthAdjust="spacing" textLength="95" x="407.75" y="229.8467">FormResetter</text><line style="stroke:#181818;stroke-width:0.5;" x1="307.5" x2="570.5" y1="241" y2="241"/><line style="stroke:#181818;stroke-width:0.5;" x1="307.5" x2="570.5" y1="249" y2="249"/><text fill="#000000" font-family="sans-serif" font-size="14" lengthAdjust="spacing" textLength="253" x="312.5" y="265.9951">reset(form: HTMLFormElement): void</text></g><!--link SubmitEventController to FormResetterProtocol--><g id="link_SubmitEventController_FormResetterProtocol"><path codeLine="14" d="M271.13,47.5 C281.09,47.5 291.05,47.5 301,47.5 " fill="none" id="SubmitEventController-to-FormResetterProtocol" style="stroke:#181818;stroke-width:1.0;"/><polygon fill="#181818" points="306.21,47.5,297.21,43.5,301.21,47.5,297.21,51.5,306.21,47.5" style="stroke:#181818;stroke-width:1.0;"/></g><!--reverse link FormResetterProtocol to FormResetter--><g id="link_FormResetterProtocol_FormResetter"><path codeLine="15" d="M439,99.81 C439,134.55 439,179.33 439,208.82 " fill="none" id="FormResetterProtocol-backto-FormResetter" style="stroke:#181818;stroke-width:1.0;stroke-dasharray:7.0,7.0;"/><polygon fill="none" points="432,99.69,439,79.69,446,99.69,432,99.69" style="stroke:#181818;stroke-width:1.0;"/></g><!--SRC=[Iyv9B2vM22vDoiqiSIrBpIjnpiyhAShFoKajgkPI08Aq_ABSeDJYr9AIr28h1JSaNa1HVab-SduEM5b-ddDEPdAs1aWvH9ccbK9PVcOALoqNLsOUK7bQOd8gLlqGUuf0eb3j7Y6-FY2LhZcfkK0d8PcK37OkiYcawCRgJGLTE-pUmYQeO5EZgwk7eXu0]--></g></svg>